<mxfile host="65bd71144e">
    <diagram id="LefRgsCW5dL_MJBt5yR-" name="modelo conceitual">
        <mxGraphModel dx="2478" dy="4987" grid="0" gridSize="10" guides="1" tooltips="1" connect="1" arrows="1" fold="1" page="0" pageScale="1" pageWidth="1169" pageHeight="827" background="none" math="0" shadow="0">
            <root>
                <mxCell id="0"/>
                <mxCell id="1" parent="0"/>
                <mxCell id="fCb3WjOM5glnsx4sddUI-47" style="edgeStyle=orthogonalEdgeStyle;rounded=0;html=1;entryX=0.5;entryY=0;entryDx=0;entryDy=0;endArrow=classic;endFill=1;sketch=1;curveFitting=1;jiggle=2;" parent="1" source="fCb3WjOM5glnsx4sddUI-28" target="fCb3WjOM5glnsx4sddUI-29" edge="1">
                    <mxGeometry relative="1" as="geometry"/>
                </mxCell>
                <mxCell id="fCb3WjOM5glnsx4sddUI-53" style="edgeStyle=orthogonalEdgeStyle;rounded=0;html=1;entryX=0.5;entryY=1;entryDx=0;entryDy=0;endArrow=classic;endFill=1;sketch=1;curveFitting=1;jiggle=2;" parent="1" source="fCb3WjOM5glnsx4sddUI-28" target="fCb3WjOM5glnsx4sddUI-52" edge="1">
                    <mxGeometry relative="1" as="geometry"/>
                </mxCell>
                <mxCell id="fCb3WjOM5glnsx4sddUI-28" value="Formulário de pré cadastro" style="rounded=0;whiteSpace=wrap;html=1;sketch=1;curveFitting=1;jiggle=2;" parent="1" vertex="1">
                    <mxGeometry x="-1261.5" y="-970" width="145" height="60" as="geometry"/>
                </mxCell>
                <mxCell id="fCb3WjOM5glnsx4sddUI-45" value="" style="edgeStyle=orthogonalEdgeStyle;rounded=0;html=1;endArrow=classic;endFill=1;sketch=1;curveFitting=1;jiggle=2;" parent="1" source="fCb3WjOM5glnsx4sddUI-29" target="fCb3WjOM5glnsx4sddUI-44" edge="1">
                    <mxGeometry relative="1" as="geometry"/>
                </mxCell>
                <mxCell id="fCb3WjOM5glnsx4sddUI-50" style="edgeStyle=orthogonalEdgeStyle;rounded=0;html=1;entryX=0;entryY=0.75;entryDx=0;entryDy=0;endArrow=classic;endFill=1;sketch=1;curveFitting=1;jiggle=2;" parent="1" source="fCb3WjOM5glnsx4sddUI-29" target="fCb3WjOM5glnsx4sddUI-28" edge="1">
                    <mxGeometry relative="1" as="geometry">
                        <Array as="points">
                            <mxPoint x="-1358.5" y="-925"/>
                        </Array>
                    </mxGeometry>
                </mxCell>
                <mxCell id="fCb3WjOM5glnsx4sddUI-29" value="Paciente" style="rounded=1;whiteSpace=wrap;html=1;fillColor=#60a917;fontColor=#ffffff;strokeColor=#2D7600;sketch=1;curveFitting=1;jiggle=2;" parent="1" vertex="1">
                    <mxGeometry x="-1444.5" y="-796" width="117" height="60" as="geometry"/>
                </mxCell>
                <mxCell id="fCb3WjOM5glnsx4sddUI-30" value="Cadastro" style="swimlane;fontStyle=0;childLayout=stackLayout;horizontal=1;startSize=30;horizontalStack=0;resizeParent=1;resizeParentMax=0;resizeLast=0;collapsible=1;marginBottom=0;sketch=1;curveFitting=1;jiggle=2;" parent="1" vertex="1">
                    <mxGeometry x="-915" y="-833" width="140" height="120" as="geometry"/>
                </mxCell>
                <mxCell id="fCb3WjOM5glnsx4sddUI-31" value="Id" style="text;strokeColor=none;fillColor=none;align=left;verticalAlign=middle;spacingLeft=4;spacingRight=4;overflow=hidden;points=[[0,0.5],[1,0.5]];portConstraint=eastwest;rotatable=0;sketch=1;curveFitting=1;jiggle=2;" parent="fCb3WjOM5glnsx4sddUI-30" vertex="1">
                    <mxGeometry y="30" width="140" height="30" as="geometry"/>
                </mxCell>
                <mxCell id="fCb3WjOM5glnsx4sddUI-32" value="Item 2" style="text;strokeColor=none;fillColor=none;align=left;verticalAlign=middle;spacingLeft=4;spacingRight=4;overflow=hidden;points=[[0,0.5],[1,0.5]];portConstraint=eastwest;rotatable=0;sketch=1;curveFitting=1;jiggle=2;" parent="fCb3WjOM5glnsx4sddUI-30" vertex="1">
                    <mxGeometry y="60" width="140" height="30" as="geometry"/>
                </mxCell>
                <mxCell id="fCb3WjOM5glnsx4sddUI-33" value="Item 3" style="text;strokeColor=none;fillColor=none;align=left;verticalAlign=middle;spacingLeft=4;spacingRight=4;overflow=hidden;points=[[0,0.5],[1,0.5]];portConstraint=eastwest;rotatable=0;sketch=1;curveFitting=1;jiggle=2;" parent="fCb3WjOM5glnsx4sddUI-30" vertex="1">
                    <mxGeometry y="90" width="140" height="30" as="geometry"/>
                </mxCell>
                <mxCell id="fCb3WjOM5glnsx4sddUI-42" value="Solicita" style="text;html=1;strokeColor=none;fillColor=none;align=center;verticalAlign=middle;whiteSpace=wrap;rounded=0;sketch=1;curveFitting=1;jiggle=2;" parent="1" vertex="1">
                    <mxGeometry x="-1317.5" y="-766" width="60" height="30" as="geometry"/>
                </mxCell>
                <mxCell id="fCb3WjOM5glnsx4sddUI-46" style="edgeStyle=orthogonalEdgeStyle;rounded=0;html=1;entryX=0.5;entryY=1;entryDx=0;entryDy=0;endArrow=classic;endFill=1;sketch=1;curveFitting=1;jiggle=2;" parent="1" source="fCb3WjOM5glnsx4sddUI-44" target="fCb3WjOM5glnsx4sddUI-28" edge="1">
                    <mxGeometry relative="1" as="geometry"/>
                </mxCell>
                <mxCell id="fCb3WjOM5glnsx4sddUI-44" value="recepcao" style="rounded=1;whiteSpace=wrap;html=1;fillColor=#1ba1e2;fontColor=#ffffff;strokeColor=#006EAF;sketch=1;curveFitting=1;jiggle=2;" parent="1" vertex="1">
                    <mxGeometry x="-1247.5" y="-796" width="117" height="60" as="geometry"/>
                </mxCell>
                <mxCell id="fCb3WjOM5glnsx4sddUI-48" value="LINK" style="text;html=1;strokeColor=none;fillColor=none;align=center;verticalAlign=middle;whiteSpace=wrap;rounded=0;sketch=1;curveFitting=1;jiggle=2;" parent="1" vertex="1">
                    <mxGeometry x="-1448" y="-872" width="60" height="30" as="geometry"/>
                </mxCell>
                <mxCell id="fCb3WjOM5glnsx4sddUI-49" value="ENVIA" style="text;html=1;strokeColor=none;fillColor=none;align=center;verticalAlign=middle;whiteSpace=wrap;rounded=0;sketch=1;curveFitting=1;jiggle=2;" parent="1" vertex="1">
                    <mxGeometry x="-1186.5" y="-836" width="60" height="30" as="geometry"/>
                </mxCell>
                <mxCell id="fCb3WjOM5glnsx4sddUI-51" value="Preenche" style="text;html=1;strokeColor=none;fillColor=none;align=center;verticalAlign=middle;whiteSpace=wrap;rounded=0;sketch=1;curveFitting=1;jiggle=2;" parent="1" vertex="1">
                    <mxGeometry x="-1357.5" y="-869" width="60" height="30" as="geometry"/>
                </mxCell>
                <mxCell id="fCb3WjOM5glnsx4sddUI-52" value="Table: cadastro&lt;br&gt;Table: fila_triagem" style="shape=datastore;whiteSpace=wrap;html=1;sketch=1;curveFitting=1;jiggle=2;" parent="1" vertex="1">
                    <mxGeometry x="-1091" y="-1116" width="108" height="108" as="geometry"/>
                </mxCell>
                <mxCell id="fCb3WjOM5glnsx4sddUI-54" value="Registra" style="text;html=1;strokeColor=none;fillColor=none;align=center;verticalAlign=middle;whiteSpace=wrap;rounded=0;sketch=1;curveFitting=1;jiggle=2;" parent="1" vertex="1">
                    <mxGeometry x="-1106" y="-968" width="60" height="30" as="geometry"/>
                </mxCell>
                <mxCell id="fCb3WjOM5glnsx4sddUI-55" value="1" style="text;html=1;strokeColor=none;fillColor=none;align=center;verticalAlign=middle;whiteSpace=wrap;rounded=0;sketch=1;curveFitting=1;jiggle=2;" parent="1" vertex="1">
                    <mxGeometry x="-1299" y="-796" width="23" height="27" as="geometry"/>
                </mxCell>
                <mxCell id="fCb3WjOM5glnsx4sddUI-56" value="2" style="text;html=1;strokeColor=none;fillColor=none;align=center;verticalAlign=middle;whiteSpace=wrap;rounded=0;sketch=1;curveFitting=1;jiggle=2;" parent="1" vertex="1">
                    <mxGeometry x="-1216.5" y="-834.5" width="23" height="27" as="geometry"/>
                </mxCell>
                <mxCell id="fCb3WjOM5glnsx4sddUI-57" value="3" style="text;html=1;strokeColor=none;fillColor=none;align=center;verticalAlign=middle;whiteSpace=wrap;rounded=0;sketch=1;curveFitting=1;jiggle=2;" parent="1" vertex="1">
                    <mxGeometry x="-1429.5" y="-892" width="23" height="27" as="geometry"/>
                </mxCell>
                <mxCell id="fCb3WjOM5glnsx4sddUI-58" value="4" style="text;html=1;strokeColor=none;fillColor=none;align=center;verticalAlign=middle;whiteSpace=wrap;rounded=0;sketch=1;curveFitting=1;jiggle=2;" parent="1" vertex="1">
                    <mxGeometry x="-1350.5" y="-888" width="23" height="27" as="geometry"/>
                </mxCell>
                <mxCell id="fCb3WjOM5glnsx4sddUI-59" value="5" style="text;html=1;strokeColor=none;fillColor=none;align=center;verticalAlign=middle;whiteSpace=wrap;rounded=0;sketch=1;curveFitting=1;jiggle=2;" parent="1" vertex="1">
                    <mxGeometry x="-1030" y="-958" width="23" height="27" as="geometry"/>
                </mxCell>
                <mxCell id="fCb3WjOM5glnsx4sddUI-60" value="categorias_odontológica" style="swimlane;fontStyle=0;childLayout=stackLayout;horizontal=1;startSize=30;horizontalStack=0;resizeParent=1;resizeParentMax=0;resizeLast=0;collapsible=1;marginBottom=0;sketch=1;curveFitting=1;jiggle=2;" parent="1" vertex="1">
                    <mxGeometry x="349" y="-1360" width="140" height="210" as="geometry"/>
                </mxCell>
                <mxCell id="fCb3WjOM5glnsx4sddUI-61" value="Ortodontista" style="text;strokeColor=none;fillColor=none;align=left;verticalAlign=middle;spacingLeft=4;spacingRight=4;overflow=hidden;points=[[0,0.5],[1,0.5]];portConstraint=eastwest;rotatable=0;sketch=1;curveFitting=1;jiggle=2;" parent="fCb3WjOM5glnsx4sddUI-60" vertex="1">
                    <mxGeometry y="30" width="140" height="30" as="geometry"/>
                </mxCell>
                <mxCell id="fCb3WjOM5glnsx4sddUI-62" value="Odontopediatra" style="text;strokeColor=none;fillColor=none;align=left;verticalAlign=middle;spacingLeft=4;spacingRight=4;overflow=hidden;points=[[0,0.5],[1,0.5]];portConstraint=eastwest;rotatable=0;sketch=1;curveFitting=1;jiggle=2;" parent="fCb3WjOM5glnsx4sddUI-60" vertex="1">
                    <mxGeometry y="60" width="140" height="30" as="geometry"/>
                </mxCell>
                <mxCell id="fCb3WjOM5glnsx4sddUI-63" value="ClinicoGeral" style="text;strokeColor=none;fillColor=none;align=left;verticalAlign=middle;spacingLeft=4;spacingRight=4;overflow=hidden;points=[[0,0.5],[1,0.5]];portConstraint=eastwest;rotatable=0;sketch=1;curveFitting=1;jiggle=2;" parent="fCb3WjOM5glnsx4sddUI-60" vertex="1">
                    <mxGeometry y="90" width="140" height="30" as="geometry"/>
                </mxCell>
                <mxCell id="12" value="Implantodentista" style="text;strokeColor=none;fillColor=none;align=left;verticalAlign=middle;spacingLeft=4;spacingRight=4;overflow=hidden;points=[[0,0.5],[1,0.5]];portConstraint=eastwest;rotatable=0;sketch=1;curveFitting=1;jiggle=2;" parent="fCb3WjOM5glnsx4sddUI-60" vertex="1">
                    <mxGeometry y="120" width="140" height="30" as="geometry"/>
                </mxCell>
                <mxCell id="13" value="Estomatologista" style="text;strokeColor=none;fillColor=none;align=left;verticalAlign=middle;spacingLeft=4;spacingRight=4;overflow=hidden;points=[[0,0.5],[1,0.5]];portConstraint=eastwest;rotatable=0;sketch=1;curveFitting=1;jiggle=2;" parent="fCb3WjOM5glnsx4sddUI-60" vertex="1">
                    <mxGeometry y="150" width="140" height="30" as="geometry"/>
                </mxCell>
                <mxCell id="14" value="Periodontista" style="text;strokeColor=none;fillColor=none;align=left;verticalAlign=middle;spacingLeft=4;spacingRight=4;overflow=hidden;points=[[0,0.5],[1,0.5]];portConstraint=eastwest;rotatable=0;sketch=1;curveFitting=1;jiggle=2;" parent="fCb3WjOM5glnsx4sddUI-60" vertex="1">
                    <mxGeometry y="180" width="140" height="30" as="geometry"/>
                </mxCell>
                <mxCell id="543" style="edgeStyle=none;sketch=1;hachureGap=4;jiggle=2;curveFitting=1;html=1;entryX=1.018;entryY=0.145;entryDx=0;entryDy=0;entryPerimeter=0;fontFamily=Architects Daughter;fontSource=https%3A%2F%2Ffonts.googleapis.com%2Fcss%3Ffamily%3DArchitects%2BDaughter;fontSize=16;" parent="1" source="fCb3WjOM5glnsx4sddUI-65" target="538" edge="1">
                    <mxGeometry relative="1" as="geometry">
                        <Array as="points">
                            <mxPoint x="-351" y="-3117"/>
                        </Array>
                    </mxGeometry>
                </mxCell>
                <mxCell id="830" style="edgeStyle=none;html=1;fontSize=16;fontFamily=Architects Daughter;sketch=1;hachureGap=4;jiggle=2;curveFitting=1;fontSource=https%3A%2F%2Ffonts.googleapis.com%2Fcss%3Ffamily%3DArchitects%2BDaughter;" edge="1" parent="1" source="fCb3WjOM5glnsx4sddUI-65" target="717">
                    <mxGeometry relative="1" as="geometry"/>
                </mxCell>
                <mxCell id="fCb3WjOM5glnsx4sddUI-65" value="Patient" style="swimlane;fontStyle=0;childLayout=stackLayout;horizontal=1;startSize=30;horizontalStack=0;resizeParent=1;resizeParentMax=0;resizeLast=0;collapsible=1;marginBottom=0;sketch=1;curveFitting=1;jiggle=2;" parent="1" vertex="1">
                    <mxGeometry x="-455" y="-2977" width="208" height="210" as="geometry"/>
                </mxCell>
                <mxCell id="fCb3WjOM5glnsx4sddUI-66" value="PK&lt;uuid&gt; patient_id &lt;varChar()&gt;" style="text;strokeColor=none;fillColor=none;align=left;verticalAlign=middle;spacingLeft=4;spacingRight=4;overflow=hidden;points=[[0,0.5],[1,0.5]];portConstraint=eastwest;rotatable=0;sketch=1;curveFitting=1;jiggle=2;" parent="fCb3WjOM5glnsx4sddUI-65" vertex="1">
                    <mxGeometry y="30" width="208" height="30" as="geometry"/>
                </mxCell>
                <mxCell id="537" value="FK&lt;uuid&gt; people_id &lt;varChar()&gt;" style="text;strokeColor=none;fillColor=none;align=left;verticalAlign=middle;spacingLeft=4;spacingRight=4;overflow=hidden;points=[[0,0.5],[1,0.5]];portConstraint=eastwest;rotatable=0;sketch=1;curveFitting=1;jiggle=2;" parent="fCb3WjOM5glnsx4sddUI-65" vertex="1">
                    <mxGeometry y="60" width="208" height="30" as="geometry"/>
                </mxCell>
                <mxCell id="HHL6tgYrVK19kQ1ae4VR-483" value="medical_record&lt;VarChar(100)&gt;" style="text;strokeColor=none;fillColor=none;align=left;verticalAlign=middle;spacingLeft=4;spacingRight=4;overflow=hidden;points=[[0,0.5],[1,0.5]];portConstraint=eastwest;rotatable=0;sketch=1;curveFitting=1;jiggle=2;" parent="fCb3WjOM5glnsx4sddUI-65" vertex="1">
                    <mxGeometry y="90" width="208" height="30" as="geometry"/>
                </mxCell>
                <mxCell id="JcwPq8-SoGFsI3RDKZIH-480" value="stats_type&lt;ENUM&gt;" style="text;strokeColor=none;fillColor=none;align=left;verticalAlign=middle;spacingLeft=4;spacingRight=4;overflow=hidden;points=[[0,0.5],[1,0.5]];portConstraint=eastwest;rotatable=0;sketch=1;curveFitting=1;jiggle=2;" parent="fCb3WjOM5glnsx4sddUI-65" vertex="1">
                    <mxGeometry y="120" width="208" height="30" as="geometry"/>
                </mxCell>
                <mxCell id="654" value="qtd_falta&lt;interger()&gt;" style="text;strokeColor=none;fillColor=none;align=left;verticalAlign=middle;spacingLeft=4;spacingRight=4;overflow=hidden;points=[[0,0.5],[1,0.5]];portConstraint=eastwest;rotatable=0;sketch=1;curveFitting=1;jiggle=2;" parent="fCb3WjOM5glnsx4sddUI-65" vertex="1">
                    <mxGeometry y="150" width="208" height="30" as="geometry"/>
                </mxCell>
                <mxCell id="435" value="FK&lt;uuid&gt; schedule&lt;VarChar(50)&gt;" style="text;strokeColor=none;fillColor=none;align=left;verticalAlign=middle;spacingLeft=4;spacingRight=4;overflow=hidden;points=[[0,0.5],[1,0.5]];portConstraint=eastwest;rotatable=0;sketch=1;curveFitting=1;jiggle=2;" parent="fCb3WjOM5glnsx4sddUI-65" vertex="1">
                    <mxGeometry y="180" width="208" height="30" as="geometry"/>
                </mxCell>
                <mxCell id="17" value="paciente_historicoMedico" style="swimlane;fontStyle=0;childLayout=stackLayout;horizontal=1;startSize=30;horizontalStack=0;resizeParent=1;resizeParentMax=0;resizeLast=0;collapsible=1;marginBottom=0;sketch=1;curveFitting=1;jiggle=2;" parent="1" vertex="1">
                    <mxGeometry x="-549" y="-1278" width="183" height="600" as="geometry"/>
                </mxCell>
                <mxCell id="18" value="PK&lt;uuid&gt; id&lt;varChar&gt;" style="text;strokeColor=none;fillColor=none;align=left;verticalAlign=middle;spacingLeft=4;spacingRight=4;overflow=hidden;points=[[0,0.5],[1,0.5]];portConstraint=eastwest;rotatable=0;sketch=1;curveFitting=1;jiggle=2;" parent="17" vertex="1">
                    <mxGeometry y="30" width="183" height="30" as="geometry"/>
                </mxCell>
                <mxCell id="19" value="algumaDoenca&lt;Boolean()&gt;" style="text;strokeColor=none;fillColor=none;align=left;verticalAlign=middle;spacingLeft=4;spacingRight=4;overflow=hidden;points=[[0,0.5],[1,0.5]];portConstraint=eastwest;rotatable=0;sketch=1;curveFitting=1;jiggle=2;" parent="17" vertex="1">
                    <mxGeometry y="60" width="183" height="30" as="geometry"/>
                </mxCell>
                <mxCell id="20" value="qualDoenca&lt;varChar(150)&gt;" style="text;strokeColor=none;fillColor=none;align=left;verticalAlign=middle;spacingLeft=4;spacingRight=4;overflow=hidden;points=[[0,0.5],[1,0.5]];portConstraint=eastwest;rotatable=0;sketch=1;curveFitting=1;jiggle=2;" parent="17" vertex="1">
                    <mxGeometry y="90" width="183" height="30" as="geometry"/>
                </mxCell>
                <mxCell id="21" value="tratamentoMedico&lt;Boolean()&gt;" style="text;strokeColor=none;fillColor=none;align=left;verticalAlign=middle;spacingLeft=4;spacingRight=4;overflow=hidden;points=[[0,0.5],[1,0.5]];portConstraint=eastwest;rotatable=0;sketch=1;curveFitting=1;jiggle=2;" parent="17" vertex="1">
                    <mxGeometry y="120" width="183" height="30" as="geometry"/>
                </mxCell>
                <mxCell id="22" value="usoMedicamento&lt;Boolean()&gt;" style="text;strokeColor=none;fillColor=none;align=left;verticalAlign=middle;spacingLeft=4;spacingRight=4;overflow=hidden;points=[[0,0.5],[1,0.5]];portConstraint=eastwest;rotatable=0;sketch=1;curveFitting=1;jiggle=2;" parent="17" vertex="1">
                    <mxGeometry y="150" width="183" height="30" as="geometry"/>
                </mxCell>
                <mxCell id="24" value="qualMedicamento&lt;varChar(150)&gt;" style="text;strokeColor=none;fillColor=none;align=left;verticalAlign=middle;spacingLeft=4;spacingRight=4;overflow=hidden;points=[[0,0.5],[1,0.5]];portConstraint=eastwest;rotatable=0;sketch=1;curveFitting=1;jiggle=2;" parent="17" vertex="1">
                    <mxGeometry y="180" width="183" height="30" as="geometry"/>
                </mxCell>
                <mxCell id="25" value="alergia&lt;Boolean()&gt;" style="text;strokeColor=none;fillColor=none;align=left;verticalAlign=middle;spacingLeft=4;spacingRight=4;overflow=hidden;points=[[0,0.5],[1,0.5]];portConstraint=eastwest;rotatable=0;sketch=1;curveFitting=1;jiggle=2;" parent="17" vertex="1">
                    <mxGeometry y="210" width="183" height="30" as="geometry"/>
                </mxCell>
                <mxCell id="26" value="PK&lt;uuid&gt; qualAlergia&lt;varChar()&gt;" style="text;strokeColor=none;fillColor=none;align=left;verticalAlign=middle;spacingLeft=4;spacingRight=4;overflow=hidden;points=[[0,0.5],[1,0.5]];portConstraint=eastwest;rotatable=0;sketch=1;curveFitting=1;jiggle=2;" parent="17" vertex="1">
                    <mxGeometry y="240" width="183" height="30" as="geometry"/>
                </mxCell>
                <mxCell id="31" value="qualAlergiaItem&lt;varChar(150)&gt;" style="text;strokeColor=none;fillColor=none;align=left;verticalAlign=middle;spacingLeft=4;spacingRight=4;overflow=hidden;points=[[0,0.5],[1,0.5]];portConstraint=eastwest;rotatable=0;sketch=1;curveFitting=1;jiggle=2;" parent="17" vertex="1">
                    <mxGeometry y="270" width="183" height="30" as="geometry"/>
                </mxCell>
                <mxCell id="32" value="reacaoAnestesiaOdonto&lt;Boolean()&gt;" style="text;strokeColor=none;fillColor=none;align=left;verticalAlign=middle;spacingLeft=4;spacingRight=4;overflow=hidden;points=[[0,0.5],[1,0.5]];portConstraint=eastwest;rotatable=0;sketch=1;curveFitting=1;jiggle=2;" parent="17" vertex="1">
                    <mxGeometry y="300" width="183" height="30" as="geometry"/>
                </mxCell>
                <mxCell id="33" value="foiInternado&lt;Boolean()&gt;" style="text;strokeColor=none;fillColor=none;align=left;verticalAlign=middle;spacingLeft=4;spacingRight=4;overflow=hidden;points=[[0,0.5],[1,0.5]];portConstraint=eastwest;rotatable=0;sketch=1;curveFitting=1;jiggle=2;" parent="17" vertex="1">
                    <mxGeometry y="330" width="183" height="30" as="geometry"/>
                </mxCell>
                <mxCell id="34" value="pqInternado&lt;varChar(150)&gt;" style="text;strokeColor=none;fillColor=none;align=left;verticalAlign=middle;spacingLeft=4;spacingRight=4;overflow=hidden;points=[[0,0.5],[1,0.5]];portConstraint=eastwest;rotatable=0;sketch=1;curveFitting=1;jiggle=2;" parent="17" vertex="1">
                    <mxGeometry y="360" width="183" height="30" as="geometry"/>
                </mxCell>
                <mxCell id="35" value="cirurgiaUltDecada&lt;Boolean()&gt;" style="text;strokeColor=none;fillColor=none;align=left;verticalAlign=middle;spacingLeft=4;spacingRight=4;overflow=hidden;points=[[0,0.5],[1,0.5]];portConstraint=eastwest;rotatable=0;sketch=1;curveFitting=1;jiggle=2;" parent="17" vertex="1">
                    <mxGeometry y="390" width="183" height="30" as="geometry"/>
                </mxCell>
                <mxCell id="36" value="qualCirurgiaUltDecada&lt;varChar(150)&gt;" style="text;strokeColor=none;fillColor=none;align=left;verticalAlign=middle;spacingLeft=4;spacingRight=4;overflow=hidden;points=[[0,0.5],[1,0.5]];portConstraint=eastwest;rotatable=0;sketch=1;curveFitting=1;jiggle=2;" parent="17" vertex="1">
                    <mxGeometry y="420" width="183" height="30" as="geometry"/>
                </mxCell>
                <mxCell id="37" value="perdaGanhoPeso&lt;Boolean()&gt;" style="text;strokeColor=none;fillColor=none;align=left;verticalAlign=middle;spacingLeft=4;spacingRight=4;overflow=hidden;points=[[0,0.5],[1,0.5]];portConstraint=eastwest;rotatable=0;sketch=1;curveFitting=1;jiggle=2;" parent="17" vertex="1">
                    <mxGeometry y="450" width="183" height="30" as="geometry"/>
                </mxCell>
                <mxCell id="38" value="gravida&lt;Boolean()&gt;" style="text;strokeColor=none;fillColor=none;align=left;verticalAlign=middle;spacingLeft=4;spacingRight=4;overflow=hidden;points=[[0,0.5],[1,0.5]];portConstraint=eastwest;rotatable=0;sketch=1;curveFitting=1;jiggle=2;" parent="17" vertex="1">
                    <mxGeometry y="480" width="183" height="30" as="geometry"/>
                </mxCell>
                <mxCell id="39" value="amamentando&lt;Boolean()&gt;" style="text;strokeColor=none;fillColor=none;align=left;verticalAlign=middle;spacingLeft=4;spacingRight=4;overflow=hidden;points=[[0,0.5],[1,0.5]];portConstraint=eastwest;rotatable=0;sketch=1;curveFitting=1;jiggle=2;" parent="17" vertex="1">
                    <mxGeometry y="510" width="183" height="30" as="geometry"/>
                </mxCell>
                <mxCell id="40" value="anticoncepcional&lt;Boolean()&gt;" style="text;strokeColor=none;fillColor=none;align=left;verticalAlign=middle;spacingLeft=4;spacingRight=4;overflow=hidden;points=[[0,0.5],[1,0.5]];portConstraint=eastwest;rotatable=0;sketch=1;curveFitting=1;jiggle=2;" parent="17" vertex="1">
                    <mxGeometry y="540" width="183" height="30" as="geometry"/>
                </mxCell>
                <mxCell id="41" value="menopausa&lt;Boolean()&gt;" style="text;strokeColor=none;fillColor=none;align=left;verticalAlign=middle;spacingLeft=4;spacingRight=4;overflow=hidden;points=[[0,0.5],[1,0.5]];portConstraint=eastwest;rotatable=0;sketch=1;curveFitting=1;jiggle=2;" parent="17" vertex="1">
                    <mxGeometry y="570" width="183" height="30" as="geometry"/>
                </mxCell>
                <mxCell id="42" style="edgeStyle=none;rounded=0;html=1;entryX=1.022;entryY=0.032;entryDx=0;entryDy=0;entryPerimeter=0;exitX=0;exitY=0.5;exitDx=0;exitDy=0;endArrow=none;endFill=0;sketch=1;curveFitting=1;jiggle=2;" parent="1" source="168" target="17" edge="1">
                    <mxGeometry relative="1" as="geometry">
                        <Array as="points">
                            <mxPoint x="-156" y="-1168"/>
                            <mxPoint x="-156" y="-1259"/>
                        </Array>
                        <mxPoint x="-89" y="-1138" as="sourcePoint"/>
                    </mxGeometry>
                </mxCell>
                <mxCell id="44" value="paciente_habitosVicios" style="swimlane;fontStyle=0;childLayout=stackLayout;horizontal=1;startSize=30;horizontalStack=0;resizeParent=1;resizeParentMax=0;resizeLast=0;collapsible=1;marginBottom=0;sketch=1;curveFitting=1;jiggle=2;" parent="1" vertex="1">
                    <mxGeometry x="-356" y="-1250" width="183" height="870" as="geometry"/>
                </mxCell>
                <mxCell id="45" value="PK&lt;uuid&gt; id&lt;varChar&gt;" style="text;strokeColor=none;fillColor=none;align=left;verticalAlign=middle;spacingLeft=4;spacingRight=4;overflow=hidden;points=[[0,0.5],[1,0.5]];portConstraint=eastwest;rotatable=0;sketch=1;curveFitting=1;jiggle=2;" parent="44" vertex="1">
                    <mxGeometry y="30" width="183" height="30" as="geometry"/>
                </mxCell>
                <mxCell id="46" value="fuma&lt;Boolean()&gt;" style="text;strokeColor=none;fillColor=none;align=left;verticalAlign=middle;spacingLeft=4;spacingRight=4;overflow=hidden;points=[[0,0.5],[1,0.5]];portConstraint=eastwest;rotatable=0;sketch=1;curveFitting=1;jiggle=2;" parent="44" vertex="1">
                    <mxGeometry y="60" width="183" height="30" as="geometry"/>
                </mxCell>
                <mxCell id="47" value="quantCigarrosDia&lt;interger&gt;" style="text;strokeColor=none;fillColor=none;align=left;verticalAlign=middle;spacingLeft=4;spacingRight=4;overflow=hidden;points=[[0,0.5],[1,0.5]];portConstraint=eastwest;rotatable=0;sketch=1;curveFitting=1;jiggle=2;" parent="44" vertex="1">
                    <mxGeometry y="90" width="183" height="30" as="geometry"/>
                </mxCell>
                <mxCell id="48" value="tempoFuma&lt;varChar(10)&gt;" style="text;strokeColor=none;fillColor=none;align=left;verticalAlign=middle;spacingLeft=4;spacingRight=4;overflow=hidden;points=[[0,0.5],[1,0.5]];portConstraint=eastwest;rotatable=0;sketch=1;curveFitting=1;jiggle=2;" parent="44" vertex="1">
                    <mxGeometry y="120" width="183" height="30" as="geometry"/>
                </mxCell>
                <mxCell id="49" value="fumava&lt;Boolean()&gt;" style="text;strokeColor=none;fillColor=none;align=left;verticalAlign=middle;spacingLeft=4;spacingRight=4;overflow=hidden;points=[[0,0.5],[1,0.5]];portConstraint=eastwest;rotatable=0;sketch=1;curveFitting=1;jiggle=2;" parent="44" vertex="1">
                    <mxGeometry y="150" width="183" height="30" as="geometry"/>
                </mxCell>
                <mxCell id="50" value="quantoTempoFumava&lt;interger&gt;" style="text;strokeColor=none;fillColor=none;align=left;verticalAlign=middle;spacingLeft=4;spacingRight=4;overflow=hidden;points=[[0,0.5],[1,0.5]];portConstraint=eastwest;rotatable=0;sketch=1;curveFitting=1;jiggle=2;" parent="44" vertex="1">
                    <mxGeometry y="180" width="183" height="30" as="geometry"/>
                </mxCell>
                <mxCell id="51" value="quandoParouFumava&lt;varChar(10)&gt;" style="text;strokeColor=none;fillColor=none;align=left;verticalAlign=middle;spacingLeft=4;spacingRight=4;overflow=hidden;points=[[0,0.5],[1,0.5]];portConstraint=eastwest;rotatable=0;sketch=1;curveFitting=1;jiggle=2;" parent="44" vertex="1">
                    <mxGeometry y="210" width="183" height="30" as="geometry"/>
                </mxCell>
                <mxCell id="53" value="quantCigarrosDia&lt;interger&gt;" style="text;strokeColor=none;fillColor=none;align=left;verticalAlign=middle;spacingLeft=4;spacingRight=4;overflow=hidden;points=[[0,0.5],[1,0.5]];portConstraint=eastwest;rotatable=0;sketch=1;curveFitting=1;jiggle=2;" parent="44" vertex="1">
                    <mxGeometry y="240" width="183" height="30" as="geometry"/>
                </mxCell>
                <mxCell id="72" value="bebeAlcool&lt;Boolean()&gt;" style="text;strokeColor=none;fillColor=none;align=left;verticalAlign=middle;spacingLeft=4;spacingRight=4;overflow=hidden;points=[[0,0.5],[1,0.5]];portConstraint=eastwest;rotatable=0;sketch=1;curveFitting=1;jiggle=2;" parent="44" vertex="1">
                    <mxGeometry y="270" width="183" height="30" as="geometry"/>
                </mxCell>
                <mxCell id="52" value="PK&lt;uuid&gt; qualAlcool&lt;varChar()&gt;" style="text;strokeColor=none;fillColor=none;align=left;verticalAlign=middle;spacingLeft=4;spacingRight=4;overflow=hidden;points=[[0,0.5],[1,0.5]];portConstraint=eastwest;rotatable=0;sketch=1;curveFitting=1;jiggle=2;" parent="44" vertex="1">
                    <mxGeometry y="300" width="183" height="30" as="geometry"/>
                </mxCell>
                <mxCell id="73" value="quantoTempoAlcool&lt;varChar(100)&gt;" style="text;strokeColor=none;fillColor=none;align=left;verticalAlign=middle;spacingLeft=4;spacingRight=4;overflow=hidden;points=[[0,0.5],[1,0.5]];portConstraint=eastwest;rotatable=0;sketch=1;curveFitting=1;jiggle=2;" parent="44" vertex="1">
                    <mxGeometry y="330" width="183" height="30" as="geometry"/>
                </mxCell>
                <mxCell id="74" value="quantFreqAlcool&lt;varChar(100)&gt;" style="text;strokeColor=none;fillColor=none;align=left;verticalAlign=middle;spacingLeft=4;spacingRight=4;overflow=hidden;points=[[0,0.5],[1,0.5]];portConstraint=eastwest;rotatable=0;sketch=1;curveFitting=1;jiggle=2;" parent="44" vertex="1">
                    <mxGeometry y="360" width="183" height="30" as="geometry"/>
                </mxCell>
                <mxCell id="75" value="dietaAlimentar&lt;Boolean()&gt;" style="text;strokeColor=none;fillColor=none;align=left;verticalAlign=middle;spacingLeft=4;spacingRight=4;overflow=hidden;points=[[0,0.5],[1,0.5]];portConstraint=eastwest;rotatable=0;sketch=1;curveFitting=1;jiggle=2;" parent="44" vertex="1">
                    <mxGeometry y="390" width="183" height="30" as="geometry"/>
                </mxCell>
                <mxCell id="76" value="tipoTempoDietaAlimentar&lt;varChar(200)&gt;" style="text;strokeColor=none;fillColor=none;align=left;verticalAlign=middle;spacingLeft=4;spacingRight=4;overflow=hidden;points=[[0,0.5],[1,0.5]];portConstraint=eastwest;rotatable=0;sketch=1;curveFitting=1;jiggle=2;" parent="44" vertex="1">
                    <mxGeometry y="420" width="183" height="30" as="geometry"/>
                </mxCell>
                <mxCell id="77" value="chupeta&lt;Boolean()&gt;" style="text;strokeColor=none;fillColor=none;align=left;verticalAlign=middle;spacingLeft=4;spacingRight=4;overflow=hidden;points=[[0,0.5],[1,0.5]];portConstraint=eastwest;rotatable=0;sketch=1;curveFitting=1;jiggle=2;" parent="44" vertex="1">
                    <mxGeometry y="450" width="183" height="30" as="geometry"/>
                </mxCell>
                <mxCell id="78" value="succaoDigital&lt;Boolean()&gt;" style="text;strokeColor=none;fillColor=none;align=left;verticalAlign=middle;spacingLeft=4;spacingRight=4;overflow=hidden;points=[[0,0.5],[1,0.5]];portConstraint=eastwest;rotatable=0;sketch=1;curveFitting=1;jiggle=2;" parent="44" vertex="1">
                    <mxGeometry y="480" width="183" height="30" as="geometry"/>
                </mxCell>
                <mxCell id="79" value="mordeObj&lt;Boolean()&gt;" style="text;strokeColor=none;fillColor=none;align=left;verticalAlign=middle;spacingLeft=4;spacingRight=4;overflow=hidden;points=[[0,0.5],[1,0.5]];portConstraint=eastwest;rotatable=0;sketch=1;curveFitting=1;jiggle=2;" parent="44" vertex="1">
                    <mxGeometry y="510" width="183" height="30" as="geometry"/>
                </mxCell>
                <mxCell id="80" value="mordeLabios&lt;Boolean()&gt;" style="text;strokeColor=none;fillColor=none;align=left;verticalAlign=middle;spacingLeft=4;spacingRight=4;overflow=hidden;points=[[0,0.5],[1,0.5]];portConstraint=eastwest;rotatable=0;sketch=1;curveFitting=1;jiggle=2;" parent="44" vertex="1">
                    <mxGeometry y="540" width="183" height="30" as="geometry"/>
                </mxCell>
                <mxCell id="81" value="sugaLabios&lt;Boolean()&gt;" style="text;strokeColor=none;fillColor=none;align=left;verticalAlign=middle;spacingLeft=4;spacingRight=4;overflow=hidden;points=[[0,0.5],[1,0.5]];portConstraint=eastwest;rotatable=0;sketch=1;curveFitting=1;jiggle=2;" parent="44" vertex="1">
                    <mxGeometry y="570" width="183" height="30" as="geometry"/>
                </mxCell>
                <mxCell id="82" value="sugaLingua&lt;Boolean()&gt;" style="text;strokeColor=none;fillColor=none;align=left;verticalAlign=middle;spacingLeft=4;spacingRight=4;overflow=hidden;points=[[0,0.5],[1,0.5]];portConstraint=eastwest;rotatable=0;sketch=1;curveFitting=1;jiggle=2;" parent="44" vertex="1">
                    <mxGeometry y="600" width="183" height="30" as="geometry"/>
                </mxCell>
                <mxCell id="83" value="roeUnha&lt;Boolean()&gt;" style="text;strokeColor=none;fillColor=none;align=left;verticalAlign=middle;spacingLeft=4;spacingRight=4;overflow=hidden;points=[[0,0.5],[1,0.5]];portConstraint=eastwest;rotatable=0;sketch=1;curveFitting=1;jiggle=2;" parent="44" vertex="1">
                    <mxGeometry y="630" width="183" height="30" as="geometry"/>
                </mxCell>
                <mxCell id="84" value="rangeDentes&lt;Boolean()&gt;" style="text;strokeColor=none;fillColor=none;align=left;verticalAlign=middle;spacingLeft=4;spacingRight=4;overflow=hidden;points=[[0,0.5],[1,0.5]];portConstraint=eastwest;rotatable=0;sketch=1;curveFitting=1;jiggle=2;" parent="44" vertex="1">
                    <mxGeometry y="660" width="183" height="30" as="geometry"/>
                </mxCell>
                <mxCell id="85" value="apertaDentes&lt;Boolean()&gt;" style="text;strokeColor=none;fillColor=none;align=left;verticalAlign=middle;spacingLeft=4;spacingRight=4;overflow=hidden;points=[[0,0.5],[1,0.5]];portConstraint=eastwest;rotatable=0;sketch=1;curveFitting=1;jiggle=2;" parent="44" vertex="1">
                    <mxGeometry y="690" width="183" height="30" as="geometry"/>
                </mxCell>
                <mxCell id="86" value="mordeDedo&lt;Boolean()&gt;" style="text;strokeColor=none;fillColor=none;align=left;verticalAlign=middle;spacingLeft=4;spacingRight=4;overflow=hidden;points=[[0,0.5],[1,0.5]];portConstraint=eastwest;rotatable=0;sketch=1;curveFitting=1;jiggle=2;" parent="44" vertex="1">
                    <mxGeometry y="720" width="183" height="30" as="geometry"/>
                </mxCell>
                <mxCell id="87" value="mordeUmLado&lt;Boolean()&gt;" style="text;strokeColor=none;fillColor=none;align=left;verticalAlign=middle;spacingLeft=4;spacingRight=4;overflow=hidden;points=[[0,0.5],[1,0.5]];portConstraint=eastwest;rotatable=0;sketch=1;curveFitting=1;jiggle=2;" parent="44" vertex="1">
                    <mxGeometry y="750" width="183" height="30" as="geometry"/>
                </mxCell>
                <mxCell id="88" value="mastigaUmLado&lt;Boolean()&gt;" style="text;strokeColor=none;fillColor=none;align=left;verticalAlign=middle;spacingLeft=4;spacingRight=4;overflow=hidden;points=[[0,0.5],[1,0.5]];portConstraint=eastwest;rotatable=0;sketch=1;curveFitting=1;jiggle=2;" parent="44" vertex="1">
                    <mxGeometry y="780" width="183" height="30" as="geometry"/>
                </mxCell>
                <mxCell id="89" value="chiclete&lt;Boolean()&gt;" style="text;strokeColor=none;fillColor=none;align=left;verticalAlign=middle;spacingLeft=4;spacingRight=4;overflow=hidden;points=[[0,0.5],[1,0.5]];portConstraint=eastwest;rotatable=0;sketch=1;curveFitting=1;jiggle=2;" parent="44" vertex="1">
                    <mxGeometry y="810" width="183" height="30" as="geometry"/>
                </mxCell>
                <mxCell id="93" value="obs&lt;varChar(200)&gt;" style="text;strokeColor=none;fillColor=none;align=left;verticalAlign=middle;spacingLeft=4;spacingRight=4;overflow=hidden;points=[[0,0.5],[1,0.5]];portConstraint=eastwest;rotatable=0;sketch=1;curveFitting=1;jiggle=2;" parent="44" vertex="1">
                    <mxGeometry y="840" width="183" height="30" as="geometry"/>
                </mxCell>
                <mxCell id="54" value="tipo_Alergia" style="swimlane;fontStyle=0;childLayout=stackLayout;horizontal=1;startSize=30;horizontalStack=0;resizeParent=1;resizeParentMax=0;resizeLast=0;collapsible=1;marginBottom=0;sketch=1;curveFitting=1;jiggle=2;" parent="1" vertex="1">
                    <mxGeometry x="-760" y="-1038" width="183" height="240" as="geometry"/>
                </mxCell>
                <mxCell id="55" value="PK&lt;uuid&gt; id&lt;varChar&gt;" style="text;strokeColor=none;fillColor=none;align=left;verticalAlign=middle;spacingLeft=4;spacingRight=4;overflow=hidden;points=[[0,0.5],[1,0.5]];portConstraint=eastwest;rotatable=0;sketch=1;curveFitting=1;jiggle=2;" parent="54" vertex="1">
                    <mxGeometry y="30" width="183" height="30" as="geometry"/>
                </mxCell>
                <mxCell id="56" value="Medicamentos" style="text;strokeColor=none;fillColor=none;align=left;verticalAlign=middle;spacingLeft=4;spacingRight=4;overflow=hidden;points=[[0,0.5],[1,0.5]];portConstraint=eastwest;rotatable=0;sketch=1;curveFitting=1;jiggle=2;" parent="54" vertex="1">
                    <mxGeometry y="60" width="183" height="30" as="geometry"/>
                </mxCell>
                <mxCell id="57" value="Produto de limpeza" style="text;strokeColor=none;fillColor=none;align=left;verticalAlign=middle;spacingLeft=4;spacingRight=4;overflow=hidden;points=[[0,0.5],[1,0.5]];portConstraint=eastwest;rotatable=0;sketch=1;curveFitting=1;jiggle=2;" parent="54" vertex="1">
                    <mxGeometry y="90" width="183" height="30" as="geometry"/>
                </mxCell>
                <mxCell id="59" value="Alimentos" style="text;strokeColor=none;fillColor=none;align=left;verticalAlign=middle;spacingLeft=4;spacingRight=4;overflow=hidden;points=[[0,0.5],[1,0.5]];portConstraint=eastwest;rotatable=0;sketch=1;curveFitting=1;jiggle=2;" parent="54" vertex="1">
                    <mxGeometry y="120" width="183" height="30" as="geometry"/>
                </mxCell>
                <mxCell id="60" value="Cosmeticos" style="text;strokeColor=none;fillColor=none;align=left;verticalAlign=middle;spacingLeft=4;spacingRight=4;overflow=hidden;points=[[0,0.5],[1,0.5]];portConstraint=eastwest;rotatable=0;sketch=1;curveFitting=1;jiggle=2;" parent="54" vertex="1">
                    <mxGeometry y="150" width="183" height="30" as="geometry"/>
                </mxCell>
                <mxCell id="61" value="Iodo" style="text;strokeColor=none;fillColor=none;align=left;verticalAlign=middle;spacingLeft=4;spacingRight=4;overflow=hidden;points=[[0,0.5],[1,0.5]];portConstraint=eastwest;rotatable=0;sketch=1;curveFitting=1;jiggle=2;" parent="54" vertex="1">
                    <mxGeometry y="180" width="183" height="30" as="geometry"/>
                </mxCell>
                <mxCell id="62" value="Outros" style="text;strokeColor=none;fillColor=none;align=left;verticalAlign=middle;spacingLeft=4;spacingRight=4;overflow=hidden;points=[[0,0.5],[1,0.5]];portConstraint=eastwest;rotatable=0;sketch=1;curveFitting=1;jiggle=2;" parent="54" vertex="1">
                    <mxGeometry y="210" width="183" height="30" as="geometry"/>
                </mxCell>
                <mxCell id="58" style="edgeStyle=none;rounded=0;html=1;entryX=1.005;entryY=0.108;entryDx=0;entryDy=0;entryPerimeter=0;endArrow=none;endFill=0;sketch=1;curveFitting=1;jiggle=2;" parent="1" source="26" target="54" edge="1">
                    <mxGeometry relative="1" as="geometry"/>
                </mxCell>
                <mxCell id="63" value="tipo_Alcool" style="swimlane;fontStyle=0;childLayout=stackLayout;horizontal=1;startSize=30;horizontalStack=0;resizeParent=1;resizeParentMax=0;resizeLast=0;collapsible=1;marginBottom=0;sketch=1;curveFitting=1;jiggle=2;" parent="1" vertex="1">
                    <mxGeometry x="-130" y="-823" width="183" height="150" as="geometry"/>
                </mxCell>
                <mxCell id="64" value="PK&lt;uuid&gt; id&lt;varChar&gt;" style="text;strokeColor=none;fillColor=none;align=left;verticalAlign=middle;spacingLeft=4;spacingRight=4;overflow=hidden;points=[[0,0.5],[1,0.5]];portConstraint=eastwest;rotatable=0;sketch=1;curveFitting=1;jiggle=2;" parent="63" vertex="1">
                    <mxGeometry y="30" width="183" height="30" as="geometry"/>
                </mxCell>
                <mxCell id="65" value="destilado" style="text;strokeColor=none;fillColor=none;align=left;verticalAlign=middle;spacingLeft=4;spacingRight=4;overflow=hidden;points=[[0,0.5],[1,0.5]];portConstraint=eastwest;rotatable=0;sketch=1;curveFitting=1;jiggle=2;" parent="63" vertex="1">
                    <mxGeometry y="60" width="183" height="30" as="geometry"/>
                </mxCell>
                <mxCell id="66" value="fermentado" style="text;strokeColor=none;fillColor=none;align=left;verticalAlign=middle;spacingLeft=4;spacingRight=4;overflow=hidden;points=[[0,0.5],[1,0.5]];portConstraint=eastwest;rotatable=0;sketch=1;curveFitting=1;jiggle=2;" parent="63" vertex="1">
                    <mxGeometry y="90" width="183" height="30" as="geometry"/>
                </mxCell>
                <mxCell id="67" value="ambos" style="text;strokeColor=none;fillColor=none;align=left;verticalAlign=middle;spacingLeft=4;spacingRight=4;overflow=hidden;points=[[0,0.5],[1,0.5]];portConstraint=eastwest;rotatable=0;sketch=1;curveFitting=1;jiggle=2;" parent="63" vertex="1">
                    <mxGeometry y="120" width="183" height="30" as="geometry"/>
                </mxCell>
                <mxCell id="71" style="edgeStyle=none;rounded=0;html=1;entryX=0.005;entryY=0.058;entryDx=0;entryDy=0;entryPerimeter=0;endArrow=none;endFill=0;exitX=1;exitY=0.5;exitDx=0;exitDy=0;sketch=1;curveFitting=1;jiggle=2;" parent="1" source="52" target="63" edge="1">
                    <mxGeometry relative="1" as="geometry">
                        <Array as="points">
                            <mxPoint x="-153" y="-935"/>
                            <mxPoint x="-158" y="-814"/>
                        </Array>
                    </mxGeometry>
                </mxCell>
                <mxCell id="91" style="edgeStyle=none;rounded=0;html=1;entryX=0.995;entryY=0.023;entryDx=0;entryDy=0;entryPerimeter=0;endArrow=none;endFill=0;exitX=0;exitY=0.5;exitDx=0;exitDy=0;sketch=1;curveFitting=1;jiggle=2;" parent="1" source="170" target="44" edge="1">
                    <mxGeometry relative="1" as="geometry">
                        <Array as="points">
                            <mxPoint x="-166" y="-1133"/>
                            <mxPoint x="-166" y="-1215"/>
                        </Array>
                        <mxPoint x="-89" y="-1108" as="sourcePoint"/>
                    </mxGeometry>
                </mxCell>
                <mxCell id="239" style="edgeStyle=none;rounded=0;html=1;entryX=1;entryY=0.5;entryDx=0;entryDy=0;endArrow=none;endFill=0;sketch=1;curveFitting=1;jiggle=2;" parent="1" source="113" target="169" edge="1">
                    <mxGeometry relative="1" as="geometry">
                        <Array as="points">
                            <mxPoint x="323" y="-916"/>
                        </Array>
                    </mxGeometry>
                </mxCell>
                <mxCell id="132" value="periodos" style="swimlane;fontStyle=0;childLayout=stackLayout;horizontal=1;startSize=30;horizontalStack=0;resizeParent=1;resizeParentMax=0;resizeLast=0;collapsible=1;marginBottom=0;sketch=1;curveFitting=1;jiggle=2;" parent="1" vertex="1">
                    <mxGeometry x="549" y="-823" width="183" height="150" as="geometry"/>
                </mxCell>
                <mxCell id="133" value="PK&lt;uuid&gt; id&lt;varChar&gt;" style="text;strokeColor=none;fillColor=none;align=left;verticalAlign=middle;spacingLeft=4;spacingRight=4;overflow=hidden;points=[[0,0.5],[1,0.5]];portConstraint=eastwest;rotatable=0;sketch=1;curveFitting=1;jiggle=2;" parent="132" vertex="1">
                    <mxGeometry y="30" width="183" height="30" as="geometry"/>
                </mxCell>
                <mxCell id="134" value="Manha" style="text;strokeColor=none;fillColor=none;align=left;verticalAlign=middle;spacingLeft=4;spacingRight=4;overflow=hidden;points=[[0,0.5],[1,0.5]];portConstraint=eastwest;rotatable=0;sketch=1;curveFitting=1;jiggle=2;" parent="132" vertex="1">
                    <mxGeometry y="60" width="183" height="30" as="geometry"/>
                </mxCell>
                <mxCell id="135" value="Tarde" style="text;strokeColor=none;fillColor=none;align=left;verticalAlign=middle;spacingLeft=4;spacingRight=4;overflow=hidden;points=[[0,0.5],[1,0.5]];portConstraint=eastwest;rotatable=0;sketch=1;curveFitting=1;jiggle=2;" parent="132" vertex="1">
                    <mxGeometry y="90" width="183" height="30" as="geometry"/>
                </mxCell>
                <mxCell id="136" value="Noite" style="text;strokeColor=none;fillColor=none;align=left;verticalAlign=middle;spacingLeft=4;spacingRight=4;overflow=hidden;points=[[0,0.5],[1,0.5]];portConstraint=eastwest;rotatable=0;sketch=1;curveFitting=1;jiggle=2;" parent="132" vertex="1">
                    <mxGeometry y="120" width="183" height="30" as="geometry"/>
                </mxCell>
                <mxCell id="139" value="paciente_saudeLocorreginal" style="swimlane;fontStyle=0;childLayout=stackLayout;horizontal=1;startSize=30;horizontalStack=0;resizeParent=1;resizeParentMax=0;resizeLast=0;collapsible=1;marginBottom=0;sketch=1;curveFitting=1;jiggle=2;" parent="1" vertex="1">
                    <mxGeometry x="87" y="-819" width="183" height="479" as="geometry"/>
                </mxCell>
                <mxCell id="140" value="PK&lt;uuid&gt; id&lt;varChar&gt;" style="text;strokeColor=none;fillColor=none;align=left;verticalAlign=middle;spacingLeft=4;spacingRight=4;overflow=hidden;points=[[0,0.5],[1,0.5]];portConstraint=eastwest;rotatable=0;sketch=1;curveFitting=1;jiggle=2;" parent="139" vertex="1">
                    <mxGeometry y="30" width="183" height="29" as="geometry"/>
                </mxCell>
                <mxCell id="146" value="usouAparelho&lt;Boolean()&gt;" style="text;strokeColor=none;fillColor=none;align=left;verticalAlign=middle;spacingLeft=4;spacingRight=4;overflow=hidden;points=[[0,0.5],[1,0.5]];portConstraint=eastwest;rotatable=0;sketch=1;curveFitting=1;jiggle=2;" parent="139" vertex="1">
                    <mxGeometry y="59" width="183" height="30" as="geometry"/>
                </mxCell>
                <mxCell id="148" value="fezCirurgia&lt;Boolean()&gt;" style="text;strokeColor=none;fillColor=none;align=left;verticalAlign=middle;spacingLeft=4;spacingRight=4;overflow=hidden;points=[[0,0.5],[1,0.5]];portConstraint=eastwest;rotatable=0;sketch=1;curveFitting=1;jiggle=2;" parent="139" vertex="1">
                    <mxGeometry y="89" width="183" height="30" as="geometry"/>
                </mxCell>
                <mxCell id="149" value="extraiuDentes&lt;Boolean()&gt;" style="text;strokeColor=none;fillColor=none;align=left;verticalAlign=middle;spacingLeft=4;spacingRight=4;overflow=hidden;points=[[0,0.5],[1,0.5]];portConstraint=eastwest;rotatable=0;sketch=1;curveFitting=1;jiggle=2;" parent="139" vertex="1">
                    <mxGeometry y="119" width="183" height="30" as="geometry"/>
                </mxCell>
                <mxCell id="150" value="fezImplantes&lt;Boolean()&gt;" style="text;strokeColor=none;fillColor=none;align=left;verticalAlign=middle;spacingLeft=4;spacingRight=4;overflow=hidden;points=[[0,0.5],[1,0.5]];portConstraint=eastwest;rotatable=0;sketch=1;curveFitting=1;jiggle=2;" parent="139" vertex="1">
                    <mxGeometry y="149" width="183" height="30" as="geometry"/>
                </mxCell>
                <mxCell id="157" value="sensibilidade&lt;Boolean()&gt;" style="text;strokeColor=none;fillColor=none;align=left;verticalAlign=middle;spacingLeft=4;spacingRight=4;overflow=hidden;points=[[0,0.5],[1,0.5]];portConstraint=eastwest;rotatable=0;sketch=1;curveFitting=1;jiggle=2;" parent="139" vertex="1">
                    <mxGeometry y="179" width="183" height="30" as="geometry"/>
                </mxCell>
                <mxCell id="160" value="xerostomia&lt;Boolean()&gt;" style="text;strokeColor=none;fillColor=none;align=left;verticalAlign=middle;spacingLeft=4;spacingRight=4;overflow=hidden;points=[[0,0.5],[1,0.5]];portConstraint=eastwest;rotatable=0;sketch=1;curveFitting=1;jiggle=2;" parent="139" vertex="1">
                    <mxGeometry y="209" width="183" height="30" as="geometry"/>
                </mxCell>
                <mxCell id="159" value="halitose&lt;Boolean()&gt;" style="text;strokeColor=none;fillColor=none;align=left;verticalAlign=middle;spacingLeft=4;spacingRight=4;overflow=hidden;points=[[0,0.5],[1,0.5]];portConstraint=eastwest;rotatable=0;sketch=1;curveFitting=1;jiggle=2;" parent="139" vertex="1">
                    <mxGeometry y="239" width="183" height="30" as="geometry"/>
                </mxCell>
                <mxCell id="158" value="caxumba&lt;Boolean()&gt;" style="text;strokeColor=none;fillColor=none;align=left;verticalAlign=middle;spacingLeft=4;spacingRight=4;overflow=hidden;points=[[0,0.5],[1,0.5]];portConstraint=eastwest;rotatable=0;sketch=1;curveFitting=1;jiggle=2;" parent="139" vertex="1">
                    <mxGeometry y="269" width="183" height="30" as="geometry"/>
                </mxCell>
                <mxCell id="156" value="conjuntivite&lt;Boolean()&gt;" style="text;strokeColor=none;fillColor=none;align=left;verticalAlign=middle;spacingLeft=4;spacingRight=4;overflow=hidden;points=[[0,0.5],[1,0.5]];portConstraint=eastwest;rotatable=0;sketch=1;curveFitting=1;jiggle=2;" parent="139" vertex="1">
                    <mxGeometry y="299" width="183" height="30" as="geometry"/>
                </mxCell>
                <mxCell id="151" value="amigdalites&lt;Boolean()&gt;" style="text;strokeColor=none;fillColor=none;align=left;verticalAlign=middle;spacingLeft=4;spacingRight=4;overflow=hidden;points=[[0,0.5],[1,0.5]];portConstraint=eastwest;rotatable=0;sketch=1;curveFitting=1;jiggle=2;" parent="139" vertex="1">
                    <mxGeometry y="329" width="183" height="30" as="geometry"/>
                </mxCell>
                <mxCell id="152" value="otites&lt;Boolean()&gt;" style="text;strokeColor=none;fillColor=none;align=left;verticalAlign=middle;spacingLeft=4;spacingRight=4;overflow=hidden;points=[[0,0.5],[1,0.5]];portConstraint=eastwest;rotatable=0;sketch=1;curveFitting=1;jiggle=2;" parent="139" vertex="1">
                    <mxGeometry y="359" width="183" height="30" as="geometry"/>
                </mxCell>
                <mxCell id="153" value="sinusite&lt;Boolean()&gt;" style="text;strokeColor=none;fillColor=none;align=left;verticalAlign=middle;spacingLeft=4;spacingRight=4;overflow=hidden;points=[[0,0.5],[1,0.5]];portConstraint=eastwest;rotatable=0;sketch=1;curveFitting=1;jiggle=2;" parent="139" vertex="1">
                    <mxGeometry y="389" width="183" height="30" as="geometry"/>
                </mxCell>
                <mxCell id="154" value="aftas&lt;Boolean()&gt;" style="text;strokeColor=none;fillColor=none;align=left;verticalAlign=middle;spacingLeft=4;spacingRight=4;overflow=hidden;points=[[0,0.5],[1,0.5]];portConstraint=eastwest;rotatable=0;sketch=1;curveFitting=1;jiggle=2;" parent="139" vertex="1">
                    <mxGeometry y="419" width="183" height="30" as="geometry"/>
                </mxCell>
                <mxCell id="155" value="herpes&lt;Boolean()&gt;" style="text;strokeColor=none;fillColor=none;align=left;verticalAlign=middle;spacingLeft=4;spacingRight=4;overflow=hidden;points=[[0,0.5],[1,0.5]];portConstraint=eastwest;rotatable=0;sketch=1;curveFitting=1;jiggle=2;" parent="139" vertex="1">
                    <mxGeometry y="449" width="183" height="30" as="geometry"/>
                </mxCell>
                <mxCell id="147" style="edgeStyle=none;rounded=0;html=1;entryX=1;entryY=0.5;entryDx=0;entryDy=0;endArrow=none;endFill=0;exitX=-0.02;exitY=0.147;exitDx=0;exitDy=0;exitPerimeter=0;sketch=1;curveFitting=1;jiggle=2;" parent="1" source="140" target="176" edge="1">
                    <mxGeometry relative="1" as="geometry">
                        <mxPoint x="110" y="-1048" as="sourcePoint"/>
                    </mxGeometry>
                </mxCell>
                <mxCell id="161" value="Paciente_HistoricoMedico" style="swimlane;fontStyle=0;childLayout=stackLayout;horizontal=1;startSize=30;horizontalStack=0;resizeParent=1;resizeParentMax=0;resizeLast=0;collapsible=1;marginBottom=0;sketch=1;curveFitting=1;jiggle=2;" parent="1" vertex="1">
                    <mxGeometry x="-117" y="-1061" width="183" height="150" as="geometry"/>
                </mxCell>
                <mxCell id="171" value="FK&lt;uuid&gt; id_paciente&lt;varChar()&gt;" style="text;strokeColor=none;fillColor=none;align=left;verticalAlign=middle;spacingLeft=4;spacingRight=4;overflow=hidden;points=[[0,0.5],[1,0.5]];portConstraint=eastwest;rotatable=0;sketch=1;curveFitting=1;jiggle=2;" parent="161" vertex="1">
                    <mxGeometry y="30" width="183" height="30" as="geometry"/>
                </mxCell>
                <mxCell id="168" value="FK&lt;uuid&gt; historicoMedico&lt;varChar()&gt;" style="text;strokeColor=none;fillColor=none;align=left;verticalAlign=middle;spacingLeft=4;spacingRight=4;overflow=hidden;points=[[0,0.5],[1,0.5]];portConstraint=eastwest;rotatable=0;sketch=1;curveFitting=1;jiggle=2;" parent="161" vertex="1">
                    <mxGeometry y="60" width="183" height="30" as="geometry"/>
                </mxCell>
                <mxCell id="170" value="FK&lt;uuid&gt; habitosVicios&lt;varChar()&gt;" style="text;strokeColor=none;fillColor=none;align=left;verticalAlign=middle;spacingLeft=4;spacingRight=4;overflow=hidden;points=[[0,0.5],[1,0.5]];portConstraint=eastwest;rotatable=0;sketch=1;curveFitting=1;jiggle=2;" parent="161" vertex="1">
                    <mxGeometry y="90" width="183" height="30" as="geometry"/>
                </mxCell>
                <mxCell id="169" value="FK&lt;uuid&gt; historicoOdonto&lt;varChar()&gt;" style="text;strokeColor=none;fillColor=none;align=left;verticalAlign=middle;spacingLeft=4;spacingRight=4;overflow=hidden;points=[[0,0.5],[1,0.5]];portConstraint=eastwest;rotatable=0;sketch=1;curveFitting=1;jiggle=2;" parent="161" vertex="1">
                    <mxGeometry y="120" width="183" height="30" as="geometry"/>
                </mxCell>
                <mxCell id="176" value="FK&lt;uuid&gt; saudeLocorreginal&lt;varChar()&gt;" style="text;strokeColor=none;fillColor=none;align=left;verticalAlign=middle;spacingLeft=4;spacingRight=4;overflow=hidden;points=[[0,0.5],[1,0.5]];portConstraint=eastwest;rotatable=0;movable=0;resizable=0;deletable=0;editable=0;connectable=0;sketch=1;curveFitting=1;jiggle=2;" parent="161" vertex="1">
                    <mxGeometry y="150" width="183" height="30" as="geometry"/>
                </mxCell>
                <mxCell id="241" value="paciente_habitosVicios" style="swimlane;fontStyle=0;childLayout=stackLayout;horizontal=1;startSize=30;horizontalStack=0;resizeParent=1;resizeParentMax=0;resizeLast=0;collapsible=1;marginBottom=0;sketch=1;curveFitting=1;jiggle=2;" parent="1" vertex="1">
                    <mxGeometry x="1505" y="-1349" width="183" height="870" as="geometry"/>
                </mxCell>
                <mxCell id="242" value="PK&lt;uuid&gt; id&lt;varChar&gt;" style="text;strokeColor=none;fillColor=none;align=left;verticalAlign=middle;spacingLeft=4;spacingRight=4;overflow=hidden;points=[[0,0.5],[1,0.5]];portConstraint=eastwest;rotatable=0;sketch=1;curveFitting=1;jiggle=2;" parent="241" vertex="1">
                    <mxGeometry y="30" width="183" height="30" as="geometry"/>
                </mxCell>
                <mxCell id="243" value="fuma&lt;Boolean()&gt;" style="text;strokeColor=none;fillColor=none;align=left;verticalAlign=middle;spacingLeft=4;spacingRight=4;overflow=hidden;points=[[0,0.5],[1,0.5]];portConstraint=eastwest;rotatable=0;sketch=1;curveFitting=1;jiggle=2;" parent="241" vertex="1">
                    <mxGeometry y="60" width="183" height="30" as="geometry"/>
                </mxCell>
                <mxCell id="244" value="quantCigarrosDia&lt;interger&gt;" style="text;strokeColor=none;fillColor=none;align=left;verticalAlign=middle;spacingLeft=4;spacingRight=4;overflow=hidden;points=[[0,0.5],[1,0.5]];portConstraint=eastwest;rotatable=0;sketch=1;curveFitting=1;jiggle=2;" parent="241" vertex="1">
                    <mxGeometry y="90" width="183" height="30" as="geometry"/>
                </mxCell>
                <mxCell id="245" value="tempoFuma&lt;varChar(10)&gt;" style="text;strokeColor=none;fillColor=none;align=left;verticalAlign=middle;spacingLeft=4;spacingRight=4;overflow=hidden;points=[[0,0.5],[1,0.5]];portConstraint=eastwest;rotatable=0;sketch=1;curveFitting=1;jiggle=2;" parent="241" vertex="1">
                    <mxGeometry y="120" width="183" height="30" as="geometry"/>
                </mxCell>
                <mxCell id="246" value="fumava&lt;Boolean()&gt;" style="text;strokeColor=none;fillColor=none;align=left;verticalAlign=middle;spacingLeft=4;spacingRight=4;overflow=hidden;points=[[0,0.5],[1,0.5]];portConstraint=eastwest;rotatable=0;sketch=1;curveFitting=1;jiggle=2;" parent="241" vertex="1">
                    <mxGeometry y="150" width="183" height="30" as="geometry"/>
                </mxCell>
                <mxCell id="247" value="quantoTempoFumava&lt;interger&gt;" style="text;strokeColor=none;fillColor=none;align=left;verticalAlign=middle;spacingLeft=4;spacingRight=4;overflow=hidden;points=[[0,0.5],[1,0.5]];portConstraint=eastwest;rotatable=0;sketch=1;curveFitting=1;jiggle=2;" parent="241" vertex="1">
                    <mxGeometry y="180" width="183" height="30" as="geometry"/>
                </mxCell>
                <mxCell id="248" value="quandoParouFumava&lt;varChar(10)&gt;" style="text;strokeColor=none;fillColor=none;align=left;verticalAlign=middle;spacingLeft=4;spacingRight=4;overflow=hidden;points=[[0,0.5],[1,0.5]];portConstraint=eastwest;rotatable=0;sketch=1;curveFitting=1;jiggle=2;" parent="241" vertex="1">
                    <mxGeometry y="210" width="183" height="30" as="geometry"/>
                </mxCell>
                <mxCell id="249" value="quantCigarrosDia&lt;interger&gt;" style="text;strokeColor=none;fillColor=none;align=left;verticalAlign=middle;spacingLeft=4;spacingRight=4;overflow=hidden;points=[[0,0.5],[1,0.5]];portConstraint=eastwest;rotatable=0;sketch=1;curveFitting=1;jiggle=2;" parent="241" vertex="1">
                    <mxGeometry y="240" width="183" height="30" as="geometry"/>
                </mxCell>
                <mxCell id="250" value="bebeAlcool&lt;Boolean()&gt;" style="text;strokeColor=none;fillColor=none;align=left;verticalAlign=middle;spacingLeft=4;spacingRight=4;overflow=hidden;points=[[0,0.5],[1,0.5]];portConstraint=eastwest;rotatable=0;sketch=1;curveFitting=1;jiggle=2;" parent="241" vertex="1">
                    <mxGeometry y="270" width="183" height="30" as="geometry"/>
                </mxCell>
                <mxCell id="251" value="PK&lt;uuid&gt; qualAlcool&lt;varChar()&gt;" style="text;strokeColor=none;fillColor=none;align=left;verticalAlign=middle;spacingLeft=4;spacingRight=4;overflow=hidden;points=[[0,0.5],[1,0.5]];portConstraint=eastwest;rotatable=0;sketch=1;curveFitting=1;jiggle=2;" parent="241" vertex="1">
                    <mxGeometry y="300" width="183" height="30" as="geometry"/>
                </mxCell>
                <mxCell id="252" value="quantoTempoAlcool&lt;varChar(100)&gt;" style="text;strokeColor=none;fillColor=none;align=left;verticalAlign=middle;spacingLeft=4;spacingRight=4;overflow=hidden;points=[[0,0.5],[1,0.5]];portConstraint=eastwest;rotatable=0;sketch=1;curveFitting=1;jiggle=2;" parent="241" vertex="1">
                    <mxGeometry y="330" width="183" height="30" as="geometry"/>
                </mxCell>
                <mxCell id="253" value="quantFreqAlcool&lt;varChar(100)&gt;" style="text;strokeColor=none;fillColor=none;align=left;verticalAlign=middle;spacingLeft=4;spacingRight=4;overflow=hidden;points=[[0,0.5],[1,0.5]];portConstraint=eastwest;rotatable=0;sketch=1;curveFitting=1;jiggle=2;" parent="241" vertex="1">
                    <mxGeometry y="360" width="183" height="30" as="geometry"/>
                </mxCell>
                <mxCell id="254" value="dietaAlimentar&lt;Boolean()&gt;" style="text;strokeColor=none;fillColor=none;align=left;verticalAlign=middle;spacingLeft=4;spacingRight=4;overflow=hidden;points=[[0,0.5],[1,0.5]];portConstraint=eastwest;rotatable=0;sketch=1;curveFitting=1;jiggle=2;" parent="241" vertex="1">
                    <mxGeometry y="390" width="183" height="30" as="geometry"/>
                </mxCell>
                <mxCell id="255" value="tipoTempoDietaAlimentar&lt;varChar(200)&gt;" style="text;strokeColor=none;fillColor=none;align=left;verticalAlign=middle;spacingLeft=4;spacingRight=4;overflow=hidden;points=[[0,0.5],[1,0.5]];portConstraint=eastwest;rotatable=0;sketch=1;curveFitting=1;jiggle=2;" parent="241" vertex="1">
                    <mxGeometry y="420" width="183" height="30" as="geometry"/>
                </mxCell>
                <mxCell id="256" value="chupeta&lt;Boolean()&gt;" style="text;strokeColor=none;fillColor=none;align=left;verticalAlign=middle;spacingLeft=4;spacingRight=4;overflow=hidden;points=[[0,0.5],[1,0.5]];portConstraint=eastwest;rotatable=0;sketch=1;curveFitting=1;jiggle=2;" parent="241" vertex="1">
                    <mxGeometry y="450" width="183" height="30" as="geometry"/>
                </mxCell>
                <mxCell id="257" value="succaoDigital&lt;Boolean()&gt;" style="text;strokeColor=none;fillColor=none;align=left;verticalAlign=middle;spacingLeft=4;spacingRight=4;overflow=hidden;points=[[0,0.5],[1,0.5]];portConstraint=eastwest;rotatable=0;sketch=1;curveFitting=1;jiggle=2;" parent="241" vertex="1">
                    <mxGeometry y="480" width="183" height="30" as="geometry"/>
                </mxCell>
                <mxCell id="258" value="mordeObj&lt;Boolean()&gt;" style="text;strokeColor=none;fillColor=none;align=left;verticalAlign=middle;spacingLeft=4;spacingRight=4;overflow=hidden;points=[[0,0.5],[1,0.5]];portConstraint=eastwest;rotatable=0;sketch=1;curveFitting=1;jiggle=2;" parent="241" vertex="1">
                    <mxGeometry y="510" width="183" height="30" as="geometry"/>
                </mxCell>
                <mxCell id="259" value="mordeLabios&lt;Boolean()&gt;" style="text;strokeColor=none;fillColor=none;align=left;verticalAlign=middle;spacingLeft=4;spacingRight=4;overflow=hidden;points=[[0,0.5],[1,0.5]];portConstraint=eastwest;rotatable=0;sketch=1;curveFitting=1;jiggle=2;" parent="241" vertex="1">
                    <mxGeometry y="540" width="183" height="30" as="geometry"/>
                </mxCell>
                <mxCell id="260" value="sugaLabios&lt;Boolean()&gt;" style="text;strokeColor=none;fillColor=none;align=left;verticalAlign=middle;spacingLeft=4;spacingRight=4;overflow=hidden;points=[[0,0.5],[1,0.5]];portConstraint=eastwest;rotatable=0;sketch=1;curveFitting=1;jiggle=2;" parent="241" vertex="1">
                    <mxGeometry y="570" width="183" height="30" as="geometry"/>
                </mxCell>
                <mxCell id="261" value="sugaLingua&lt;Boolean()&gt;" style="text;strokeColor=none;fillColor=none;align=left;verticalAlign=middle;spacingLeft=4;spacingRight=4;overflow=hidden;points=[[0,0.5],[1,0.5]];portConstraint=eastwest;rotatable=0;sketch=1;curveFitting=1;jiggle=2;" parent="241" vertex="1">
                    <mxGeometry y="600" width="183" height="30" as="geometry"/>
                </mxCell>
                <mxCell id="262" value="roeUnha&lt;Boolean()&gt;" style="text;strokeColor=none;fillColor=none;align=left;verticalAlign=middle;spacingLeft=4;spacingRight=4;overflow=hidden;points=[[0,0.5],[1,0.5]];portConstraint=eastwest;rotatable=0;sketch=1;curveFitting=1;jiggle=2;" parent="241" vertex="1">
                    <mxGeometry y="630" width="183" height="30" as="geometry"/>
                </mxCell>
                <mxCell id="263" value="rangeDentes&lt;Boolean()&gt;" style="text;strokeColor=none;fillColor=none;align=left;verticalAlign=middle;spacingLeft=4;spacingRight=4;overflow=hidden;points=[[0,0.5],[1,0.5]];portConstraint=eastwest;rotatable=0;sketch=1;curveFitting=1;jiggle=2;" parent="241" vertex="1">
                    <mxGeometry y="660" width="183" height="30" as="geometry"/>
                </mxCell>
                <mxCell id="264" value="apertaDentes&lt;Boolean()&gt;" style="text;strokeColor=none;fillColor=none;align=left;verticalAlign=middle;spacingLeft=4;spacingRight=4;overflow=hidden;points=[[0,0.5],[1,0.5]];portConstraint=eastwest;rotatable=0;sketch=1;curveFitting=1;jiggle=2;" parent="241" vertex="1">
                    <mxGeometry y="690" width="183" height="30" as="geometry"/>
                </mxCell>
                <mxCell id="265" value="mordeDedo&lt;Boolean()&gt;" style="text;strokeColor=none;fillColor=none;align=left;verticalAlign=middle;spacingLeft=4;spacingRight=4;overflow=hidden;points=[[0,0.5],[1,0.5]];portConstraint=eastwest;rotatable=0;sketch=1;curveFitting=1;jiggle=2;" parent="241" vertex="1">
                    <mxGeometry y="720" width="183" height="30" as="geometry"/>
                </mxCell>
                <mxCell id="266" value="mordeUmLado&lt;Boolean()&gt;" style="text;strokeColor=none;fillColor=none;align=left;verticalAlign=middle;spacingLeft=4;spacingRight=4;overflow=hidden;points=[[0,0.5],[1,0.5]];portConstraint=eastwest;rotatable=0;sketch=1;curveFitting=1;jiggle=2;" parent="241" vertex="1">
                    <mxGeometry y="750" width="183" height="30" as="geometry"/>
                </mxCell>
                <mxCell id="267" value="mastigaUmLado&lt;Boolean()&gt;" style="text;strokeColor=none;fillColor=none;align=left;verticalAlign=middle;spacingLeft=4;spacingRight=4;overflow=hidden;points=[[0,0.5],[1,0.5]];portConstraint=eastwest;rotatable=0;sketch=1;curveFitting=1;jiggle=2;" parent="241" vertex="1">
                    <mxGeometry y="780" width="183" height="30" as="geometry"/>
                </mxCell>
                <mxCell id="268" value="chiclete&lt;Boolean()&gt;" style="text;strokeColor=none;fillColor=none;align=left;verticalAlign=middle;spacingLeft=4;spacingRight=4;overflow=hidden;points=[[0,0.5],[1,0.5]];portConstraint=eastwest;rotatable=0;sketch=1;curveFitting=1;jiggle=2;" parent="241" vertex="1">
                    <mxGeometry y="810" width="183" height="30" as="geometry"/>
                </mxCell>
                <mxCell id="269" value="obs&lt;varChar(200)&gt;" style="text;strokeColor=none;fillColor=none;align=left;verticalAlign=middle;spacingLeft=4;spacingRight=4;overflow=hidden;points=[[0,0.5],[1,0.5]];portConstraint=eastwest;rotatable=0;sketch=1;curveFitting=1;jiggle=2;" parent="241" vertex="1">
                    <mxGeometry y="840" width="183" height="30" as="geometry"/>
                </mxCell>
                <mxCell id="113" value="paciente_historicoOdonto" style="swimlane;fontStyle=0;childLayout=stackLayout;horizontal=1;startSize=30;horizontalStack=0;resizeParent=1;resizeParentMax=0;resizeLast=0;collapsible=1;marginBottom=0;sketch=1;curveFitting=1;jiggle=2;" parent="1" vertex="1">
                    <mxGeometry x="304" y="-837" width="183" height="540" as="geometry"/>
                </mxCell>
                <mxCell id="114" value="PK&lt;uuid&gt; id&lt;varChar&gt;" style="text;strokeColor=none;fillColor=none;align=left;verticalAlign=middle;spacingLeft=4;spacingRight=4;overflow=hidden;points=[[0,0.5],[1,0.5]];portConstraint=eastwest;rotatable=0;sketch=1;curveFitting=1;jiggle=2;" parent="113" vertex="1">
                    <mxGeometry y="30" width="183" height="30" as="geometry"/>
                </mxCell>
                <mxCell id="115" value="dentistaUltVezes&lt;varChar(200)&gt;" style="text;strokeColor=none;fillColor=none;align=left;verticalAlign=middle;spacingLeft=4;spacingRight=4;overflow=hidden;points=[[0,0.5],[1,0.5]];portConstraint=eastwest;rotatable=0;sketch=1;curveFitting=1;jiggle=2;" parent="113" vertex="1">
                    <mxGeometry y="60" width="183" height="30" as="geometry"/>
                </mxCell>
                <mxCell id="127" value="denteAfetaSaude&lt;Boolean()&gt;" style="text;strokeColor=none;fillColor=none;align=left;verticalAlign=middle;spacingLeft=4;spacingRight=4;overflow=hidden;points=[[0,0.5],[1,0.5]];portConstraint=eastwest;rotatable=0;sketch=1;curveFitting=1;jiggle=2;" parent="113" vertex="1">
                    <mxGeometry y="90" width="183" height="30" as="geometry"/>
                </mxCell>
                <mxCell id="116" value="gostoDesagradavelBoca&lt;Boolean()&gt;" style="text;strokeColor=none;fillColor=none;align=left;verticalAlign=middle;spacingLeft=4;spacingRight=4;overflow=hidden;points=[[0,0.5],[1,0.5]];portConstraint=eastwest;rotatable=0;sketch=1;curveFitting=1;jiggle=2;" parent="113" vertex="1">
                    <mxGeometry y="120" width="183" height="30" as="geometry"/>
                </mxCell>
                <mxCell id="117" value="respiraBoca&lt;Boolean()&gt;" style="text;strokeColor=none;fillColor=none;align=left;verticalAlign=middle;spacingLeft=4;spacingRight=4;overflow=hidden;points=[[0,0.5],[1,0.5]];portConstraint=eastwest;rotatable=0;sketch=1;curveFitting=1;jiggle=2;" parent="113" vertex="1">
                    <mxGeometry y="150" width="183" height="30" as="geometry"/>
                </mxCell>
                <mxCell id="118" value="roncaDificulRespirarNoite&lt;Boolean()&gt;" style="text;strokeColor=none;fillColor=none;align=left;verticalAlign=middle;spacingLeft=4;spacingRight=4;overflow=hidden;points=[[0,0.5],[1,0.5]];portConstraint=eastwest;rotatable=0;sketch=1;curveFitting=1;jiggle=2;" parent="113" vertex="1">
                    <mxGeometry y="180" width="183" height="30" as="geometry"/>
                </mxCell>
                <mxCell id="119" value="alimentosAcidos&lt;Boolean()&gt;" style="text;strokeColor=none;fillColor=none;align=left;verticalAlign=middle;spacingLeft=4;spacingRight=4;overflow=hidden;points=[[0,0.5],[1,0.5]];portConstraint=eastwest;rotatable=0;sketch=1;curveFitting=1;jiggle=2;" parent="113" vertex="1">
                    <mxGeometry y="210" width="183" height="30" as="geometry"/>
                </mxCell>
                <mxCell id="120" value="cafe&lt;Boolean()&gt;" style="text;strokeColor=none;fillColor=none;align=left;verticalAlign=middle;spacingLeft=4;spacingRight=4;overflow=hidden;points=[[0,0.5],[1,0.5]];portConstraint=eastwest;rotatable=0;sketch=1;curveFitting=1;jiggle=2;" parent="113" vertex="1">
                    <mxGeometry y="240" width="183" height="30" as="geometry"/>
                </mxCell>
                <mxCell id="121" value="gengivaSangra&lt;Boolean()&gt;" style="text;strokeColor=none;fillColor=none;align=left;verticalAlign=middle;spacingLeft=4;spacingRight=4;overflow=hidden;points=[[0,0.5],[1,0.5]];portConstraint=eastwest;rotatable=0;sketch=1;curveFitting=1;jiggle=2;" parent="113" vertex="1">
                    <mxGeometry y="270" width="183" height="30" as="geometry"/>
                </mxCell>
                <mxCell id="122" value="denteMole&lt;Boolean()&gt;" style="text;strokeColor=none;fillColor=none;align=left;verticalAlign=middle;spacingLeft=4;spacingRight=4;overflow=hidden;points=[[0,0.5],[1,0.5]];portConstraint=eastwest;rotatable=0;sketch=1;curveFitting=1;jiggle=2;" parent="113" vertex="1">
                    <mxGeometry y="300" width="183" height="30" as="geometry"/>
                </mxCell>
                <mxCell id="123" value="retencaoAlimentoMeioDente&lt;Boolean()&gt;" style="text;strokeColor=none;fillColor=none;align=left;verticalAlign=middle;spacingLeft=4;spacingRight=4;overflow=hidden;points=[[0,0.5],[1,0.5]];portConstraint=eastwest;rotatable=0;sketch=1;curveFitting=1;jiggle=2;" parent="113" vertex="1">
                    <mxGeometry y="330" width="183" height="30" as="geometry"/>
                </mxCell>
                <mxCell id="124" value="DorRosto&lt;Boolean()&gt;" style="text;strokeColor=none;fillColor=none;align=left;verticalAlign=middle;spacingLeft=4;spacingRight=4;overflow=hidden;points=[[0,0.5],[1,0.5]];portConstraint=eastwest;rotatable=0;sketch=1;curveFitting=1;jiggle=2;" parent="113" vertex="1">
                    <mxGeometry y="360" width="183" height="30" as="geometry"/>
                </mxCell>
                <mxCell id="129" value="PK&lt;uuid&gt; DorRostoPeriodo&lt;varChar()&gt;" style="text;strokeColor=none;fillColor=none;align=left;verticalAlign=middle;spacingLeft=4;spacingRight=4;overflow=hidden;points=[[0,0.5],[1,0.5]];portConstraint=eastwest;rotatable=0;sketch=1;curveFitting=1;jiggle=2;" parent="113" vertex="1">
                    <mxGeometry y="390" width="183" height="30" as="geometry"/>
                </mxCell>
                <mxCell id="125" value="DorCabeca&lt;Boolean()&gt;" style="text;strokeColor=none;fillColor=none;align=left;verticalAlign=middle;spacingLeft=4;spacingRight=4;overflow=hidden;points=[[0,0.5],[1,0.5]];portConstraint=eastwest;rotatable=0;sketch=1;curveFitting=1;jiggle=2;" parent="113" vertex="1">
                    <mxGeometry y="420" width="183" height="30" as="geometry"/>
                </mxCell>
                <mxCell id="130" value="DorCabecaRegiao&lt;varChar(150)&gt;" style="text;strokeColor=none;fillColor=none;align=left;verticalAlign=middle;spacingLeft=4;spacingRight=4;overflow=hidden;points=[[0,0.5],[1,0.5]];portConstraint=eastwest;rotatable=0;sketch=1;curveFitting=1;jiggle=2;" parent="113" vertex="1">
                    <mxGeometry y="450" width="183" height="30" as="geometry"/>
                </mxCell>
                <mxCell id="126" value="ruidoBoca&lt;Boolean()&gt;" style="text;strokeColor=none;fillColor=none;align=left;verticalAlign=middle;spacingLeft=4;spacingRight=4;overflow=hidden;points=[[0,0.5],[1,0.5]];portConstraint=eastwest;rotatable=0;sketch=1;curveFitting=1;jiggle=2;" parent="113" vertex="1">
                    <mxGeometry y="480" width="183" height="30" as="geometry"/>
                </mxCell>
                <mxCell id="128" value="DificulAbrirBoca&lt;Boolean()&gt;" style="text;strokeColor=none;fillColor=none;align=left;verticalAlign=middle;spacingLeft=4;spacingRight=4;overflow=hidden;points=[[0,0.5],[1,0.5]];portConstraint=eastwest;rotatable=0;sketch=1;curveFitting=1;jiggle=2;" parent="113" vertex="1">
                    <mxGeometry y="510" width="183" height="30" as="geometry"/>
                </mxCell>
                <mxCell id="665" style="edgeStyle=none;html=1;fontSize=16;fontFamily=Architects Daughter;sketch=1;hachureGap=4;jiggle=2;curveFitting=1;fontSource=https%3A%2F%2Ffonts.googleapis.com%2Fcss%3Ffamily%3DArchitects%2BDaughter;" parent="1" source="220" target="598" edge="1">
                    <mxGeometry relative="1" as="geometry"/>
                </mxCell>
                <mxCell id="220" value="Address" style="swimlane;fontStyle=0;childLayout=stackLayout;horizontal=1;startSize=30;horizontalStack=0;resizeParent=1;resizeParentMax=0;resizeLast=0;collapsible=1;marginBottom=0;sketch=1;curveFitting=1;jiggle=2;" parent="1" vertex="1">
                    <mxGeometry x="-1565" y="-3080" width="249" height="270" as="geometry"/>
                </mxCell>
                <mxCell id="221" value="PK&lt;uuid&gt; address_id&lt;varChar&gt;" style="text;strokeColor=none;fillColor=none;align=left;verticalAlign=middle;spacingLeft=4;spacingRight=4;overflow=hidden;points=[[0,0.5],[1,0.5]];portConstraint=eastwest;rotatable=0;sketch=1;curveFitting=1;jiggle=2;" parent="220" vertex="1">
                    <mxGeometry y="30" width="249" height="30" as="geometry"/>
                </mxCell>
                <mxCell id="222" value="cep&lt;integer&gt;" style="text;strokeColor=none;fillColor=none;align=left;verticalAlign=middle;spacingLeft=4;spacingRight=4;overflow=hidden;points=[[0,0.5],[1,0.5]];portConstraint=eastwest;rotatable=0;sketch=1;curveFitting=1;jiggle=2;" parent="220" vertex="1">
                    <mxGeometry y="60" width="249" height="30" as="geometry"/>
                </mxCell>
                <mxCell id="223" value="public_place&lt;varChar(100)&gt;" style="text;strokeColor=none;fillColor=none;align=left;verticalAlign=middle;spacingLeft=4;spacingRight=4;overflow=hidden;points=[[0,0.5],[1,0.5]];portConstraint=eastwest;rotatable=0;sketch=1;curveFitting=1;jiggle=2;" parent="220" vertex="1">
                    <mxGeometry y="90" width="249" height="30" as="geometry"/>
                </mxCell>
                <mxCell id="404" value="number&lt;varChar(100)&gt;" style="text;strokeColor=none;fillColor=none;align=left;verticalAlign=middle;spacingLeft=4;spacingRight=4;overflow=hidden;points=[[0,0.5],[1,0.5]];portConstraint=eastwest;rotatable=0;sketch=1;curveFitting=1;jiggle=2;" parent="220" vertex="1">
                    <mxGeometry y="120" width="249" height="30" as="geometry"/>
                </mxCell>
                <mxCell id="228" value="complement&lt;varChar(100)&gt;" style="text;strokeColor=none;fillColor=none;align=left;verticalAlign=middle;spacingLeft=4;spacingRight=4;overflow=hidden;points=[[0,0.5],[1,0.5]];portConstraint=eastwest;rotatable=0;sketch=1;curveFitting=1;jiggle=2;" parent="220" vertex="1">
                    <mxGeometry y="150" width="249" height="30" as="geometry"/>
                </mxCell>
                <mxCell id="225" value="district&lt;varChar(100)&gt;" style="text;strokeColor=none;fillColor=none;align=left;verticalAlign=middle;spacingLeft=4;spacingRight=4;overflow=hidden;points=[[0,0.5],[1,0.5]];portConstraint=eastwest;rotatable=0;sketch=1;curveFitting=1;jiggle=2;" parent="220" vertex="1">
                    <mxGeometry y="180" width="249" height="30" as="geometry"/>
                </mxCell>
                <mxCell id="227" value="city&lt;varChar(100)&gt;" style="text;strokeColor=none;fillColor=none;align=left;verticalAlign=middle;spacingLeft=4;spacingRight=4;overflow=hidden;points=[[0,0.5],[1,0.5]];portConstraint=eastwest;rotatable=0;sketch=1;curveFitting=1;jiggle=2;" parent="220" vertex="1">
                    <mxGeometry y="210" width="249" height="30" as="geometry"/>
                </mxCell>
                <mxCell id="229" value="state&lt;varChar(100)&gt;" style="text;strokeColor=none;fillColor=none;align=left;verticalAlign=middle;spacingLeft=4;spacingRight=4;overflow=hidden;points=[[0,0.5],[1,0.5]];portConstraint=eastwest;rotatable=0;sketch=1;curveFitting=1;jiggle=2;" parent="220" vertex="1">
                    <mxGeometry y="240" width="249" height="30" as="geometry"/>
                </mxCell>
                <mxCell id="270" value="paciente_habitosVicios" style="swimlane;fontStyle=0;childLayout=stackLayout;horizontal=1;startSize=30;horizontalStack=0;resizeParent=1;resizeParentMax=0;resizeLast=0;collapsible=1;marginBottom=0;sketch=1;curveFitting=1;jiggle=2;" parent="1" vertex="1">
                    <mxGeometry x="1794" y="-1349" width="183" height="870" as="geometry"/>
                </mxCell>
                <mxCell id="271" value="PK&lt;uuid&gt; id&lt;varChar&gt;" style="text;strokeColor=none;fillColor=none;align=left;verticalAlign=middle;spacingLeft=4;spacingRight=4;overflow=hidden;points=[[0,0.5],[1,0.5]];portConstraint=eastwest;rotatable=0;sketch=1;curveFitting=1;jiggle=2;" parent="270" vertex="1">
                    <mxGeometry y="30" width="183" height="30" as="geometry"/>
                </mxCell>
                <mxCell id="272" value="fuma&lt;Boolean()&gt;" style="text;strokeColor=none;fillColor=none;align=left;verticalAlign=middle;spacingLeft=4;spacingRight=4;overflow=hidden;points=[[0,0.5],[1,0.5]];portConstraint=eastwest;rotatable=0;sketch=1;curveFitting=1;jiggle=2;" parent="270" vertex="1">
                    <mxGeometry y="60" width="183" height="30" as="geometry"/>
                </mxCell>
                <mxCell id="273" value="quantCigarrosDia&lt;interger&gt;" style="text;strokeColor=none;fillColor=none;align=left;verticalAlign=middle;spacingLeft=4;spacingRight=4;overflow=hidden;points=[[0,0.5],[1,0.5]];portConstraint=eastwest;rotatable=0;sketch=1;curveFitting=1;jiggle=2;" parent="270" vertex="1">
                    <mxGeometry y="90" width="183" height="30" as="geometry"/>
                </mxCell>
                <mxCell id="274" value="tempoFuma&lt;varChar(10)&gt;" style="text;strokeColor=none;fillColor=none;align=left;verticalAlign=middle;spacingLeft=4;spacingRight=4;overflow=hidden;points=[[0,0.5],[1,0.5]];portConstraint=eastwest;rotatable=0;sketch=1;curveFitting=1;jiggle=2;" parent="270" vertex="1">
                    <mxGeometry y="120" width="183" height="30" as="geometry"/>
                </mxCell>
                <mxCell id="275" value="fumava&lt;Boolean()&gt;" style="text;strokeColor=none;fillColor=none;align=left;verticalAlign=middle;spacingLeft=4;spacingRight=4;overflow=hidden;points=[[0,0.5],[1,0.5]];portConstraint=eastwest;rotatable=0;sketch=1;curveFitting=1;jiggle=2;" parent="270" vertex="1">
                    <mxGeometry y="150" width="183" height="30" as="geometry"/>
                </mxCell>
                <mxCell id="276" value="quantoTempoFumava&lt;interger&gt;" style="text;strokeColor=none;fillColor=none;align=left;verticalAlign=middle;spacingLeft=4;spacingRight=4;overflow=hidden;points=[[0,0.5],[1,0.5]];portConstraint=eastwest;rotatable=0;sketch=1;curveFitting=1;jiggle=2;" parent="270" vertex="1">
                    <mxGeometry y="180" width="183" height="30" as="geometry"/>
                </mxCell>
                <mxCell id="277" value="quandoParouFumava&lt;varChar(10)&gt;" style="text;strokeColor=none;fillColor=none;align=left;verticalAlign=middle;spacingLeft=4;spacingRight=4;overflow=hidden;points=[[0,0.5],[1,0.5]];portConstraint=eastwest;rotatable=0;sketch=1;curveFitting=1;jiggle=2;" parent="270" vertex="1">
                    <mxGeometry y="210" width="183" height="30" as="geometry"/>
                </mxCell>
                <mxCell id="278" value="quantCigarrosDia&lt;interger&gt;" style="text;strokeColor=none;fillColor=none;align=left;verticalAlign=middle;spacingLeft=4;spacingRight=4;overflow=hidden;points=[[0,0.5],[1,0.5]];portConstraint=eastwest;rotatable=0;sketch=1;curveFitting=1;jiggle=2;" parent="270" vertex="1">
                    <mxGeometry y="240" width="183" height="30" as="geometry"/>
                </mxCell>
                <mxCell id="279" value="bebeAlcool&lt;Boolean()&gt;" style="text;strokeColor=none;fillColor=none;align=left;verticalAlign=middle;spacingLeft=4;spacingRight=4;overflow=hidden;points=[[0,0.5],[1,0.5]];portConstraint=eastwest;rotatable=0;sketch=1;curveFitting=1;jiggle=2;" parent="270" vertex="1">
                    <mxGeometry y="270" width="183" height="30" as="geometry"/>
                </mxCell>
                <mxCell id="280" value="PK&lt;uuid&gt; qualAlcool&lt;varChar()&gt;" style="text;strokeColor=none;fillColor=none;align=left;verticalAlign=middle;spacingLeft=4;spacingRight=4;overflow=hidden;points=[[0,0.5],[1,0.5]];portConstraint=eastwest;rotatable=0;sketch=1;curveFitting=1;jiggle=2;" parent="270" vertex="1">
                    <mxGeometry y="300" width="183" height="30" as="geometry"/>
                </mxCell>
                <mxCell id="281" value="quantoTempoAlcool&lt;varChar(100)&gt;" style="text;strokeColor=none;fillColor=none;align=left;verticalAlign=middle;spacingLeft=4;spacingRight=4;overflow=hidden;points=[[0,0.5],[1,0.5]];portConstraint=eastwest;rotatable=0;sketch=1;curveFitting=1;jiggle=2;" parent="270" vertex="1">
                    <mxGeometry y="330" width="183" height="30" as="geometry"/>
                </mxCell>
                <mxCell id="282" value="quantFreqAlcool&lt;varChar(100)&gt;" style="text;strokeColor=none;fillColor=none;align=left;verticalAlign=middle;spacingLeft=4;spacingRight=4;overflow=hidden;points=[[0,0.5],[1,0.5]];portConstraint=eastwest;rotatable=0;sketch=1;curveFitting=1;jiggle=2;" parent="270" vertex="1">
                    <mxGeometry y="360" width="183" height="30" as="geometry"/>
                </mxCell>
                <mxCell id="283" value="dietaAlimentar&lt;Boolean()&gt;" style="text;strokeColor=none;fillColor=none;align=left;verticalAlign=middle;spacingLeft=4;spacingRight=4;overflow=hidden;points=[[0,0.5],[1,0.5]];portConstraint=eastwest;rotatable=0;sketch=1;curveFitting=1;jiggle=2;" parent="270" vertex="1">
                    <mxGeometry y="390" width="183" height="30" as="geometry"/>
                </mxCell>
                <mxCell id="284" value="tipoTempoDietaAlimentar&lt;varChar(200)&gt;" style="text;strokeColor=none;fillColor=none;align=left;verticalAlign=middle;spacingLeft=4;spacingRight=4;overflow=hidden;points=[[0,0.5],[1,0.5]];portConstraint=eastwest;rotatable=0;sketch=1;curveFitting=1;jiggle=2;" parent="270" vertex="1">
                    <mxGeometry y="420" width="183" height="30" as="geometry"/>
                </mxCell>
                <mxCell id="285" value="chupeta&lt;Boolean()&gt;" style="text;strokeColor=none;fillColor=none;align=left;verticalAlign=middle;spacingLeft=4;spacingRight=4;overflow=hidden;points=[[0,0.5],[1,0.5]];portConstraint=eastwest;rotatable=0;sketch=1;curveFitting=1;jiggle=2;" parent="270" vertex="1">
                    <mxGeometry y="450" width="183" height="30" as="geometry"/>
                </mxCell>
                <mxCell id="286" value="succaoDigital&lt;Boolean()&gt;" style="text;strokeColor=none;fillColor=none;align=left;verticalAlign=middle;spacingLeft=4;spacingRight=4;overflow=hidden;points=[[0,0.5],[1,0.5]];portConstraint=eastwest;rotatable=0;sketch=1;curveFitting=1;jiggle=2;" parent="270" vertex="1">
                    <mxGeometry y="480" width="183" height="30" as="geometry"/>
                </mxCell>
                <mxCell id="287" value="mordeObj&lt;Boolean()&gt;" style="text;strokeColor=none;fillColor=none;align=left;verticalAlign=middle;spacingLeft=4;spacingRight=4;overflow=hidden;points=[[0,0.5],[1,0.5]];portConstraint=eastwest;rotatable=0;sketch=1;curveFitting=1;jiggle=2;" parent="270" vertex="1">
                    <mxGeometry y="510" width="183" height="30" as="geometry"/>
                </mxCell>
                <mxCell id="288" value="mordeLabios&lt;Boolean()&gt;" style="text;strokeColor=none;fillColor=none;align=left;verticalAlign=middle;spacingLeft=4;spacingRight=4;overflow=hidden;points=[[0,0.5],[1,0.5]];portConstraint=eastwest;rotatable=0;sketch=1;curveFitting=1;jiggle=2;" parent="270" vertex="1">
                    <mxGeometry y="540" width="183" height="30" as="geometry"/>
                </mxCell>
                <mxCell id="289" value="sugaLabios&lt;Boolean()&gt;" style="text;strokeColor=none;fillColor=none;align=left;verticalAlign=middle;spacingLeft=4;spacingRight=4;overflow=hidden;points=[[0,0.5],[1,0.5]];portConstraint=eastwest;rotatable=0;sketch=1;curveFitting=1;jiggle=2;" parent="270" vertex="1">
                    <mxGeometry y="570" width="183" height="30" as="geometry"/>
                </mxCell>
                <mxCell id="290" value="sugaLingua&lt;Boolean()&gt;" style="text;strokeColor=none;fillColor=none;align=left;verticalAlign=middle;spacingLeft=4;spacingRight=4;overflow=hidden;points=[[0,0.5],[1,0.5]];portConstraint=eastwest;rotatable=0;sketch=1;curveFitting=1;jiggle=2;" parent="270" vertex="1">
                    <mxGeometry y="600" width="183" height="30" as="geometry"/>
                </mxCell>
                <mxCell id="291" value="roeUnha&lt;Boolean()&gt;" style="text;strokeColor=none;fillColor=none;align=left;verticalAlign=middle;spacingLeft=4;spacingRight=4;overflow=hidden;points=[[0,0.5],[1,0.5]];portConstraint=eastwest;rotatable=0;sketch=1;curveFitting=1;jiggle=2;" parent="270" vertex="1">
                    <mxGeometry y="630" width="183" height="30" as="geometry"/>
                </mxCell>
                <mxCell id="292" value="rangeDentes&lt;Boolean()&gt;" style="text;strokeColor=none;fillColor=none;align=left;verticalAlign=middle;spacingLeft=4;spacingRight=4;overflow=hidden;points=[[0,0.5],[1,0.5]];portConstraint=eastwest;rotatable=0;sketch=1;curveFitting=1;jiggle=2;" parent="270" vertex="1">
                    <mxGeometry y="660" width="183" height="30" as="geometry"/>
                </mxCell>
                <mxCell id="293" value="apertaDentes&lt;Boolean()&gt;" style="text;strokeColor=none;fillColor=none;align=left;verticalAlign=middle;spacingLeft=4;spacingRight=4;overflow=hidden;points=[[0,0.5],[1,0.5]];portConstraint=eastwest;rotatable=0;sketch=1;curveFitting=1;jiggle=2;" parent="270" vertex="1">
                    <mxGeometry y="690" width="183" height="30" as="geometry"/>
                </mxCell>
                <mxCell id="294" value="mordeDedo&lt;Boolean()&gt;" style="text;strokeColor=none;fillColor=none;align=left;verticalAlign=middle;spacingLeft=4;spacingRight=4;overflow=hidden;points=[[0,0.5],[1,0.5]];portConstraint=eastwest;rotatable=0;sketch=1;curveFitting=1;jiggle=2;" parent="270" vertex="1">
                    <mxGeometry y="720" width="183" height="30" as="geometry"/>
                </mxCell>
                <mxCell id="295" value="mordeUmLado&lt;Boolean()&gt;" style="text;strokeColor=none;fillColor=none;align=left;verticalAlign=middle;spacingLeft=4;spacingRight=4;overflow=hidden;points=[[0,0.5],[1,0.5]];portConstraint=eastwest;rotatable=0;sketch=1;curveFitting=1;jiggle=2;" parent="270" vertex="1">
                    <mxGeometry y="750" width="183" height="30" as="geometry"/>
                </mxCell>
                <mxCell id="296" value="mastigaUmLado&lt;Boolean()&gt;" style="text;strokeColor=none;fillColor=none;align=left;verticalAlign=middle;spacingLeft=4;spacingRight=4;overflow=hidden;points=[[0,0.5],[1,0.5]];portConstraint=eastwest;rotatable=0;sketch=1;curveFitting=1;jiggle=2;" parent="270" vertex="1">
                    <mxGeometry y="780" width="183" height="30" as="geometry"/>
                </mxCell>
                <mxCell id="297" value="chiclete&lt;Boolean()&gt;" style="text;strokeColor=none;fillColor=none;align=left;verticalAlign=middle;spacingLeft=4;spacingRight=4;overflow=hidden;points=[[0,0.5],[1,0.5]];portConstraint=eastwest;rotatable=0;sketch=1;curveFitting=1;jiggle=2;" parent="270" vertex="1">
                    <mxGeometry y="810" width="183" height="30" as="geometry"/>
                </mxCell>
                <mxCell id="298" value="obs&lt;varChar(200)&gt;" style="text;strokeColor=none;fillColor=none;align=left;verticalAlign=middle;spacingLeft=4;spacingRight=4;overflow=hidden;points=[[0,0.5],[1,0.5]];portConstraint=eastwest;rotatable=0;sketch=1;curveFitting=1;jiggle=2;" parent="270" vertex="1">
                    <mxGeometry y="840" width="183" height="30" as="geometry"/>
                </mxCell>
                <mxCell id="299" value="paciente_habito" style="swimlane;fontStyle=0;childLayout=stackLayout;horizontal=1;startSize=30;horizontalStack=0;resizeParent=1;resizeParentMax=0;resizeLast=0;collapsible=1;marginBottom=0;sketch=1;curveFitting=1;jiggle=2;" parent="1" vertex="1">
                    <mxGeometry x="2087" y="-1346" width="183" height="570" as="geometry"/>
                </mxCell>
                <mxCell id="300" value="PK&lt;uuid&gt; id&lt;varChar&gt;" style="text;strokeColor=none;fillColor=none;align=left;verticalAlign=middle;spacingLeft=4;spacingRight=4;overflow=hidden;points=[[0,0.5],[1,0.5]];portConstraint=eastwest;rotatable=0;sketch=1;curveFitting=1;jiggle=2;" parent="299" vertex="1">
                    <mxGeometry y="30" width="183" height="30" as="geometry"/>
                </mxCell>
                <mxCell id="301" value="fuma&lt;Boolean()&gt;" style="text;strokeColor=none;fillColor=none;align=left;verticalAlign=middle;spacingLeft=4;spacingRight=4;overflow=hidden;points=[[0,0.5],[1,0.5]];portConstraint=eastwest;rotatable=0;sketch=1;curveFitting=1;jiggle=2;" parent="299" vertex="1">
                    <mxGeometry y="60" width="183" height="30" as="geometry"/>
                </mxCell>
                <mxCell id="308" value="alcool&lt;Boolean()&gt;" style="text;strokeColor=none;fillColor=none;align=left;verticalAlign=middle;spacingLeft=4;spacingRight=4;overflow=hidden;points=[[0,0.5],[1,0.5]];portConstraint=eastwest;rotatable=0;sketch=1;curveFitting=1;jiggle=2;" parent="299" vertex="1">
                    <mxGeometry y="90" width="183" height="30" as="geometry"/>
                </mxCell>
                <mxCell id="312" value="dieta&lt;Boolean()&gt;" style="text;strokeColor=none;fillColor=none;align=left;verticalAlign=middle;spacingLeft=4;spacingRight=4;overflow=hidden;points=[[0,0.5],[1,0.5]];portConstraint=eastwest;rotatable=0;sketch=1;curveFitting=1;jiggle=2;" parent="299" vertex="1">
                    <mxGeometry y="120" width="183" height="30" as="geometry"/>
                </mxCell>
                <mxCell id="314" value="chupeta&lt;Boolean()&gt;" style="text;strokeColor=none;fillColor=none;align=left;verticalAlign=middle;spacingLeft=4;spacingRight=4;overflow=hidden;points=[[0,0.5],[1,0.5]];portConstraint=eastwest;rotatable=0;sketch=1;curveFitting=1;jiggle=2;" parent="299" vertex="1">
                    <mxGeometry y="150" width="183" height="30" as="geometry"/>
                </mxCell>
                <mxCell id="315" value="succaoDigital&lt;Boolean()&gt;" style="text;strokeColor=none;fillColor=none;align=left;verticalAlign=middle;spacingLeft=4;spacingRight=4;overflow=hidden;points=[[0,0.5],[1,0.5]];portConstraint=eastwest;rotatable=0;sketch=1;curveFitting=1;jiggle=2;" parent="299" vertex="1">
                    <mxGeometry y="180" width="183" height="30" as="geometry"/>
                </mxCell>
                <mxCell id="316" value="mordeObj&lt;Boolean()&gt;" style="text;strokeColor=none;fillColor=none;align=left;verticalAlign=middle;spacingLeft=4;spacingRight=4;overflow=hidden;points=[[0,0.5],[1,0.5]];portConstraint=eastwest;rotatable=0;sketch=1;curveFitting=1;jiggle=2;" parent="299" vertex="1">
                    <mxGeometry y="210" width="183" height="30" as="geometry"/>
                </mxCell>
                <mxCell id="317" value="mordeLabios&lt;Boolean()&gt;" style="text;strokeColor=none;fillColor=none;align=left;verticalAlign=middle;spacingLeft=4;spacingRight=4;overflow=hidden;points=[[0,0.5],[1,0.5]];portConstraint=eastwest;rotatable=0;sketch=1;curveFitting=1;jiggle=2;" parent="299" vertex="1">
                    <mxGeometry y="240" width="183" height="30" as="geometry"/>
                </mxCell>
                <mxCell id="318" value="sugaLabios&lt;Boolean()&gt;" style="text;strokeColor=none;fillColor=none;align=left;verticalAlign=middle;spacingLeft=4;spacingRight=4;overflow=hidden;points=[[0,0.5],[1,0.5]];portConstraint=eastwest;rotatable=0;sketch=1;curveFitting=1;jiggle=2;" parent="299" vertex="1">
                    <mxGeometry y="270" width="183" height="30" as="geometry"/>
                </mxCell>
                <mxCell id="319" value="sugaLingua&lt;Boolean()&gt;" style="text;strokeColor=none;fillColor=none;align=left;verticalAlign=middle;spacingLeft=4;spacingRight=4;overflow=hidden;points=[[0,0.5],[1,0.5]];portConstraint=eastwest;rotatable=0;sketch=1;curveFitting=1;jiggle=2;" parent="299" vertex="1">
                    <mxGeometry y="300" width="183" height="30" as="geometry"/>
                </mxCell>
                <mxCell id="320" value="roeUnha&lt;Boolean()&gt;" style="text;strokeColor=none;fillColor=none;align=left;verticalAlign=middle;spacingLeft=4;spacingRight=4;overflow=hidden;points=[[0,0.5],[1,0.5]];portConstraint=eastwest;rotatable=0;sketch=1;curveFitting=1;jiggle=2;" parent="299" vertex="1">
                    <mxGeometry y="330" width="183" height="30" as="geometry"/>
                </mxCell>
                <mxCell id="321" value="rangeDentes&lt;Boolean()&gt;" style="text;strokeColor=none;fillColor=none;align=left;verticalAlign=middle;spacingLeft=4;spacingRight=4;overflow=hidden;points=[[0,0.5],[1,0.5]];portConstraint=eastwest;rotatable=0;sketch=1;curveFitting=1;jiggle=2;" parent="299" vertex="1">
                    <mxGeometry y="360" width="183" height="30" as="geometry"/>
                </mxCell>
                <mxCell id="322" value="apertaDentes&lt;Boolean()&gt;" style="text;strokeColor=none;fillColor=none;align=left;verticalAlign=middle;spacingLeft=4;spacingRight=4;overflow=hidden;points=[[0,0.5],[1,0.5]];portConstraint=eastwest;rotatable=0;sketch=1;curveFitting=1;jiggle=2;" parent="299" vertex="1">
                    <mxGeometry y="390" width="183" height="30" as="geometry"/>
                </mxCell>
                <mxCell id="323" value="mordeDedo&lt;Boolean()&gt;" style="text;strokeColor=none;fillColor=none;align=left;verticalAlign=middle;spacingLeft=4;spacingRight=4;overflow=hidden;points=[[0,0.5],[1,0.5]];portConstraint=eastwest;rotatable=0;sketch=1;curveFitting=1;jiggle=2;" parent="299" vertex="1">
                    <mxGeometry y="420" width="183" height="30" as="geometry"/>
                </mxCell>
                <mxCell id="324" value="mordeUmLado&lt;Boolean()&gt;" style="text;strokeColor=none;fillColor=none;align=left;verticalAlign=middle;spacingLeft=4;spacingRight=4;overflow=hidden;points=[[0,0.5],[1,0.5]];portConstraint=eastwest;rotatable=0;sketch=1;curveFitting=1;jiggle=2;" parent="299" vertex="1">
                    <mxGeometry y="450" width="183" height="30" as="geometry"/>
                </mxCell>
                <mxCell id="325" value="mastigaUmLado&lt;Boolean()&gt;" style="text;strokeColor=none;fillColor=none;align=left;verticalAlign=middle;spacingLeft=4;spacingRight=4;overflow=hidden;points=[[0,0.5],[1,0.5]];portConstraint=eastwest;rotatable=0;sketch=1;curveFitting=1;jiggle=2;" parent="299" vertex="1">
                    <mxGeometry y="480" width="183" height="30" as="geometry"/>
                </mxCell>
                <mxCell id="326" value="chiclete&lt;Boolean()&gt;" style="text;strokeColor=none;fillColor=none;align=left;verticalAlign=middle;spacingLeft=4;spacingRight=4;overflow=hidden;points=[[0,0.5],[1,0.5]];portConstraint=eastwest;rotatable=0;sketch=1;curveFitting=1;jiggle=2;" parent="299" vertex="1">
                    <mxGeometry y="510" width="183" height="30" as="geometry"/>
                </mxCell>
                <mxCell id="327" value="obs&lt;varChar(200)&gt;" style="text;strokeColor=none;fillColor=none;align=left;verticalAlign=middle;spacingLeft=4;spacingRight=4;overflow=hidden;points=[[0,0.5],[1,0.5]];portConstraint=eastwest;rotatable=0;sketch=1;curveFitting=1;jiggle=2;" parent="299" vertex="1">
                    <mxGeometry y="540" width="183" height="30" as="geometry"/>
                </mxCell>
                <mxCell id="347" value="habito_fumar" style="swimlane;fontStyle=0;childLayout=stackLayout;horizontal=1;startSize=30;horizontalStack=0;resizeParent=1;resizeParentMax=0;resizeLast=0;collapsible=1;marginBottom=0;sketch=1;curveFitting=1;jiggle=2;" parent="1" vertex="1">
                    <mxGeometry x="2428" y="-1346" width="228" height="180" as="geometry"/>
                </mxCell>
                <mxCell id="348" value="PK&lt;uuid&gt; id_habito_fumar&lt;varChar&gt;" style="text;strokeColor=none;fillColor=none;align=left;verticalAlign=middle;spacingLeft=4;spacingRight=4;overflow=hidden;points=[[0,0.5],[1,0.5]];portConstraint=eastwest;rotatable=0;sketch=1;curveFitting=1;jiggle=2;" parent="347" vertex="1">
                    <mxGeometry y="30" width="228" height="30" as="geometry"/>
                </mxCell>
                <mxCell id="403" value="FK&lt;uuid&gt; id_paciente&lt;varChar&gt;" style="text;strokeColor=none;fillColor=none;align=left;verticalAlign=middle;spacingLeft=4;spacingRight=4;overflow=hidden;points=[[0,0.5],[1,0.5]];portConstraint=eastwest;rotatable=0;sketch=1;curveFitting=1;jiggle=2;" parent="347" vertex="1">
                    <mxGeometry y="60" width="228" height="30" as="geometry"/>
                </mxCell>
                <mxCell id="396" value="qtd_cigarros_dia&lt;interger&gt;" style="text;strokeColor=none;fillColor=none;align=left;verticalAlign=middle;spacingLeft=4;spacingRight=4;overflow=hidden;points=[[0,0.5],[1,0.5]];portConstraint=eastwest;rotatable=0;sketch=1;curveFitting=1;jiggle=2;" parent="347" vertex="1">
                    <mxGeometry y="90" width="228" height="30" as="geometry"/>
                </mxCell>
                <mxCell id="397" value="data_inicio&lt;varChar(10)&gt;" style="text;strokeColor=none;fillColor=none;align=left;verticalAlign=middle;spacingLeft=4;spacingRight=4;overflow=hidden;points=[[0,0.5],[1,0.5]];portConstraint=eastwest;rotatable=0;sketch=1;curveFitting=1;jiggle=2;" parent="347" vertex="1">
                    <mxGeometry y="120" width="228" height="30" as="geometry"/>
                </mxCell>
                <mxCell id="398" value="data_fim&lt;Boolean()&gt;" style="text;strokeColor=none;fillColor=none;align=left;verticalAlign=middle;spacingLeft=4;spacingRight=4;overflow=hidden;points=[[0,0.5],[1,0.5]];portConstraint=eastwest;rotatable=0;sketch=1;curveFitting=1;jiggle=2;" parent="347" vertex="1">
                    <mxGeometry y="150" width="228" height="30" as="geometry"/>
                </mxCell>
                <mxCell id="420" value="&lt;font style=&quot;font-size: 32px&quot;&gt;ONBOARDING&lt;/font&gt;" style="text;html=1;strokeColor=none;fillColor=none;align=center;verticalAlign=middle;whiteSpace=wrap;rounded=0;sketch=1;curveFitting=1;jiggle=2;" parent="1" vertex="1">
                    <mxGeometry x="-658" y="-3263" width="271" height="70" as="geometry"/>
                </mxCell>
                <mxCell id="438" value="&lt;font style=&quot;font-size: 32px&quot;&gt;FILA&lt;/font&gt;" style="text;html=1;strokeColor=none;fillColor=none;align=center;verticalAlign=middle;whiteSpace=wrap;rounded=0;sketch=1;curveFitting=1;jiggle=2;" parent="1" vertex="1">
                    <mxGeometry x="-258" y="-3103" width="271" height="70" as="geometry"/>
                </mxCell>
                <mxCell id="445" value="&lt;font style=&quot;font-size: 32px&quot;&gt;Cadastro Paciente e agendamento&lt;/font&gt;" style="text;html=1;strokeColor=none;fillColor=none;align=center;verticalAlign=middle;whiteSpace=wrap;rounded=0;sketch=1;curveFitting=1;jiggle=2;" parent="1" vertex="1">
                    <mxGeometry x="-356" y="-3390" width="271" height="70" as="geometry"/>
                </mxCell>
                <mxCell id="545" style="edgeStyle=none;sketch=1;hachureGap=4;jiggle=2;curveFitting=1;html=1;entryX=0;entryY=0.5;entryDx=0;entryDy=0;fontFamily=Architects Daughter;fontSource=https%3A%2F%2Ffonts.googleapis.com%2Fcss%3Ffamily%3DArchitects%2BDaughter;fontSize=16;" parent="1" source="515" target="541" edge="1">
                    <mxGeometry relative="1" as="geometry">
                        <Array as="points">
                            <mxPoint x="-725" y="-3055"/>
                        </Array>
                    </mxGeometry>
                </mxCell>
                <mxCell id="601" style="edgeStyle=none;sketch=1;hachureGap=4;jiggle=2;curveFitting=1;html=1;fontFamily=Architects Daughter;fontSource=https%3A%2F%2Ffonts.googleapis.com%2Fcss%3Ffamily%3DArchitects%2BDaughter;fontSize=16;" parent="1" source="515" target="598" edge="1">
                    <mxGeometry relative="1" as="geometry">
                        <Array as="points">
                            <mxPoint x="-1002" y="-3019"/>
                            <mxPoint x="-1002" y="-2923"/>
                        </Array>
                    </mxGeometry>
                </mxCell>
                <mxCell id="664" style="edgeStyle=none;html=1;fontSize=16;fontFamily=Architects Daughter;sketch=1;hachureGap=4;jiggle=2;curveFitting=1;fontSource=https%3A%2F%2Ffonts.googleapis.com%2Fcss%3Ffamily%3DArchitects%2BDaughter;" parent="1" source="515" target="fCb3WjOM5glnsx4sddUI-65" edge="1">
                    <mxGeometry relative="1" as="geometry">
                        <Array as="points">
                            <mxPoint x="-608" y="-3023"/>
                            <mxPoint x="-608" y="-2864"/>
                        </Array>
                    </mxGeometry>
                </mxCell>
                <mxCell id="515" value="People" style="swimlane;fontStyle=0;childLayout=stackLayout;horizontal=1;startSize=30;horizontalStack=0;resizeParent=1;resizeParentMax=0;resizeLast=0;collapsible=1;marginBottom=0;sketch=1;curveFitting=1;jiggle=2;" parent="1" vertex="1">
                    <mxGeometry x="-955" y="-3248" width="208" height="450" as="geometry"/>
                </mxCell>
                <mxCell id="516" value="PK&lt;uuid&gt; people_id &lt;varChar()&gt;" style="text;strokeColor=none;fillColor=none;align=left;verticalAlign=middle;spacingLeft=4;spacingRight=4;overflow=hidden;points=[[0,0.5],[1,0.5]];portConstraint=eastwest;rotatable=0;sketch=1;curveFitting=1;jiggle=2;" parent="515" vertex="1">
                    <mxGeometry y="30" width="208" height="30" as="geometry"/>
                </mxCell>
                <mxCell id="517" value="birth_date&lt;Date()&gt;" style="text;strokeColor=none;fillColor=none;align=left;verticalAlign=middle;spacingLeft=4;spacingRight=4;overflow=hidden;points=[[0,0.5],[1,0.5]];portConstraint=eastwest;rotatable=0;sketch=1;curveFitting=1;jiggle=2;" parent="515" vertex="1">
                    <mxGeometry y="60" width="208" height="30" as="geometry"/>
                </mxCell>
                <mxCell id="519" value="name&lt;string(200)&gt;" style="text;strokeColor=none;fillColor=none;align=left;verticalAlign=middle;spacingLeft=4;spacingRight=4;overflow=hidden;points=[[0,0.5],[1,0.5]];portConstraint=eastwest;rotatable=0;sketch=1;curveFitting=1;jiggle=2;" parent="515" vertex="1">
                    <mxGeometry y="90" width="208" height="30" as="geometry"/>
                </mxCell>
                <mxCell id="520" value="last_name&lt;string(200)&gt;" style="text;strokeColor=none;fillColor=none;align=left;verticalAlign=middle;spacingLeft=4;spacingRight=4;overflow=hidden;points=[[0,0.5],[1,0.5]];portConstraint=eastwest;rotatable=0;sketch=1;curveFitting=1;jiggle=2;" parent="515" vertex="1">
                    <mxGeometry y="120" width="208" height="30" as="geometry"/>
                </mxCell>
                <mxCell id="521" value="cpf&lt;varChar(19)&gt;" style="text;strokeColor=none;fillColor=none;align=left;verticalAlign=middle;spacingLeft=4;spacingRight=4;overflow=hidden;points=[[0,0.5],[1,0.5]];portConstraint=eastwest;rotatable=0;sketch=1;curveFitting=1;jiggle=2;" parent="515" vertex="1">
                    <mxGeometry y="150" width="208" height="30" as="geometry"/>
                </mxCell>
                <mxCell id="522" value="genre&lt;char(1)&gt;" style="text;strokeColor=none;fillColor=none;align=left;verticalAlign=middle;spacingLeft=4;spacingRight=4;overflow=hidden;points=[[0,0.5],[1,0.5]];portConstraint=eastwest;rotatable=0;sketch=1;curveFitting=1;jiggle=2;" parent="515" vertex="1">
                    <mxGeometry y="180" width="208" height="30" as="geometry"/>
                </mxCell>
                <mxCell id="523" value="ethnicity&lt;varChar(50)&gt;" style="text;strokeColor=none;fillColor=none;align=left;verticalAlign=middle;spacingLeft=4;spacingRight=4;overflow=hidden;points=[[0,0.5],[1,0.5]];portConstraint=eastwest;rotatable=0;sketch=1;curveFitting=1;jiggle=2;" parent="515" vertex="1">
                    <mxGeometry y="210" width="208" height="30" as="geometry"/>
                </mxCell>
                <mxCell id="524" value="email&lt;varChar(50)&gt;" style="text;strokeColor=none;fillColor=none;align=left;verticalAlign=middle;spacingLeft=4;spacingRight=4;overflow=hidden;points=[[0,0.5],[1,0.5]];portConstraint=eastwest;rotatable=0;sketch=1;curveFitting=1;jiggle=2;" parent="515" vertex="1">
                    <mxGeometry y="240" width="208" height="30" as="geometry"/>
                </mxCell>
                <mxCell id="525" value="phone_number&lt;string(19)&gt;" style="text;strokeColor=none;fillColor=none;align=left;verticalAlign=middle;spacingLeft=4;spacingRight=4;overflow=hidden;points=[[0,0.5],[1,0.5]];portConstraint=eastwest;rotatable=0;sketch=1;curveFitting=1;jiggle=2;" parent="515" vertex="1">
                    <mxGeometry y="270" width="208" height="30" as="geometry"/>
                </mxCell>
                <mxCell id="526" value="profession&lt;VarCha(50)&gt;" style="text;strokeColor=none;fillColor=none;align=left;verticalAlign=middle;spacingLeft=4;spacingRight=4;overflow=hidden;points=[[0,0.5],[1,0.5]];portConstraint=eastwest;rotatable=0;sketch=1;curveFitting=1;jiggle=2;" parent="515" vertex="1">
                    <mxGeometry y="300" width="208" height="30" as="geometry"/>
                </mxCell>
                <mxCell id="527" value="nationality&lt;VarChar(50)&gt;" style="text;strokeColor=none;fillColor=none;align=left;verticalAlign=middle;spacingLeft=4;spacingRight=4;overflow=hidden;points=[[0,0.5],[1,0.5]];portConstraint=eastwest;rotatable=0;sketch=1;curveFitting=1;jiggle=2;" parent="515" vertex="1">
                    <mxGeometry y="330" width="208" height="30" as="geometry"/>
                </mxCell>
                <mxCell id="528" value="naturalness&lt;ENUM&gt;" style="text;strokeColor=none;fillColor=none;align=left;verticalAlign=middle;spacingLeft=4;spacingRight=4;overflow=hidden;points=[[0,0.5],[1,0.5]];portConstraint=eastwest;rotatable=0;sketch=1;curveFitting=1;jiggle=2;" parent="515" vertex="1">
                    <mxGeometry y="360" width="208" height="30" as="geometry"/>
                </mxCell>
                <mxCell id="530" value="FK&lt;uuid&gt; address&lt;varChar()&gt;" style="text;strokeColor=none;fillColor=none;align=left;verticalAlign=middle;spacingLeft=4;spacingRight=4;overflow=hidden;points=[[0,0.5],[1,0.5]];portConstraint=eastwest;rotatable=0;sketch=1;curveFitting=1;jiggle=2;" parent="515" vertex="1">
                    <mxGeometry y="390" width="208" height="30" as="geometry"/>
                </mxCell>
                <mxCell id="531" value="education_level&lt;ENUM&gt;" style="text;strokeColor=none;fillColor=none;align=left;verticalAlign=middle;spacingLeft=4;spacingRight=4;overflow=hidden;points=[[0,0.5],[1,0.5]];portConstraint=eastwest;rotatable=0;sketch=1;curveFitting=1;jiggle=2;" parent="515" vertex="1">
                    <mxGeometry y="420" width="208" height="30" as="geometry"/>
                </mxCell>
                <mxCell id="538" value="Guardian" style="swimlane;fontStyle=0;childLayout=stackLayout;horizontal=1;startSize=30;horizontalStack=0;resizeParent=1;resizeParentMax=0;resizeLast=0;collapsible=1;marginBottom=0;sketch=1;curveFitting=1;jiggle=2;" parent="1" vertex="1">
                    <mxGeometry x="-647" y="-3130" width="245" height="90" as="geometry"/>
                </mxCell>
                <mxCell id="540" value="FK&lt;uuid&gt; patient_id&lt;varChar()&gt;" style="text;strokeColor=none;fillColor=none;align=left;verticalAlign=middle;spacingLeft=4;spacingRight=4;overflow=hidden;points=[[0,0.5],[1,0.5]];portConstraint=eastwest;rotatable=0;sketch=1;curveFitting=1;jiggle=2;" parent="538" vertex="1">
                    <mxGeometry y="30" width="245" height="30" as="geometry"/>
                </mxCell>
                <mxCell id="541" value="FK&lt;uuid&gt; people_id&lt;varChar()&gt;" style="text;strokeColor=none;fillColor=none;align=left;verticalAlign=middle;spacingLeft=4;spacingRight=4;overflow=hidden;points=[[0,0.5],[1,0.5]];portConstraint=eastwest;rotatable=0;sketch=1;curveFitting=1;jiggle=2;" parent="538" vertex="1">
                    <mxGeometry y="60" width="245" height="30" as="geometry"/>
                </mxCell>
                <mxCell id="546" value="education_level (ENUM)" style="swimlane;fontStyle=0;childLayout=stackLayout;horizontal=1;startSize=30;horizontalStack=0;resizeParent=1;resizeParentMax=0;resizeLast=0;collapsible=1;marginBottom=0;sketch=1;curveFitting=1;jiggle=2;" parent="1" vertex="1">
                    <mxGeometry x="-1149" y="-4001" width="205" height="120" as="geometry"/>
                </mxCell>
                <mxCell id="547" value="complete_middle_scholll" style="text;strokeColor=none;fillColor=none;align=left;verticalAlign=middle;spacingLeft=4;spacingRight=4;overflow=hidden;points=[[0,0.5],[1,0.5]];portConstraint=eastwest;rotatable=0;sketch=1;curveFitting=1;jiggle=2;" parent="546" vertex="1">
                    <mxGeometry y="30" width="205" height="30" as="geometry"/>
                </mxCell>
                <mxCell id="548" value="complete_high_school" style="text;strokeColor=none;fillColor=none;align=left;verticalAlign=middle;spacingLeft=4;spacingRight=4;overflow=hidden;points=[[0,0.5],[1,0.5]];portConstraint=eastwest;rotatable=0;sketch=1;curveFitting=1;jiggle=2;" parent="546" vertex="1">
                    <mxGeometry y="60" width="205" height="30" as="geometry"/>
                </mxCell>
                <mxCell id="549" value="complete_undergraduate_degree" style="text;strokeColor=none;fillColor=none;align=left;verticalAlign=middle;spacingLeft=4;spacingRight=4;overflow=hidden;points=[[0,0.5],[1,0.5]];portConstraint=eastwest;rotatable=0;sketch=1;curveFitting=1;jiggle=2;" parent="546" vertex="1">
                    <mxGeometry y="90" width="205" height="30" as="geometry"/>
                </mxCell>
                <mxCell id="550" value="stats_type (ENUM)" style="swimlane;fontStyle=0;childLayout=stackLayout;horizontal=1;startSize=30;horizontalStack=0;resizeParent=1;resizeParentMax=0;resizeLast=0;collapsible=1;marginBottom=0;sketch=1;curveFitting=1;jiggle=2;" parent="1" vertex="1">
                    <mxGeometry x="-713" y="-4003" width="177" height="300" as="geometry"/>
                </mxCell>
                <mxCell id="551" value="on_hold (em espera)" style="text;strokeColor=none;fillColor=none;align=left;verticalAlign=middle;spacingLeft=4;spacingRight=4;overflow=hidden;points=[[0,0.5],[1,0.5]];portConstraint=eastwest;rotatable=0;sketch=1;curveFitting=1;jiggle=2;" parent="550" vertex="1">
                    <mxGeometry y="30" width="177" height="30" as="geometry"/>
                </mxCell>
                <mxCell id="552" value="called (chamado)" style="text;strokeColor=none;fillColor=none;align=left;verticalAlign=middle;spacingLeft=4;spacingRight=4;overflow=hidden;points=[[0,0.5],[1,0.5]];portConstraint=eastwest;rotatable=0;sketch=1;curveFitting=1;jiggle=2;" parent="550" vertex="1">
                    <mxGeometry y="60" width="177" height="30" as="geometry"/>
                </mxCell>
                <mxCell id="553" value="forwarded (encaminhado)" style="text;strokeColor=none;fillColor=none;align=left;verticalAlign=middle;spacingLeft=4;spacingRight=4;overflow=hidden;points=[[0,0.5],[1,0.5]];portConstraint=eastwest;rotatable=0;sketch=1;curveFitting=1;jiggle=2;" parent="550" vertex="1">
                    <mxGeometry y="90" width="177" height="30" as="geometry"/>
                </mxCell>
                <mxCell id="554" value="showed_up (compareceu)" style="text;strokeColor=none;fillColor=none;align=left;verticalAlign=middle;spacingLeft=4;spacingRight=4;overflow=hidden;points=[[0,0.5],[1,0.5]];portConstraint=eastwest;rotatable=0;sketch=1;curveFitting=1;jiggle=2;" parent="550" vertex="1">
                    <mxGeometry y="120" width="177" height="30" as="geometry"/>
                </mxCell>
                <mxCell id="555" value="in_process (em_processo)" style="text;strokeColor=none;fillColor=none;align=left;verticalAlign=middle;spacingLeft=4;spacingRight=4;overflow=hidden;points=[[0,0.5],[1,0.5]];portConstraint=eastwest;rotatable=0;sketch=1;curveFitting=1;jiggle=2;" parent="550" vertex="1">
                    <mxGeometry y="150" width="177" height="30" as="geometry"/>
                </mxCell>
                <mxCell id="556" value="concluded (concluido)" style="text;strokeColor=none;fillColor=none;align=left;verticalAlign=middle;spacingLeft=4;spacingRight=4;overflow=hidden;points=[[0,0.5],[1,0.5]];portConstraint=eastwest;rotatable=0;sketch=1;curveFitting=1;jiggle=2;" parent="550" vertex="1">
                    <mxGeometry y="180" width="177" height="30" as="geometry"/>
                </mxCell>
                <mxCell id="557" value="withdrawal (desistencia)" style="text;strokeColor=none;fillColor=none;align=left;verticalAlign=middle;spacingLeft=4;spacingRight=4;overflow=hidden;points=[[0,0.5],[1,0.5]];portConstraint=eastwest;rotatable=0;sketch=1;curveFitting=1;jiggle=2;" parent="550" vertex="1">
                    <mxGeometry y="210" width="177" height="30" as="geometry"/>
                </mxCell>
                <mxCell id="558" value="disabled (desativado)" style="text;strokeColor=none;fillColor=none;align=left;verticalAlign=middle;spacingLeft=4;spacingRight=4;overflow=hidden;points=[[0,0.5],[1,0.5]];portConstraint=eastwest;rotatable=0;sketch=1;curveFitting=1;jiggle=2;" parent="550" vertex="1">
                    <mxGeometry y="240" width="177" height="30" as="geometry"/>
                </mxCell>
                <mxCell id="655" value="forwardedWithReturn (encaminhado aguardando retorno)" style="text;strokeColor=none;fillColor=none;align=left;verticalAlign=middle;spacingLeft=4;spacingRight=4;overflow=hidden;points=[[0,0.5],[1,0.5]];portConstraint=eastwest;rotatable=0;sketch=1;curveFitting=1;jiggle=2;" parent="550" vertex="1">
                    <mxGeometry y="270" width="177" height="30" as="geometry"/>
                </mxCell>
                <mxCell id="559" value="naturalness (ENUM)" style="swimlane;fontStyle=0;childLayout=stackLayout;horizontal=1;startSize=30;horizontalStack=0;resizeParent=1;resizeParentMax=0;resizeLast=0;collapsible=1;marginBottom=0;sketch=1;curveFitting=1;jiggle=2;" parent="1" vertex="1">
                    <mxGeometry x="-916" y="-4006" width="177" height="120" as="geometry"/>
                </mxCell>
                <mxCell id="560" value="Brasileiro" style="text;strokeColor=none;fillColor=none;align=left;verticalAlign=middle;spacingLeft=4;spacingRight=4;overflow=hidden;points=[[0,0.5],[1,0.5]];portConstraint=eastwest;rotatable=0;sketch=1;curveFitting=1;jiggle=2;" parent="559" vertex="1">
                    <mxGeometry y="30" width="177" height="30" as="geometry"/>
                </mxCell>
                <mxCell id="561" value="Mexicano" style="text;strokeColor=none;fillColor=none;align=left;verticalAlign=middle;spacingLeft=4;spacingRight=4;overflow=hidden;points=[[0,0.5],[1,0.5]];portConstraint=eastwest;rotatable=0;sketch=1;curveFitting=1;jiggle=2;" parent="559" vertex="1">
                    <mxGeometry y="60" width="177" height="30" as="geometry"/>
                </mxCell>
                <mxCell id="562" value="Argentino" style="text;strokeColor=none;fillColor=none;align=left;verticalAlign=middle;spacingLeft=4;spacingRight=4;overflow=hidden;points=[[0,0.5],[1,0.5]];portConstraint=eastwest;rotatable=0;sketch=1;curveFitting=1;jiggle=2;" parent="559" vertex="1">
                    <mxGeometry y="90" width="177" height="30" as="geometry"/>
                </mxCell>
                <mxCell id="563" value="&lt;font style=&quot;font-size: 32px&quot;&gt;ENUM&lt;br&gt;&lt;/font&gt;" style="text;html=1;strokeColor=none;fillColor=none;align=center;verticalAlign=middle;whiteSpace=wrap;rounded=0;sketch=1;curveFitting=1;jiggle=2;" parent="1" vertex="1">
                    <mxGeometry x="-930" y="-4074" width="208" height="70" as="geometry"/>
                </mxCell>
                <mxCell id="L7hDXbA97Ga44_9G7lfJ-813" style="edgeStyle=orthogonalEdgeStyle;rounded=1;orthogonalLoop=1;jettySize=auto;html=1;fontSize=16;fontFamily=Architects Daughter;sketch=1;hachureGap=4;jiggle=2;curveFitting=1;fontSource=https%3A%2F%2Ffonts.googleapis.com%2Fcss%3Ffamily%3DArchitects%2BDaughter;endFill=1;" parent="1" source="564" target="L7hDXbA97Ga44_9G7lfJ-807" edge="1">
                    <mxGeometry relative="1" as="geometry"/>
                </mxCell>
                <mxCell id="564" value="Page" style="swimlane;fontStyle=0;childLayout=stackLayout;horizontal=1;startSize=30;horizontalStack=0;resizeParent=1;resizeParentMax=0;resizeLast=0;collapsible=1;marginBottom=0;sketch=1;curveFitting=1;jiggle=2;" parent="1" vertex="1">
                    <mxGeometry x="2942" y="-2954" width="232" height="240" as="geometry"/>
                </mxCell>
                <mxCell id="565" value="PK&lt;uuid&gt; id&lt;varChar()&gt;" style="text;strokeColor=none;fillColor=none;align=left;verticalAlign=middle;spacingLeft=4;spacingRight=4;overflow=hidden;points=[[0,0.5],[1,0.5]];portConstraint=eastwest;rotatable=0;sketch=1;curveFitting=1;jiggle=2;" parent="564" vertex="1">
                    <mxGeometry y="30" width="232" height="30" as="geometry"/>
                </mxCell>
                <mxCell id="566" value="name &lt;varChar()&gt;" style="text;strokeColor=none;fillColor=none;align=left;verticalAlign=middle;spacingLeft=4;spacingRight=4;overflow=hidden;points=[[0,0.5],[1,0.5]];portConstraint=eastwest;rotatable=0;sketch=1;curveFitting=1;jiggle=2;" parent="564" vertex="1">
                    <mxGeometry y="60" width="232" height="30" as="geometry"/>
                </mxCell>
                <mxCell id="591" value="icon &lt;varChar()&gt;" style="text;strokeColor=none;fillColor=none;align=left;verticalAlign=middle;spacingLeft=4;spacingRight=4;overflow=hidden;points=[[0,0.5],[1,0.5]];portConstraint=eastwest;rotatable=0;sketch=1;curveFitting=1;jiggle=2;" parent="564" vertex="1">
                    <mxGeometry y="90" width="232" height="30" as="geometry"/>
                </mxCell>
                <mxCell id="588" value="router &lt;varChar()&gt;" style="text;strokeColor=none;fillColor=none;align=left;verticalAlign=middle;spacingLeft=4;spacingRight=4;overflow=hidden;points=[[0,0.5],[1,0.5]];portConstraint=eastwest;rotatable=0;sketch=1;curveFitting=1;jiggle=2;" parent="564" vertex="1">
                    <mxGeometry y="120" width="232" height="30" as="geometry"/>
                </mxCell>
                <mxCell id="569" value="criado_em&lt;timestamp&gt;" style="text;strokeColor=none;fillColor=none;align=left;verticalAlign=middle;spacingLeft=4;spacingRight=4;overflow=hidden;points=[[0,0.5],[1,0.5]];portConstraint=eastwest;rotatable=0;sketch=1;curveFitting=1;jiggle=2;" parent="564" vertex="1">
                    <mxGeometry y="150" width="232" height="30" as="geometry"/>
                </mxCell>
                <mxCell id="570" value="atualizado_por&lt;FK uuid&gt;" style="text;strokeColor=none;fillColor=none;align=left;verticalAlign=middle;spacingLeft=4;spacingRight=4;overflow=hidden;points=[[0,0.5],[1,0.5]];portConstraint=eastwest;rotatable=0;sketch=1;curveFitting=1;jiggle=2;" parent="564" vertex="1">
                    <mxGeometry y="180" width="232" height="30" as="geometry"/>
                </mxCell>
                <mxCell id="571" value="atualizado_em&lt;timestamp&gt;" style="text;strokeColor=none;fillColor=none;align=left;verticalAlign=middle;spacingLeft=4;spacingRight=4;overflow=hidden;points=[[0,0.5],[1,0.5]];portConstraint=eastwest;rotatable=0;sketch=1;curveFitting=1;jiggle=2;" parent="564" vertex="1">
                    <mxGeometry y="210" width="232" height="30" as="geometry"/>
                </mxCell>
                <mxCell id="596" value="&lt;font style=&quot;font-size: 32px&quot;&gt;Controle de acesso&lt;/font&gt;" style="text;html=1;strokeColor=none;fillColor=none;align=center;verticalAlign=middle;whiteSpace=wrap;rounded=0;sketch=1;curveFitting=1;jiggle=2;" parent="1" vertex="1">
                    <mxGeometry x="2557" y="-3083" width="312" height="70" as="geometry"/>
                </mxCell>
                <mxCell id="598" value="Address_People" style="swimlane;fontStyle=0;childLayout=stackLayout;horizontal=1;startSize=30;horizontalStack=0;resizeParent=1;resizeParentMax=0;resizeLast=0;collapsible=1;marginBottom=0;sketch=1;curveFitting=1;jiggle=2;" parent="1" vertex="1">
                    <mxGeometry x="-1283" y="-2968" width="245" height="90" as="geometry"/>
                </mxCell>
                <mxCell id="599" value="FK&lt;uuid&gt; address_id&lt;varChar()&gt;" style="text;strokeColor=none;fillColor=none;align=left;verticalAlign=middle;spacingLeft=4;spacingRight=4;overflow=hidden;points=[[0,0.5],[1,0.5]];portConstraint=eastwest;rotatable=0;sketch=1;curveFitting=1;jiggle=2;" parent="598" vertex="1">
                    <mxGeometry y="30" width="245" height="30" as="geometry"/>
                </mxCell>
                <mxCell id="600" value="FK&lt;uuid&gt; people_id&lt;varChar()&gt;" style="text;strokeColor=none;fillColor=none;align=left;verticalAlign=middle;spacingLeft=4;spacingRight=4;overflow=hidden;points=[[0,0.5],[1,0.5]];portConstraint=eastwest;rotatable=0;sketch=1;curveFitting=1;jiggle=2;" parent="598" vertex="1">
                    <mxGeometry y="60" width="245" height="30" as="geometry"/>
                </mxCell>
                <mxCell id="L7hDXbA97Ga44_9G7lfJ-752" style="edgeStyle=none;html=1;fontSize=16;fontFamily=Architects Daughter;sketch=1;hachureGap=4;jiggle=2;curveFitting=1;fontSource=https%3A%2F%2Ffonts.googleapis.com%2Fcss%3Ffamily%3DArchitects%2BDaughter;" parent="1" source="L7hDXbA97Ga44_9G7lfJ-753" target="L7hDXbA97Ga44_9G7lfJ-779" edge="1">
                    <mxGeometry relative="1" as="geometry"/>
                </mxCell>
                <mxCell id="L7hDXbA97Ga44_9G7lfJ-753" value="Term_of_consent_model" style="swimlane;fontStyle=0;childLayout=stackLayout;horizontal=1;startSize=30;horizontalStack=0;resizeParent=1;resizeParentMax=0;resizeLast=0;collapsible=1;marginBottom=0;sketch=1;curveFitting=1;jiggle=2;" parent="1" vertex="1">
                    <mxGeometry x="-1562" y="-2544" width="249" height="150" as="geometry"/>
                </mxCell>
                <mxCell id="L7hDXbA97Ga44_9G7lfJ-754" value="PK&lt;uuid&gt; term_model_id&lt;varChar&gt;" style="text;strokeColor=none;fillColor=none;align=left;verticalAlign=middle;spacingLeft=4;spacingRight=4;overflow=hidden;points=[[0,0.5],[1,0.5]];portConstraint=eastwest;rotatable=0;sketch=1;curveFitting=1;jiggle=2;" parent="L7hDXbA97Ga44_9G7lfJ-753" vertex="1">
                    <mxGeometry y="30" width="249" height="30" as="geometry"/>
                </mxCell>
                <mxCell id="L7hDXbA97Ga44_9G7lfJ-755" value="term_model_html&lt;varChar()&gt;" style="text;strokeColor=none;fillColor=none;align=left;verticalAlign=middle;spacingLeft=4;spacingRight=4;overflow=hidden;points=[[0,0.5],[1,0.5]];portConstraint=eastwest;rotatable=0;sketch=1;curveFitting=1;jiggle=2;" parent="L7hDXbA97Ga44_9G7lfJ-753" vertex="1">
                    <mxGeometry y="60" width="249" height="30" as="geometry"/>
                </mxCell>
                <mxCell id="L7hDXbA97Ga44_9G7lfJ-783" value="version&lt;varChar()&gt;" style="text;strokeColor=none;fillColor=none;align=left;verticalAlign=middle;spacingLeft=4;spacingRight=4;overflow=hidden;points=[[0,0.5],[1,0.5]];portConstraint=eastwest;rotatable=0;sketch=1;curveFitting=1;jiggle=2;" parent="L7hDXbA97Ga44_9G7lfJ-753" vertex="1">
                    <mxGeometry y="90" width="249" height="30" as="geometry"/>
                </mxCell>
                <mxCell id="L7hDXbA97Ga44_9G7lfJ-782" value="default&lt;boolean&gt;" style="text;strokeColor=none;fillColor=none;align=left;verticalAlign=middle;spacingLeft=4;spacingRight=4;overflow=hidden;points=[[0,0.5],[1,0.5]];portConstraint=eastwest;rotatable=0;sketch=1;curveFitting=1;jiggle=2;" parent="L7hDXbA97Ga44_9G7lfJ-753" vertex="1">
                    <mxGeometry y="120" width="249" height="30" as="geometry"/>
                </mxCell>
                <mxCell id="L7hDXbA97Ga44_9G7lfJ-762" style="edgeStyle=none;sketch=1;hachureGap=4;jiggle=2;curveFitting=1;html=1;fontFamily=Architects Daughter;fontSource=https%3A%2F%2Ffonts.googleapis.com%2Fcss%3Ffamily%3DArchitects%2BDaughter;fontSize=16;" parent="1" source="L7hDXbA97Ga44_9G7lfJ-763" target="L7hDXbA97Ga44_9G7lfJ-779" edge="1">
                    <mxGeometry relative="1" as="geometry"/>
                </mxCell>
                <mxCell id="L7hDXbA97Ga44_9G7lfJ-763" value="Term_of_consent" style="swimlane;fontStyle=0;childLayout=stackLayout;horizontal=1;startSize=30;horizontalStack=0;resizeParent=1;resizeParentMax=0;resizeLast=0;collapsible=1;marginBottom=0;sketch=1;curveFitting=1;jiggle=2;" parent="1" vertex="1">
                    <mxGeometry x="-1209.5" y="-2578" width="208" height="120" as="geometry"/>
                </mxCell>
                <mxCell id="L7hDXbA97Ga44_9G7lfJ-764" value="PK&lt;uuid&gt; term_id &lt;varChar()&gt;" style="text;strokeColor=none;fillColor=none;align=left;verticalAlign=middle;spacingLeft=4;spacingRight=4;overflow=hidden;points=[[0,0.5],[1,0.5]];portConstraint=eastwest;rotatable=0;sketch=1;curveFitting=1;jiggle=2;" parent="L7hDXbA97Ga44_9G7lfJ-763" vertex="1">
                    <mxGeometry y="30" width="208" height="30" as="geometry"/>
                </mxCell>
                <mxCell id="L7hDXbA97Ga44_9G7lfJ-785" value="term_html&lt;varChar()&gt;" style="text;strokeColor=none;fillColor=none;align=left;verticalAlign=middle;spacingLeft=4;spacingRight=4;overflow=hidden;points=[[0,0.5],[1,0.5]];portConstraint=eastwest;rotatable=0;sketch=1;curveFitting=1;jiggle=2;" parent="L7hDXbA97Ga44_9G7lfJ-763" vertex="1">
                    <mxGeometry y="60" width="208" height="30" as="geometry"/>
                </mxCell>
                <mxCell id="L7hDXbA97Ga44_9G7lfJ-784" value="term_of_consent&lt;byte[]&gt;" style="text;strokeColor=none;fillColor=none;align=left;verticalAlign=middle;spacingLeft=4;spacingRight=4;overflow=hidden;points=[[0,0.5],[1,0.5]];portConstraint=eastwest;rotatable=0;sketch=1;curveFitting=1;jiggle=2;" parent="L7hDXbA97Ga44_9G7lfJ-763" vertex="1">
                    <mxGeometry y="90" width="208" height="30" as="geometry"/>
                </mxCell>
                <mxCell id="L7hDXbA97Ga44_9G7lfJ-779" value="Term_model_term" style="swimlane;fontStyle=0;childLayout=stackLayout;horizontal=1;startSize=30;horizontalStack=0;resizeParent=1;resizeParentMax=0;resizeLast=0;collapsible=1;marginBottom=0;sketch=1;curveFitting=1;jiggle=2;" parent="1" vertex="1">
                    <mxGeometry x="-1420" y="-2343" width="245" height="90" as="geometry"/>
                </mxCell>
                <mxCell id="L7hDXbA97Ga44_9G7lfJ-780" value="FK&lt;uuid&gt; term_model_id&lt;varChar()&gt;" style="text;strokeColor=none;fillColor=none;align=left;verticalAlign=middle;spacingLeft=4;spacingRight=4;overflow=hidden;points=[[0,0.5],[1,0.5]];portConstraint=eastwest;rotatable=0;sketch=1;curveFitting=1;jiggle=2;" parent="L7hDXbA97Ga44_9G7lfJ-779" vertex="1">
                    <mxGeometry y="30" width="245" height="30" as="geometry"/>
                </mxCell>
                <mxCell id="L7hDXbA97Ga44_9G7lfJ-781" value="FK&lt;uuid&gt; term_id &lt;varChar()&gt;" style="text;strokeColor=none;fillColor=none;align=left;verticalAlign=middle;spacingLeft=4;spacingRight=4;overflow=hidden;points=[[0,0.5],[1,0.5]];portConstraint=eastwest;rotatable=0;sketch=1;curveFitting=1;jiggle=2;" parent="L7hDXbA97Ga44_9G7lfJ-779" vertex="1">
                    <mxGeometry y="60" width="245" height="30" as="geometry"/>
                </mxCell>
                <mxCell id="L7hDXbA97Ga44_9G7lfJ-790" style="edgeStyle=orthogonalEdgeStyle;rounded=1;orthogonalLoop=1;jettySize=auto;html=1;fontSize=16;fontFamily=Architects Daughter;sketch=1;hachureGap=4;jiggle=2;curveFitting=1;fontSource=https%3A%2F%2Ffonts.googleapis.com%2Fcss%3Ffamily%3DArchitects%2BDaughter;" parent="1" source="L7hDXbA97Ga44_9G7lfJ-786" target="L7hDXbA97Ga44_9G7lfJ-763" edge="1">
                    <mxGeometry relative="1" as="geometry"/>
                </mxCell>
                <mxCell id="L7hDXbA97Ga44_9G7lfJ-786" value="Term_People" style="swimlane;fontStyle=0;childLayout=stackLayout;horizontal=1;startSize=30;horizontalStack=0;resizeParent=1;resizeParentMax=0;resizeLast=0;collapsible=1;marginBottom=0;sketch=1;curveFitting=1;jiggle=2;" parent="1" vertex="1">
                    <mxGeometry x="-1053" y="-2716" width="245" height="90" as="geometry"/>
                </mxCell>
                <mxCell id="L7hDXbA97Ga44_9G7lfJ-787" value="FK&lt;uuid&gt; people_id&lt;varChar()&gt;" style="text;strokeColor=none;fillColor=none;align=left;verticalAlign=middle;spacingLeft=4;spacingRight=4;overflow=hidden;points=[[0,0.5],[1,0.5]];portConstraint=eastwest;rotatable=0;sketch=1;curveFitting=1;jiggle=2;" parent="L7hDXbA97Ga44_9G7lfJ-786" vertex="1">
                    <mxGeometry y="30" width="245" height="30" as="geometry"/>
                </mxCell>
                <mxCell id="L7hDXbA97Ga44_9G7lfJ-788" value="FK&lt;uuid&gt; term_id &lt;varChar()&gt;" style="text;strokeColor=none;fillColor=none;align=left;verticalAlign=middle;spacingLeft=4;spacingRight=4;overflow=hidden;points=[[0,0.5],[1,0.5]];portConstraint=eastwest;rotatable=0;sketch=1;curveFitting=1;jiggle=2;" parent="L7hDXbA97Ga44_9G7lfJ-786" vertex="1">
                    <mxGeometry y="60" width="245" height="30" as="geometry"/>
                </mxCell>
                <mxCell id="L7hDXbA97Ga44_9G7lfJ-789" style="edgeStyle=orthogonalEdgeStyle;rounded=1;orthogonalLoop=1;jettySize=auto;html=1;entryX=0.412;entryY=0.023;entryDx=0;entryDy=0;entryPerimeter=0;fontSize=16;fontFamily=Architects Daughter;sketch=1;hachureGap=4;jiggle=2;curveFitting=1;fontSource=https%3A%2F%2Ffonts.googleapis.com%2Fcss%3Ffamily%3DArchitects%2BDaughter;" parent="1" source="515" target="L7hDXbA97Ga44_9G7lfJ-786" edge="1">
                    <mxGeometry relative="1" as="geometry"/>
                </mxCell>
                <mxCell id="L7hDXbA97Ga44_9G7lfJ-791" value="User_Perfil" style="swimlane;fontStyle=0;childLayout=stackLayout;horizontal=1;startSize=30;horizontalStack=0;resizeParent=1;resizeParentMax=0;resizeLast=0;collapsible=1;marginBottom=0;sketch=1;curveFitting=1;jiggle=2;" parent="1" vertex="1">
                    <mxGeometry x="2286" y="-3231" width="233" height="90" as="geometry"/>
                </mxCell>
                <mxCell id="L7hDXbA97Ga44_9G7lfJ-792" value="FK&lt;uuid&gt; perfil_Id&lt;varChar()&gt;" style="text;strokeColor=none;fillColor=none;align=left;verticalAlign=middle;spacingLeft=4;spacingRight=4;overflow=hidden;points=[[0,0.5],[1,0.5]];portConstraint=eastwest;rotatable=0;sketch=1;curveFitting=1;jiggle=2;" parent="L7hDXbA97Ga44_9G7lfJ-791" vertex="1">
                    <mxGeometry y="30" width="233" height="30" as="geometry"/>
                </mxCell>
                <mxCell id="L7hDXbA97Ga44_9G7lfJ-793" value="FK&lt;uuid&gt; userId&lt;varChar()&gt;" style="text;strokeColor=none;fillColor=none;align=left;verticalAlign=middle;spacingLeft=4;spacingRight=4;overflow=hidden;points=[[0,0.5],[1,0.5]];portConstraint=eastwest;rotatable=0;sketch=1;curveFitting=1;jiggle=2;" parent="L7hDXbA97Ga44_9G7lfJ-791" vertex="1">
                    <mxGeometry y="60" width="233" height="30" as="geometry"/>
                </mxCell>
                <mxCell id="L7hDXbA97Ga44_9G7lfJ-812" style="edgeStyle=orthogonalEdgeStyle;rounded=1;orthogonalLoop=1;jettySize=auto;html=1;fontSize=16;fontFamily=Architects Daughter;sketch=1;hachureGap=4;jiggle=2;curveFitting=1;fontSource=https%3A%2F%2Ffonts.googleapis.com%2Fcss%3Ffamily%3DArchitects%2BDaughter;endFill=1;" parent="1" source="L7hDXbA97Ga44_9G7lfJ-798" target="L7hDXbA97Ga44_9G7lfJ-807" edge="1">
                    <mxGeometry relative="1" as="geometry"/>
                </mxCell>
                <mxCell id="L7hDXbA97Ga44_9G7lfJ-798" value="Perfil" style="swimlane;fontStyle=0;childLayout=stackLayout;horizontal=1;startSize=30;horizontalStack=0;resizeParent=1;resizeParentMax=0;resizeLast=0;collapsible=1;marginBottom=0;sketch=1;curveFitting=1;jiggle=2;" parent="1" vertex="1">
                    <mxGeometry x="2647" y="-3244" width="232" height="120" as="geometry"/>
                </mxCell>
                <mxCell id="L7hDXbA97Ga44_9G7lfJ-799" value="PK&lt;uuid&gt; id&lt;varChar()&gt;" style="text;strokeColor=none;fillColor=none;align=left;verticalAlign=middle;spacingLeft=4;spacingRight=4;overflow=hidden;points=[[0,0.5],[1,0.5]];portConstraint=eastwest;rotatable=0;sketch=1;curveFitting=1;jiggle=2;" parent="L7hDXbA97Ga44_9G7lfJ-798" vertex="1">
                    <mxGeometry y="30" width="232" height="30" as="geometry"/>
                </mxCell>
                <mxCell id="L7hDXbA97Ga44_9G7lfJ-800" value="name &lt;varChar()&gt;" style="text;strokeColor=none;fillColor=none;align=left;verticalAlign=middle;spacingLeft=4;spacingRight=4;overflow=hidden;points=[[0,0.5],[1,0.5]];portConstraint=eastwest;rotatable=0;sketch=1;curveFitting=1;jiggle=2;" parent="L7hDXbA97Ga44_9G7lfJ-798" vertex="1">
                    <mxGeometry y="60" width="232" height="30" as="geometry"/>
                </mxCell>
                <mxCell id="L7hDXbA97Ga44_9G7lfJ-801" value="typeUser&lt;ENUM()&gt;" style="text;strokeColor=none;fillColor=none;align=left;verticalAlign=middle;spacingLeft=4;spacingRight=4;overflow=hidden;points=[[0,0.5],[1,0.5]];portConstraint=eastwest;rotatable=0;sketch=1;curveFitting=1;jiggle=2;" parent="L7hDXbA97Ga44_9G7lfJ-798" vertex="1">
                    <mxGeometry y="90" width="232" height="30" as="geometry"/>
                </mxCell>
                <mxCell id="L7hDXbA97Ga44_9G7lfJ-807" value="User_Perfil" style="swimlane;fontStyle=0;childLayout=stackLayout;horizontal=1;startSize=30;horizontalStack=0;resizeParent=1;resizeParentMax=0;resizeLast=0;collapsible=1;marginBottom=0;sketch=1;curveFitting=1;jiggle=2;" parent="1" vertex="1">
                    <mxGeometry x="2942" y="-3304" width="233" height="240" as="geometry"/>
                </mxCell>
                <mxCell id="L7hDXbA97Ga44_9G7lfJ-808" value="FK&lt;uuid&gt; perfil_Id&lt;varChar()&gt;" style="text;strokeColor=none;fillColor=none;align=left;verticalAlign=middle;spacingLeft=4;spacingRight=4;overflow=hidden;points=[[0,0.5],[1,0.5]];portConstraint=eastwest;rotatable=0;sketch=1;curveFitting=1;jiggle=2;" parent="L7hDXbA97Ga44_9G7lfJ-807" vertex="1">
                    <mxGeometry y="30" width="233" height="30" as="geometry"/>
                </mxCell>
                <mxCell id="L7hDXbA97Ga44_9G7lfJ-809" value="FK&lt;uuid&gt; userId&lt;varChar()&gt;" style="text;strokeColor=none;fillColor=none;align=left;verticalAlign=middle;spacingLeft=4;spacingRight=4;overflow=hidden;points=[[0,0.5],[1,0.5]];portConstraint=eastwest;rotatable=0;sketch=1;curveFitting=1;jiggle=2;" parent="L7hDXbA97Ga44_9G7lfJ-807" vertex="1">
                    <mxGeometry y="60" width="233" height="30" as="geometry"/>
                </mxCell>
                <mxCell id="832" value="is_read&lt;boolean()&gt;" style="text;strokeColor=none;fillColor=none;align=left;verticalAlign=middle;spacingLeft=4;spacingRight=4;overflow=hidden;points=[[0,0.5],[1,0.5]];portConstraint=eastwest;rotatable=0;sketch=1;curveFitting=1;jiggle=2;" vertex="1" parent="L7hDXbA97Ga44_9G7lfJ-807">
                    <mxGeometry y="90" width="233" height="30" as="geometry"/>
                </mxCell>
                <mxCell id="833" value="is_created&lt;boolean()&gt;" style="text;strokeColor=none;fillColor=none;align=left;verticalAlign=middle;spacingLeft=4;spacingRight=4;overflow=hidden;points=[[0,0.5],[1,0.5]];portConstraint=eastwest;rotatable=0;sketch=1;curveFitting=1;jiggle=2;" vertex="1" parent="L7hDXbA97Ga44_9G7lfJ-807">
                    <mxGeometry y="120" width="233" height="30" as="geometry"/>
                </mxCell>
                <mxCell id="834" value="is_update&lt;boolean()&gt;" style="text;strokeColor=none;fillColor=none;align=left;verticalAlign=middle;spacingLeft=4;spacingRight=4;overflow=hidden;points=[[0,0.5],[1,0.5]];portConstraint=eastwest;rotatable=0;sketch=1;curveFitting=1;jiggle=2;" vertex="1" parent="L7hDXbA97Ga44_9G7lfJ-807">
                    <mxGeometry y="150" width="233" height="30" as="geometry"/>
                </mxCell>
                <mxCell id="835" value="is_delete&lt;boolean()&gt;" style="text;strokeColor=none;fillColor=none;align=left;verticalAlign=middle;spacingLeft=4;spacingRight=4;overflow=hidden;points=[[0,0.5],[1,0.5]];portConstraint=eastwest;rotatable=0;sketch=1;curveFitting=1;jiggle=2;" vertex="1" parent="L7hDXbA97Ga44_9G7lfJ-807">
                    <mxGeometry y="180" width="233" height="30" as="geometry"/>
                </mxCell>
                <mxCell id="836" value="filter&lt;VarChar()&gt;" style="text;strokeColor=none;fillColor=none;align=left;verticalAlign=middle;spacingLeft=4;spacingRight=4;overflow=hidden;points=[[0,0.5],[1,0.5]];portConstraint=eastwest;rotatable=0;sketch=1;curveFitting=1;jiggle=2;" vertex="1" parent="L7hDXbA97Ga44_9G7lfJ-807">
                    <mxGeometry y="210" width="233" height="30" as="geometry"/>
                </mxCell>
                <mxCell id="L7hDXbA97Ga44_9G7lfJ-815" style="edgeStyle=orthogonalEdgeStyle;rounded=1;orthogonalLoop=1;jettySize=auto;html=1;fontSize=16;fontFamily=Architects Daughter;sketch=1;hachureGap=4;jiggle=2;curveFitting=1;fontSource=https%3A%2F%2Ffonts.googleapis.com%2Fcss%3Ffamily%3DArchitects%2BDaughter;endFill=1;" parent="1" source="L7hDXbA97Ga44_9G7lfJ-799" target="L7hDXbA97Ga44_9G7lfJ-791" edge="1">
                    <mxGeometry relative="1" as="geometry"/>
                </mxCell>
                <mxCell id="693" style="edgeStyle=none;html=1;entryX=0.459;entryY=-0.009;entryDx=0;entryDy=0;entryPerimeter=0;endArrow=block;endFill=1;sketch=1;curveFitting=1;jiggle=2;" edge="1" parent="1" source="695" target="723">
                    <mxGeometry relative="1" as="geometry">
                        <Array as="points"/>
                    </mxGeometry>
                </mxCell>
                <mxCell id="694" style="edgeStyle=none;html=1;entryX=0.469;entryY=1.041;entryDx=0;entryDy=0;entryPerimeter=0;endArrow=block;endFill=1;sketch=1;curveFitting=1;jiggle=2;" edge="1" parent="1" source="695" target="744">
                    <mxGeometry relative="1" as="geometry"/>
                </mxCell>
                <mxCell id="695" value="Discipline" style="swimlane;fontStyle=0;childLayout=stackLayout;horizontal=1;startSize=30;horizontalStack=0;resizeParent=1;resizeParentMax=0;resizeLast=0;collapsible=1;marginBottom=0;sketch=1;curveFitting=1;jiggle=2;" vertex="1" parent="1">
                    <mxGeometry x="1378" y="-3599" width="232" height="240" as="geometry"/>
                </mxCell>
                <mxCell id="696" value="PK&lt;uuid&gt; id&lt;varChar()&gt;" style="text;strokeColor=none;fillColor=none;align=left;verticalAlign=middle;spacingLeft=4;spacingRight=4;overflow=hidden;points=[[0,0.5],[1,0.5]];portConstraint=eastwest;rotatable=0;sketch=1;curveFitting=1;jiggle=2;" vertex="1" parent="695">
                    <mxGeometry y="30" width="232" height="30" as="geometry"/>
                </mxCell>
                <mxCell id="697" value="CodeDiscipline &lt;varChar()&gt;" style="text;strokeColor=none;fillColor=none;align=left;verticalAlign=middle;spacingLeft=4;spacingRight=4;overflow=hidden;points=[[0,0.5],[1,0.5]];portConstraint=eastwest;rotatable=0;sketch=1;curveFitting=1;jiggle=2;" vertex="1" parent="695">
                    <mxGeometry y="60" width="232" height="30" as="geometry"/>
                </mxCell>
                <mxCell id="698" value="nameDiscipline &lt;varChar()&gt;" style="text;strokeColor=none;fillColor=none;align=left;verticalAlign=middle;spacingLeft=4;spacingRight=4;overflow=hidden;points=[[0,0.5],[1,0.5]];portConstraint=eastwest;rotatable=0;sketch=1;curveFitting=1;jiggle=2;" vertex="1" parent="695">
                    <mxGeometry y="90" width="232" height="30" as="geometry"/>
                </mxCell>
                <mxCell id="699" value="availability FK&lt;uuid&gt;" style="text;strokeColor=none;fillColor=none;align=left;verticalAlign=middle;spacingLeft=4;spacingRight=4;overflow=hidden;points=[[0,0.5],[1,0.5]];portConstraint=eastwest;rotatable=0;sketch=1;curveFitting=1;jiggle=2;" vertex="1" parent="695">
                    <mxGeometry y="120" width="232" height="30" as="geometry"/>
                </mxCell>
                <mxCell id="700" value="criado_em&lt;timestamp&gt;" style="text;strokeColor=none;fillColor=none;align=left;verticalAlign=middle;spacingLeft=4;spacingRight=4;overflow=hidden;points=[[0,0.5],[1,0.5]];portConstraint=eastwest;rotatable=0;sketch=1;curveFitting=1;jiggle=2;" vertex="1" parent="695">
                    <mxGeometry y="150" width="232" height="30" as="geometry"/>
                </mxCell>
                <mxCell id="701" value="atualizado_por&lt;FK uuid&gt;" style="text;strokeColor=none;fillColor=none;align=left;verticalAlign=middle;spacingLeft=4;spacingRight=4;overflow=hidden;points=[[0,0.5],[1,0.5]];portConstraint=eastwest;rotatable=0;sketch=1;curveFitting=1;jiggle=2;" vertex="1" parent="695">
                    <mxGeometry y="180" width="232" height="30" as="geometry"/>
                </mxCell>
                <mxCell id="702" value="atualizado_em&lt;timestamp&gt;" style="text;strokeColor=none;fillColor=none;align=left;verticalAlign=middle;spacingLeft=4;spacingRight=4;overflow=hidden;points=[[0,0.5],[1,0.5]];portConstraint=eastwest;rotatable=0;sketch=1;curveFitting=1;jiggle=2;" vertex="1" parent="695">
                    <mxGeometry y="210" width="232" height="30" as="geometry"/>
                </mxCell>
                <mxCell id="703" style="edgeStyle=none;html=1;endArrow=block;endFill=1;fontSize=11;fontFamily=Helvetica;sketch=1;hachureGap=4;jiggle=2;curveFitting=1;fontSource=https%3A%2F%2Ffonts.googleapis.com%2Fcss%3Ffamily%3DArchitects%2BDaughter;" edge="1" parent="1" source="705" target="723">
                    <mxGeometry relative="1" as="geometry">
                        <Array as="points">
                            <mxPoint x="1774" y="-3189"/>
                            <mxPoint x="1774" y="-3158"/>
                        </Array>
                    </mxGeometry>
                </mxCell>
                <mxCell id="831" style="edgeStyle=none;html=1;endArrow=block;endFill=1;sketch=1;hachureGap=4;jiggle=2;curveFitting=1;fontSource=https%3A%2F%2Ffonts.googleapis.com%2Fcss%3Ffamily%3DArchitects%2BDaughter;" edge="1" parent="1" source="705" target="L7hDXbA97Ga44_9G7lfJ-791">
                    <mxGeometry relative="1" as="geometry"/>
                </mxCell>
                <mxCell id="705" value="User" style="swimlane;fontStyle=0;childLayout=stackLayout;horizontal=1;startSize=30;horizontalStack=0;resizeParent=1;resizeParentMax=0;resizeLast=0;collapsible=1;marginBottom=0;sketch=1;curveFitting=1;jiggle=2;" vertex="1" parent="1">
                    <mxGeometry x="1903" y="-3329" width="233" height="270" as="geometry"/>
                </mxCell>
                <mxCell id="706" value="PK&lt;uuid&gt; id&lt;varChar()&gt;" style="text;strokeColor=none;fillColor=none;align=left;verticalAlign=middle;spacingLeft=4;spacingRight=4;overflow=hidden;points=[[0,0.5],[1,0.5]];portConstraint=eastwest;rotatable=0;sketch=1;curveFitting=1;jiggle=2;" vertex="1" parent="705">
                    <mxGeometry y="30" width="233" height="30" as="geometry"/>
                </mxCell>
                <mxCell id="707" value="name&lt;VarChar(100)&gt;" style="text;strokeColor=none;fillColor=none;align=left;verticalAlign=middle;spacingLeft=4;spacingRight=4;overflow=hidden;points=[[0,0.5],[1,0.5]];portConstraint=eastwest;rotatable=0;sketch=1;curveFitting=1;jiggle=2;" vertex="1" parent="705">
                    <mxGeometry y="60" width="233" height="30" as="geometry"/>
                </mxCell>
                <mxCell id="708" value="email&lt;varChar(100)&gt;" style="text;strokeColor=none;fillColor=none;align=left;verticalAlign=middle;spacingLeft=4;spacingRight=4;overflow=hidden;points=[[0,0.5],[1,0.5]];portConstraint=eastwest;rotatable=0;sketch=1;curveFitting=1;jiggle=2;" vertex="1" parent="705">
                    <mxGeometry y="90" width="233" height="30" as="geometry"/>
                </mxCell>
                <mxCell id="709" value="ru&lt;varChar()&gt;" style="text;strokeColor=none;fillColor=none;align=left;verticalAlign=middle;spacingLeft=4;spacingRight=4;overflow=hidden;points=[[0,0.5],[1,0.5]];portConstraint=eastwest;rotatable=0;sketch=1;curveFitting=1;jiggle=2;" vertex="1" parent="705">
                    <mxGeometry y="120" width="233" height="30" as="geometry"/>
                </mxCell>
                <mxCell id="710" value="pass_word&lt;varChar()&gt;" style="text;strokeColor=none;fillColor=none;align=left;verticalAlign=middle;spacingLeft=4;spacingRight=4;overflow=hidden;points=[[0,0.5],[1,0.5]];portConstraint=eastwest;rotatable=0;sketch=1;curveFitting=1;jiggle=2;" vertex="1" parent="705">
                    <mxGeometry y="150" width="233" height="30" as="geometry"/>
                </mxCell>
                <mxCell id="711" value="criado_em&lt;timestamp&gt;" style="text;strokeColor=none;fillColor=none;align=left;verticalAlign=middle;spacingLeft=4;spacingRight=4;overflow=hidden;points=[[0,0.5],[1,0.5]];portConstraint=eastwest;rotatable=0;sketch=1;curveFitting=1;jiggle=2;" vertex="1" parent="705">
                    <mxGeometry y="180" width="233" height="30" as="geometry"/>
                </mxCell>
                <mxCell id="712" value="atualizado_em&lt;timestamp&gt;" style="text;strokeColor=none;fillColor=none;align=left;verticalAlign=middle;spacingLeft=4;spacingRight=4;overflow=hidden;points=[[0,0.5],[1,0.5]];portConstraint=eastwest;rotatable=0;sketch=1;curveFitting=1;jiggle=2;" vertex="1" parent="705">
                    <mxGeometry y="210" width="233" height="30" as="geometry"/>
                </mxCell>
                <mxCell id="713" value="atualizado_por&lt;FK uuid&gt;" style="text;strokeColor=none;fillColor=none;align=left;verticalAlign=middle;spacingLeft=4;spacingRight=4;overflow=hidden;points=[[0,0.5],[1,0.5]];portConstraint=eastwest;rotatable=0;sketch=1;curveFitting=1;jiggle=2;" vertex="1" parent="705">
                    <mxGeometry y="240" width="233" height="30" as="geometry"/>
                </mxCell>
                <mxCell id="715" value="&lt;font style=&quot;font-size: 32px&quot;&gt;Criar Usuário&lt;/font&gt;" style="text;html=1;strokeColor=none;fillColor=none;align=center;verticalAlign=middle;whiteSpace=wrap;rounded=0;sketch=1;curveFitting=1;jiggle=2;" vertex="1" parent="1">
                    <mxGeometry x="1647" y="-3306" width="271" height="70" as="geometry"/>
                </mxCell>
                <mxCell id="716" style="edgeStyle=none;html=1;endArrow=block;endFill=1;sketch=1;curveFitting=1;jiggle=2;" edge="1" parent="1" source="717" target="782">
                    <mxGeometry relative="1" as="geometry">
                        <Array as="points">
                            <mxPoint x="173" y="-2893"/>
                        </Array>
                    </mxGeometry>
                </mxCell>
                <mxCell id="717" value="Patient_tratamento" style="swimlane;fontStyle=0;childLayout=stackLayout;horizontal=1;startSize=30;horizontalStack=0;resizeParent=1;resizeParentMax=0;resizeLast=0;collapsible=1;marginBottom=0;sketch=1;curveFitting=1;jiggle=2;" vertex="1" parent="1">
                    <mxGeometry x="-142" y="-2931" width="245" height="90" as="geometry"/>
                </mxCell>
                <mxCell id="718" value="FK&lt;uuid&gt; patient_id&lt;varChar()&gt;" style="text;strokeColor=none;fillColor=none;align=left;verticalAlign=middle;spacingLeft=4;spacingRight=4;overflow=hidden;points=[[0,0.5],[1,0.5]];portConstraint=eastwest;rotatable=0;sketch=1;curveFitting=1;jiggle=2;" vertex="1" parent="717">
                    <mxGeometry y="30" width="245" height="30" as="geometry"/>
                </mxCell>
                <mxCell id="719" value="FK&lt;uuid&gt; tratamento_id&lt;varChar()&gt;" style="text;strokeColor=none;fillColor=none;align=left;verticalAlign=middle;spacingLeft=4;spacingRight=4;overflow=hidden;points=[[0,0.5],[1,0.5]];portConstraint=eastwest;rotatable=0;sketch=1;curveFitting=1;jiggle=2;" vertex="1" parent="717">
                    <mxGeometry y="60" width="245" height="30" as="geometry"/>
                </mxCell>
                <mxCell id="723" value="User_Discipline" style="swimlane;fontStyle=0;childLayout=stackLayout;horizontal=1;startSize=30;horizontalStack=0;resizeParent=1;resizeParentMax=0;resizeLast=0;collapsible=1;marginBottom=0;sketch=1;curveFitting=1;jiggle=2;" vertex="1" parent="1">
                    <mxGeometry x="1390" y="-3207" width="233" height="180" as="geometry"/>
                </mxCell>
                <mxCell id="724" value="FK&lt;uuid&gt; disciplineId&lt;varChar()&gt;" style="text;strokeColor=none;fillColor=none;align=left;verticalAlign=middle;spacingLeft=4;spacingRight=4;overflow=hidden;points=[[0,0.5],[1,0.5]];portConstraint=eastwest;rotatable=0;sketch=1;curveFitting=1;jiggle=2;" vertex="1" parent="723">
                    <mxGeometry y="30" width="233" height="30" as="geometry"/>
                </mxCell>
                <mxCell id="725" value="FK&lt;uuid&gt; userId&lt;varChar()&gt;" style="text;strokeColor=none;fillColor=none;align=left;verticalAlign=middle;spacingLeft=4;spacingRight=4;overflow=hidden;points=[[0,0.5],[1,0.5]];portConstraint=eastwest;rotatable=0;sketch=1;curveFitting=1;jiggle=2;" vertex="1" parent="723">
                    <mxGeometry y="60" width="233" height="30" as="geometry"/>
                </mxCell>
                <mxCell id="726" value="semester &lt;number&gt;" style="text;strokeColor=none;fillColor=none;align=left;verticalAlign=middle;spacingLeft=4;spacingRight=4;overflow=hidden;points=[[0,0.5],[1,0.5]];portConstraint=eastwest;rotatable=0;sketch=1;curveFitting=1;jiggle=2;" vertex="1" parent="723">
                    <mxGeometry y="90" width="233" height="30" as="geometry"/>
                </mxCell>
                <mxCell id="727" value="year &lt;number&gt;" style="text;strokeColor=none;fillColor=none;align=left;verticalAlign=middle;spacingLeft=4;spacingRight=4;overflow=hidden;points=[[0,0.5],[1,0.5]];portConstraint=eastwest;rotatable=0;sketch=1;curveFitting=1;jiggle=2;" vertex="1" parent="723">
                    <mxGeometry y="120" width="233" height="30" as="geometry"/>
                </mxCell>
                <mxCell id="728" value="active &lt;boolean&gt;" style="text;strokeColor=none;fillColor=none;align=left;verticalAlign=middle;spacingLeft=4;spacingRight=4;overflow=hidden;points=[[0,0.5],[1,0.5]];portConstraint=eastwest;rotatable=0;sketch=1;curveFitting=1;jiggle=2;" vertex="1" parent="723">
                    <mxGeometry y="150" width="233" height="30" as="geometry"/>
                </mxCell>
                <mxCell id="729" style="edgeStyle=none;html=1;" edge="1" parent="1" source="730" target="745">
                    <mxGeometry relative="1" as="geometry"/>
                </mxCell>
                <mxCell id="730" value="service" style="swimlane;fontStyle=0;childLayout=stackLayout;horizontal=1;startSize=30;horizontalStack=0;resizeParent=1;resizeParentMax=0;resizeLast=0;collapsible=1;marginBottom=0;sketch=1;curveFitting=1;jiggle=2;" vertex="1" parent="1">
                    <mxGeometry x="1008" y="-3888" width="232" height="330" as="geometry"/>
                </mxCell>
                <mxCell id="731" value="PK&lt;uuid&gt; id&lt;varChar()&gt;" style="text;strokeColor=none;fillColor=none;align=left;verticalAlign=middle;spacingLeft=4;spacingRight=4;overflow=hidden;points=[[0,0.5],[1,0.5]];portConstraint=eastwest;rotatable=0;sketch=1;curveFitting=1;jiggle=2;" vertex="1" parent="730">
                    <mxGeometry y="30" width="232" height="30" as="geometry"/>
                </mxCell>
                <mxCell id="732" value="name &lt;varChar()&gt;" style="text;strokeColor=none;fillColor=none;align=left;verticalAlign=middle;spacingLeft=4;spacingRight=4;overflow=hidden;points=[[0,0.5],[1,0.5]];portConstraint=eastwest;rotatable=0;sketch=1;curveFitting=1;jiggle=2;" vertex="1" parent="730">
                    <mxGeometry y="60" width="232" height="30" as="geometry"/>
                </mxCell>
                <mxCell id="733" value="description &lt;varChar()&gt;" style="text;strokeColor=none;fillColor=none;align=left;verticalAlign=middle;spacingLeft=4;spacingRight=4;overflow=hidden;points=[[0,0.5],[1,0.5]];portConstraint=eastwest;rotatable=0;sketch=1;curveFitting=1;jiggle=2;" vertex="1" parent="730">
                    <mxGeometry y="90" width="232" height="30" as="geometry"/>
                </mxCell>
                <mxCell id="734" value="pricing &lt;double()&gt;" style="text;strokeColor=none;fillColor=none;align=left;verticalAlign=middle;spacingLeft=4;spacingRight=4;overflow=hidden;points=[[0,0.5],[1,0.5]];portConstraint=eastwest;rotatable=0;sketch=1;curveFitting=1;jiggle=2;" vertex="1" parent="730">
                    <mxGeometry y="120" width="232" height="30" as="geometry"/>
                </mxCell>
                <mxCell id="735" value="Ext &lt;boolean()&gt;" style="text;strokeColor=none;fillColor=none;align=left;verticalAlign=middle;spacingLeft=4;spacingRight=4;overflow=hidden;points=[[0,0.5],[1,0.5]];portConstraint=eastwest;rotatable=0;sketch=1;curveFitting=1;jiggle=2;" vertex="1" parent="730">
                    <mxGeometry y="150" width="232" height="30" as="geometry"/>
                </mxCell>
                <mxCell id="736" value="tempoMediodeConsulta &lt;boolean()&gt;" style="text;strokeColor=none;fillColor=none;align=left;verticalAlign=middle;spacingLeft=4;spacingRight=4;overflow=hidden;points=[[0,0.5],[1,0.5]];portConstraint=eastwest;rotatable=0;sketch=1;curveFitting=1;jiggle=2;" vertex="1" parent="730">
                    <mxGeometry y="180" width="232" height="30" as="geometry"/>
                </mxCell>
                <mxCell id="737" value="ativarTempoMedioAutomaticamente&lt;boolean()&gt;" style="text;strokeColor=none;fillColor=none;align=left;verticalAlign=middle;spacingLeft=4;spacingRight=4;overflow=hidden;points=[[0,0.5],[1,0.5]];portConstraint=eastwest;rotatable=0;sketch=1;curveFitting=1;jiggle=2;" vertex="1" parent="730">
                    <mxGeometry y="210" width="232" height="30" as="geometry"/>
                </mxCell>
                <mxCell id="738" value="criado_em&lt;timestamp&gt;" style="text;strokeColor=none;fillColor=none;align=left;verticalAlign=middle;spacingLeft=4;spacingRight=4;overflow=hidden;points=[[0,0.5],[1,0.5]];portConstraint=eastwest;rotatable=0;sketch=1;curveFitting=1;jiggle=2;" vertex="1" parent="730">
                    <mxGeometry y="240" width="232" height="30" as="geometry"/>
                </mxCell>
                <mxCell id="739" value="atualizado_por&lt;FK uuid&gt;" style="text;strokeColor=none;fillColor=none;align=left;verticalAlign=middle;spacingLeft=4;spacingRight=4;overflow=hidden;points=[[0,0.5],[1,0.5]];portConstraint=eastwest;rotatable=0;sketch=1;curveFitting=1;jiggle=2;" vertex="1" parent="730">
                    <mxGeometry y="270" width="232" height="30" as="geometry"/>
                </mxCell>
                <mxCell id="740" value="atualizado_em&lt;timestamp&gt;" style="text;strokeColor=none;fillColor=none;align=left;verticalAlign=middle;spacingLeft=4;spacingRight=4;overflow=hidden;points=[[0,0.5],[1,0.5]];portConstraint=eastwest;rotatable=0;sketch=1;curveFitting=1;jiggle=2;" vertex="1" parent="730">
                    <mxGeometry y="300" width="232" height="30" as="geometry"/>
                </mxCell>
                <mxCell id="741" style="edgeStyle=none;html=1;endArrow=block;endFill=1;sketch=1;curveFitting=1;jiggle=2;" edge="1" parent="1" source="742" target="730">
                    <mxGeometry relative="1" as="geometry"/>
                </mxCell>
                <mxCell id="742" value="Discipline_ service" style="swimlane;fontStyle=0;childLayout=stackLayout;horizontal=1;startSize=30;horizontalStack=0;resizeParent=1;resizeParentMax=0;resizeLast=0;collapsible=1;marginBottom=0;sketch=1;curveFitting=1;jiggle=2;" vertex="1" parent="1">
                    <mxGeometry x="1385" y="-3769" width="233" height="90" as="geometry"/>
                </mxCell>
                <mxCell id="743" value="FK&lt;uuid&gt; disciplineId&lt;varChar()&gt;" style="text;strokeColor=none;fillColor=none;align=left;verticalAlign=middle;spacingLeft=4;spacingRight=4;overflow=hidden;points=[[0,0.5],[1,0.5]];portConstraint=eastwest;rotatable=0;sketch=1;curveFitting=1;jiggle=2;" vertex="1" parent="742">
                    <mxGeometry y="30" width="233" height="30" as="geometry"/>
                </mxCell>
                <mxCell id="744" value="FK&lt;uuid&gt; userId&lt;varChar()&gt;" style="text;strokeColor=none;fillColor=none;align=left;verticalAlign=middle;spacingLeft=4;spacingRight=4;overflow=hidden;points=[[0,0.5],[1,0.5]];portConstraint=eastwest;rotatable=0;sketch=1;curveFitting=1;jiggle=2;" vertex="1" parent="742">
                    <mxGeometry y="60" width="233" height="30" as="geometry"/>
                </mxCell>
                <mxCell id="745" value="Service_ Availability" style="swimlane;fontStyle=0;childLayout=stackLayout;horizontal=1;startSize=30;horizontalStack=0;resizeParent=1;resizeParentMax=0;resizeLast=0;collapsible=1;marginBottom=0;sketch=1;curveFitting=1;jiggle=2;" vertex="1" parent="1">
                    <mxGeometry x="1002" y="-3491" width="233" height="90" as="geometry"/>
                </mxCell>
                <mxCell id="746" value="FK&lt;uuid&gt; disciplineId&lt;varChar()&gt;" style="text;strokeColor=none;fillColor=none;align=left;verticalAlign=middle;spacingLeft=4;spacingRight=4;overflow=hidden;points=[[0,0.5],[1,0.5]];portConstraint=eastwest;rotatable=0;sketch=1;curveFitting=1;jiggle=2;" vertex="1" parent="745">
                    <mxGeometry y="30" width="233" height="30" as="geometry"/>
                </mxCell>
                <mxCell id="747" value="FK&lt;uuid&gt; userId&lt;varChar()&gt;" style="text;strokeColor=none;fillColor=none;align=left;verticalAlign=middle;spacingLeft=4;spacingRight=4;overflow=hidden;points=[[0,0.5],[1,0.5]];portConstraint=eastwest;rotatable=0;sketch=1;curveFitting=1;jiggle=2;" vertex="1" parent="745">
                    <mxGeometry y="60" width="233" height="30" as="geometry"/>
                </mxCell>
                <mxCell id="748" style="edgeStyle=none;html=1;" edge="1" parent="1" source="749" target="745">
                    <mxGeometry relative="1" as="geometry"/>
                </mxCell>
                <mxCell id="749" value="Availability" style="swimlane;fontStyle=0;childLayout=stackLayout;horizontal=1;startSize=30;horizontalStack=0;resizeParent=1;resizeParentMax=0;resizeLast=0;collapsible=1;marginBottom=0;sketch=1;curveFitting=1;jiggle=2;" vertex="1" parent="1">
                    <mxGeometry x="998" y="-3290" width="232" height="240" as="geometry"/>
                </mxCell>
                <mxCell id="750" value="PK&lt;uuid&gt; id&lt;varChar()&gt;" style="text;strokeColor=none;fillColor=none;align=left;verticalAlign=middle;spacingLeft=4;spacingRight=4;overflow=hidden;points=[[0,0.5],[1,0.5]];portConstraint=eastwest;rotatable=0;sketch=1;curveFitting=1;jiggle=2;" vertex="1" parent="749">
                    <mxGeometry y="30" width="232" height="30" as="geometry"/>
                </mxCell>
                <mxCell id="751" value="dayWeek &lt;enum&gt;" style="text;strokeColor=none;fillColor=none;align=left;verticalAlign=middle;spacingLeft=4;spacingRight=4;overflow=hidden;points=[[0,0.5],[1,0.5]];portConstraint=eastwest;rotatable=0;sketch=1;curveFitting=1;jiggle=2;" vertex="1" parent="749">
                    <mxGeometry y="60" width="232" height="30" as="geometry"/>
                </mxCell>
                <mxCell id="752" value="initHour &lt;Time&gt;" style="text;strokeColor=none;fillColor=none;align=left;verticalAlign=middle;spacingLeft=4;spacingRight=4;overflow=hidden;points=[[0,0.5],[1,0.5]];portConstraint=eastwest;rotatable=0;sketch=1;curveFitting=1;jiggle=2;" vertex="1" parent="749">
                    <mxGeometry y="90" width="232" height="30" as="geometry"/>
                </mxCell>
                <mxCell id="753" value="endHour &lt;Time&gt;" style="text;strokeColor=none;fillColor=none;align=left;verticalAlign=middle;spacingLeft=4;spacingRight=4;overflow=hidden;points=[[0,0.5],[1,0.5]];portConstraint=eastwest;rotatable=0;sketch=1;curveFitting=1;jiggle=2;" vertex="1" parent="749">
                    <mxGeometry y="120" width="232" height="30" as="geometry"/>
                </mxCell>
                <mxCell id="754" value="criado_em&lt;timestamp&gt;" style="text;strokeColor=none;fillColor=none;align=left;verticalAlign=middle;spacingLeft=4;spacingRight=4;overflow=hidden;points=[[0,0.5],[1,0.5]];portConstraint=eastwest;rotatable=0;sketch=1;curveFitting=1;jiggle=2;" vertex="1" parent="749">
                    <mxGeometry y="150" width="232" height="30" as="geometry"/>
                </mxCell>
                <mxCell id="755" value="atualizado_por&lt;FK uuid&gt;" style="text;strokeColor=none;fillColor=none;align=left;verticalAlign=middle;spacingLeft=4;spacingRight=4;overflow=hidden;points=[[0,0.5],[1,0.5]];portConstraint=eastwest;rotatable=0;sketch=1;curveFitting=1;jiggle=2;" vertex="1" parent="749">
                    <mxGeometry y="180" width="232" height="30" as="geometry"/>
                </mxCell>
                <mxCell id="756" value="atualizado_em&lt;timestamp&gt;" style="text;strokeColor=none;fillColor=none;align=left;verticalAlign=middle;spacingLeft=4;spacingRight=4;overflow=hidden;points=[[0,0.5],[1,0.5]];portConstraint=eastwest;rotatable=0;sketch=1;curveFitting=1;jiggle=2;" vertex="1" parent="749">
                    <mxGeometry y="210" width="232" height="30" as="geometry"/>
                </mxCell>
                <mxCell id="757" value="Finance_item" style="swimlane;fontStyle=0;childLayout=stackLayout;horizontal=1;startSize=30;horizontalStack=0;resizeParent=1;resizeParentMax=0;resizeLast=0;collapsible=1;marginBottom=0;sketch=1;curveFitting=1;jiggle=2;" vertex="1" parent="1">
                    <mxGeometry x="994" y="-2682" width="233" height="720" as="geometry"/>
                </mxCell>
                <mxCell id="758" value="PK&lt;uuid&gt; id&lt;varChar()&gt;" style="text;strokeColor=none;fillColor=none;align=left;verticalAlign=middle;spacingLeft=4;spacingRight=4;overflow=hidden;points=[[0,0.5],[1,0.5]];portConstraint=eastwest;rotatable=0;sketch=1;curveFitting=1;jiggle=2;" vertex="1" parent="757">
                    <mxGeometry y="30" width="233" height="30" as="geometry"/>
                </mxCell>
                <mxCell id="759" value="FK&lt;uuid&gt; schedule_id&lt;varChar()&gt;" style="text;strokeColor=none;fillColor=none;align=left;verticalAlign=middle;spacingLeft=4;spacingRight=4;overflow=hidden;points=[[0,0.5],[1,0.5]];portConstraint=eastwest;rotatable=0;sketch=1;curveFitting=1;jiggle=2;" vertex="1" parent="757">
                    <mxGeometry y="60" width="233" height="30" as="geometry"/>
                </mxCell>
                <mxCell id="760" value="quemPaga&lt;Enum()&gt;" style="text;strokeColor=none;fillColor=none;align=left;verticalAlign=middle;spacingLeft=4;spacingRight=4;overflow=hidden;points=[[0,0.5],[1,0.5]];portConstraint=eastwest;rotatable=0;sketch=1;curveFitting=1;jiggle=2;" vertex="1" parent="757">
                    <mxGeometry y="90" width="233" height="30" as="geometry"/>
                </mxCell>
                <mxCell id="761" value="QualGuardião&lt;idGuardião()&gt;" style="text;strokeColor=none;fillColor=none;align=left;verticalAlign=middle;spacingLeft=4;spacingRight=4;overflow=hidden;points=[[0,0.5],[1,0.5]];portConstraint=eastwest;rotatable=0;sketch=1;curveFitting=1;jiggle=2;" vertex="1" parent="757">
                    <mxGeometry y="120" width="233" height="30" as="geometry"/>
                </mxCell>
                <mxCell id="762" value="nameCompleto&lt;varChar()&gt;" style="text;strokeColor=none;fillColor=none;align=left;verticalAlign=middle;spacingLeft=4;spacingRight=4;overflow=hidden;points=[[0,0.5],[1,0.5]];portConstraint=eastwest;rotatable=0;sketch=1;curveFitting=1;jiggle=2;" vertex="1" parent="757">
                    <mxGeometry y="150" width="233" height="30" as="geometry"/>
                </mxCell>
                <mxCell id="763" value="cpf&lt;varChar()&gt;" style="text;strokeColor=none;fillColor=none;align=left;verticalAlign=middle;spacingLeft=4;spacingRight=4;overflow=hidden;points=[[0,0.5],[1,0.5]];portConstraint=eastwest;rotatable=0;sketch=1;curveFitting=1;jiggle=2;" vertex="1" parent="757">
                    <mxGeometry y="180" width="233" height="30" as="geometry"/>
                </mxCell>
                <mxCell id="764" value="rg&lt;varChar()&gt;" style="text;strokeColor=none;fillColor=none;align=left;verticalAlign=middle;spacingLeft=4;spacingRight=4;overflow=hidden;points=[[0,0.5],[1,0.5]];portConstraint=eastwest;rotatable=0;sketch=1;curveFitting=1;jiggle=2;" vertex="1" parent="757">
                    <mxGeometry y="210" width="233" height="30" as="geometry"/>
                </mxCell>
                <mxCell id="765" value="dataNascimento&lt;Date()&gt;" style="text;strokeColor=none;fillColor=none;align=left;verticalAlign=middle;spacingLeft=4;spacingRight=4;overflow=hidden;points=[[0,0.5],[1,0.5]];portConstraint=eastwest;rotatable=0;sketch=1;curveFitting=1;jiggle=2;" vertex="1" parent="757">
                    <mxGeometry y="240" width="233" height="30" as="geometry"/>
                </mxCell>
                <mxCell id="766" value="celular&lt;varChar()&gt;" style="text;strokeColor=none;fillColor=none;align=left;verticalAlign=middle;spacingLeft=4;spacingRight=4;overflow=hidden;points=[[0,0.5],[1,0.5]];portConstraint=eastwest;rotatable=0;sketch=1;curveFitting=1;jiggle=2;" vertex="1" parent="757">
                    <mxGeometry y="270" width="233" height="30" as="geometry"/>
                </mxCell>
                <mxCell id="767" value="telefone&lt;varChar()&gt;" style="text;strokeColor=none;fillColor=none;align=left;verticalAlign=middle;spacingLeft=4;spacingRight=4;overflow=hidden;points=[[0,0.5],[1,0.5]];portConstraint=eastwest;rotatable=0;sketch=1;curveFitting=1;jiggle=2;" vertex="1" parent="757">
                    <mxGeometry y="300" width="233" height="30" as="geometry"/>
                </mxCell>
                <mxCell id="768" value="email&lt;varChar()&gt;" style="text;strokeColor=none;fillColor=none;align=left;verticalAlign=middle;spacingLeft=4;spacingRight=4;overflow=hidden;points=[[0,0.5],[1,0.5]];portConstraint=eastwest;rotatable=0;sketch=1;curveFitting=1;jiggle=2;" vertex="1" parent="757">
                    <mxGeometry y="330" width="233" height="30" as="geometry"/>
                </mxCell>
                <mxCell id="769" value="CEP&lt;varChar()&gt;" style="text;strokeColor=none;fillColor=none;align=left;verticalAlign=middle;spacingLeft=4;spacingRight=4;overflow=hidden;points=[[0,0.5],[1,0.5]];portConstraint=eastwest;rotatable=0;sketch=1;curveFitting=1;jiggle=2;" vertex="1" parent="757">
                    <mxGeometry y="360" width="233" height="30" as="geometry"/>
                </mxCell>
                <mxCell id="770" value="Logradouro&lt;varChar()&gt;" style="text;strokeColor=none;fillColor=none;align=left;verticalAlign=middle;spacingLeft=4;spacingRight=4;overflow=hidden;points=[[0,0.5],[1,0.5]];portConstraint=eastwest;rotatable=0;sketch=1;curveFitting=1;jiggle=2;" vertex="1" parent="757">
                    <mxGeometry y="390" width="233" height="30" as="geometry"/>
                </mxCell>
                <mxCell id="771" value="Número &lt;varChar()&gt;" style="text;strokeColor=none;fillColor=none;align=left;verticalAlign=middle;spacingLeft=4;spacingRight=4;overflow=hidden;points=[[0,0.5],[1,0.5]];portConstraint=eastwest;rotatable=0;sketch=1;curveFitting=1;jiggle=2;" vertex="1" parent="757">
                    <mxGeometry y="420" width="233" height="30" as="geometry"/>
                </mxCell>
                <mxCell id="772" value="Bairro&lt;varChar()&gt;" style="text;strokeColor=none;fillColor=none;align=left;verticalAlign=middle;spacingLeft=4;spacingRight=4;overflow=hidden;points=[[0,0.5],[1,0.5]];portConstraint=eastwest;rotatable=0;sketch=1;curveFitting=1;jiggle=2;" vertex="1" parent="757">
                    <mxGeometry y="450" width="233" height="30" as="geometry"/>
                </mxCell>
                <mxCell id="773" value="UF&lt;varChar()&gt;" style="text;strokeColor=none;fillColor=none;align=left;verticalAlign=middle;spacingLeft=4;spacingRight=4;overflow=hidden;points=[[0,0.5],[1,0.5]];portConstraint=eastwest;rotatable=0;sketch=1;curveFitting=1;jiggle=2;" vertex="1" parent="757">
                    <mxGeometry y="480" width="233" height="30" as="geometry"/>
                </mxCell>
                <mxCell id="774" value="Complemento&lt;varChar()&gt;" style="text;strokeColor=none;fillColor=none;align=left;verticalAlign=middle;spacingLeft=4;spacingRight=4;overflow=hidden;points=[[0,0.5],[1,0.5]];portConstraint=eastwest;rotatable=0;sketch=1;curveFitting=1;jiggle=2;" vertex="1" parent="757">
                    <mxGeometry y="510" width="233" height="30" as="geometry"/>
                </mxCell>
                <mxCell id="775" value="Forma de pagamento&lt;varChar()&gt;" style="text;strokeColor=none;fillColor=none;align=left;verticalAlign=middle;spacingLeft=4;spacingRight=4;overflow=hidden;points=[[0,0.5],[1,0.5]];portConstraint=eastwest;rotatable=0;sketch=1;curveFitting=1;jiggle=2;" vertex="1" parent="757">
                    <mxGeometry y="540" width="233" height="30" as="geometry"/>
                </mxCell>
                <mxCell id="776" value="Parcela&lt;number()&gt;" style="text;strokeColor=none;fillColor=none;align=left;verticalAlign=middle;spacingLeft=4;spacingRight=4;overflow=hidden;points=[[0,0.5],[1,0.5]];portConstraint=eastwest;rotatable=0;sketch=1;curveFitting=1;jiggle=2;" vertex="1" parent="757">
                    <mxGeometry y="570" width="233" height="30" as="geometry"/>
                </mxCell>
                <mxCell id="777" value="Bandeira do cartão&lt;varChar()&gt;" style="text;strokeColor=none;fillColor=none;align=left;verticalAlign=middle;spacingLeft=4;spacingRight=4;overflow=hidden;points=[[0,0.5],[1,0.5]];portConstraint=eastwest;rotatable=0;sketch=1;curveFitting=1;jiggle=2;" vertex="1" parent="757">
                    <mxGeometry y="600" width="233" height="30" as="geometry"/>
                </mxCell>
                <mxCell id="778" value="value&lt;number()&gt;" style="text;strokeColor=none;fillColor=none;align=left;verticalAlign=middle;spacingLeft=4;spacingRight=4;overflow=hidden;points=[[0,0.5],[1,0.5]];portConstraint=eastwest;rotatable=0;sketch=1;curveFitting=1;jiggle=2;" vertex="1" parent="757">
                    <mxGeometry y="630" width="233" height="30" as="geometry"/>
                </mxCell>
                <mxCell id="779" value="obs&lt;varChar()&gt;" style="text;strokeColor=none;fillColor=none;align=left;verticalAlign=middle;spacingLeft=4;spacingRight=4;overflow=hidden;points=[[0,0.5],[1,0.5]];portConstraint=eastwest;rotatable=0;sketch=1;curveFitting=1;jiggle=2;" vertex="1" parent="757">
                    <mxGeometry y="660" width="233" height="30" as="geometry"/>
                </mxCell>
                <mxCell id="780" value="Arquivos&lt;byte[]()&gt;" style="text;strokeColor=none;fillColor=none;align=left;verticalAlign=middle;spacingLeft=4;spacingRight=4;overflow=hidden;points=[[0,0.5],[1,0.5]];portConstraint=eastwest;rotatable=0;sketch=1;curveFitting=1;jiggle=2;" vertex="1" parent="757">
                    <mxGeometry y="690" width="233" height="30" as="geometry"/>
                </mxCell>
                <mxCell id="781" style="edgeStyle=none;html=1;endArrow=block;endFill=1;sketch=1;curveFitting=1;jiggle=2;" edge="1" parent="1" source="782" target="794">
                    <mxGeometry relative="1" as="geometry"/>
                </mxCell>
                <mxCell id="782" value="tratamento" style="swimlane;fontStyle=0;childLayout=stackLayout;horizontal=1;startSize=30;horizontalStack=0;resizeParent=1;resizeParentMax=0;resizeLast=0;collapsible=1;marginBottom=0;sketch=1;curveFitting=1;jiggle=2;" vertex="1" parent="1">
                    <mxGeometry x="60" y="-3332" width="225" height="240" as="geometry"/>
                </mxCell>
                <mxCell id="783" value="PK&lt;uuid&gt; tratamento_id&lt;varChar()&gt;" style="text;strokeColor=none;fillColor=none;align=left;verticalAlign=middle;spacingLeft=4;spacingRight=4;overflow=hidden;points=[[0,0.5],[1,0.5]];portConstraint=eastwest;rotatable=0;sketch=1;curveFitting=1;jiggle=2;" vertex="1" parent="782">
                    <mxGeometry y="30" width="225" height="30" as="geometry"/>
                </mxCell>
                <mxCell id="784" value="FK&lt;uuid&gt; patient&lt;varChar()&gt;" style="text;strokeColor=none;fillColor=none;align=left;verticalAlign=middle;spacingLeft=4;spacingRight=4;overflow=hidden;points=[[0,0.5],[1,0.5]];portConstraint=eastwest;rotatable=0;sketch=1;curveFitting=1;jiggle=2;" vertex="1" parent="782">
                    <mxGeometry y="60" width="225" height="30" as="geometry"/>
                </mxCell>
                <mxCell id="785" value="Resumo tratamento&lt;varChar()&gt;" style="text;strokeColor=none;fillColor=none;align=left;verticalAlign=middle;spacingLeft=4;spacingRight=4;overflow=hidden;points=[[0,0.5],[1,0.5]];portConstraint=eastwest;rotatable=0;sketch=1;curveFitting=1;jiggle=2;" vertex="1" parent="782">
                    <mxGeometry y="90" width="225" height="30" as="geometry"/>
                </mxCell>
                <mxCell id="786" value="complaint_text&lt;varChar(500)&gt;" style="text;strokeColor=none;fillColor=none;align=left;verticalAlign=middle;spacingLeft=4;spacingRight=4;overflow=hidden;points=[[0,0.5],[1,0.5]];portConstraint=eastwest;rotatable=0;sketch=1;curveFitting=1;jiggle=2;" vertex="1" parent="782">
                    <mxGeometry y="120" width="225" height="30" as="geometry"/>
                </mxCell>
                <mxCell id="787" value="stats_type&lt;ENUM&gt;" style="text;strokeColor=none;fillColor=none;align=left;verticalAlign=middle;spacingLeft=4;spacingRight=4;overflow=hidden;points=[[0,0.5],[1,0.5]];portConstraint=eastwest;rotatable=0;sketch=1;curveFitting=1;jiggle=2;" vertex="1" parent="782">
                    <mxGeometry y="150" width="225" height="30" as="geometry"/>
                </mxCell>
                <mxCell id="788" value="dateCriado&lt;DateTime()&gt;" style="text;strokeColor=none;fillColor=none;align=left;verticalAlign=middle;spacingLeft=4;spacingRight=4;overflow=hidden;points=[[0,0.5],[1,0.5]];portConstraint=eastwest;rotatable=0;sketch=1;curveFitting=1;jiggle=2;" vertex="1" parent="782">
                    <mxGeometry y="180" width="225" height="30" as="geometry"/>
                </mxCell>
                <mxCell id="789" value="dateEncerrado&lt;DateTime()&gt;" style="text;strokeColor=none;fillColor=none;align=left;verticalAlign=middle;spacingLeft=4;spacingRight=4;overflow=hidden;points=[[0,0.5],[1,0.5]];portConstraint=eastwest;rotatable=0;sketch=1;curveFitting=1;jiggle=2;" vertex="1" parent="782">
                    <mxGeometry y="210" width="225" height="30" as="geometry"/>
                </mxCell>
                <mxCell id="790" style="edgeStyle=none;html=1;endArrow=block;endFill=1;sketch=1;curveFitting=1;jiggle=2;" edge="1" parent="1" source="794" target="809">
                    <mxGeometry relative="1" as="geometry">
                        <Array as="points">
                            <mxPoint x="569" y="-3899"/>
                        </Array>
                    </mxGeometry>
                </mxCell>
                <mxCell id="791" style="edgeStyle=none;html=1;endArrow=block;endFill=1;sketch=1;curveFitting=1;jiggle=2;hachureGap=4;fontSource=https%3A%2F%2Ffonts.googleapis.com%2Fcss%3Ffamily%3DArchitects%2BDaughter;" edge="1" parent="1" source="794" target="823">
                    <mxGeometry relative="1" as="geometry">
                        <Array as="points">
                            <mxPoint x="533" y="-3499"/>
                        </Array>
                    </mxGeometry>
                </mxCell>
                <mxCell id="792" style="edgeStyle=none;html=1;endArrow=block;endFill=1;sketch=1;curveFitting=1;jiggle=2;" edge="1" parent="1" source="794" target="814">
                    <mxGeometry relative="1" as="geometry">
                        <Array as="points">
                            <mxPoint x="802" y="-3191"/>
                            <mxPoint x="794" y="-2993"/>
                        </Array>
                    </mxGeometry>
                </mxCell>
                <mxCell id="793" style="edgeStyle=none;html=1;endArrow=block;endFill=1;sketch=1;curveFitting=1;jiggle=2;" edge="1" parent="1" source="794" target="730">
                    <mxGeometry relative="1" as="geometry">
                        <Array as="points">
                            <mxPoint x="806" y="-3196"/>
                            <mxPoint x="806" y="-3723"/>
                        </Array>
                    </mxGeometry>
                </mxCell>
                <mxCell id="794" value="tratamento_diciplina" style="swimlane;fontStyle=0;childLayout=stackLayout;horizontal=1;startSize=30;horizontalStack=0;resizeParent=1;resizeParentMax=0;resizeLast=0;collapsible=1;marginBottom=0;sketch=1;curveFitting=1;jiggle=2;" vertex="1" parent="1">
                    <mxGeometry x="456" y="-3401" width="225" height="450" as="geometry"/>
                </mxCell>
                <mxCell id="795" value="PK&lt;uuid&gt; tratamento_diciplina_id&lt;varChar()&gt;" style="text;strokeColor=none;fillColor=none;align=left;verticalAlign=middle;spacingLeft=4;spacingRight=4;overflow=hidden;points=[[0,0.5],[1,0.5]];portConstraint=eastwest;rotatable=0;sketch=1;curveFitting=1;jiggle=2;" vertex="1" parent="794">
                    <mxGeometry y="30" width="225" height="30" as="geometry"/>
                </mxCell>
                <mxCell id="796" value="FK&lt;uuid&gt; tratamento_id&lt;varChar()&gt;" style="text;strokeColor=none;fillColor=none;align=left;verticalAlign=middle;spacingLeft=4;spacingRight=4;overflow=hidden;points=[[0,0.5],[1,0.5]];portConstraint=eastwest;rotatable=0;sketch=1;curveFitting=1;jiggle=2;" vertex="1" parent="794">
                    <mxGeometry y="60" width="225" height="30" as="geometry"/>
                </mxCell>
                <mxCell id="797" value="FK&lt;uuid&gt; servico_id&lt;varChar()&gt;" style="text;strokeColor=none;fillColor=none;align=left;verticalAlign=middle;spacingLeft=4;spacingRight=4;overflow=hidden;points=[[0,0.5],[1,0.5]];portConstraint=eastwest;rotatable=0;sketch=1;curveFitting=1;jiggle=2;" vertex="1" parent="794">
                    <mxGeometry y="90" width="225" height="30" as="geometry"/>
                </mxCell>
                <mxCell id="798" value="stats_type&lt;ENUM&gt;" style="text;strokeColor=none;fillColor=none;align=left;verticalAlign=middle;spacingLeft=4;spacingRight=4;overflow=hidden;points=[[0,0.5],[1,0.5]];portConstraint=eastwest;rotatable=0;sketch=1;curveFitting=1;jiggle=2;" vertex="1" parent="794">
                    <mxGeometry y="120" width="225" height="30" as="geometry"/>
                </mxCell>
                <mxCell id="799" value="dateAgendada&lt;DateTime()&gt;" style="text;strokeColor=none;fillColor=none;align=left;verticalAlign=middle;spacingLeft=4;spacingRight=4;overflow=hidden;points=[[0,0.5],[1,0.5]];portConstraint=eastwest;rotatable=0;sketch=1;curveFitting=1;jiggle=2;" vertex="1" parent="794">
                    <mxGeometry y="150" width="225" height="30" as="geometry"/>
                </mxCell>
                <mxCell id="800" value="dateConsultaIniciada&lt;DateTime()&gt;" style="text;strokeColor=none;fillColor=none;align=left;verticalAlign=middle;spacingLeft=4;spacingRight=4;overflow=hidden;points=[[0,0.5],[1,0.5]];portConstraint=eastwest;rotatable=0;sketch=1;curveFitting=1;jiggle=2;" vertex="1" parent="794">
                    <mxGeometry y="180" width="225" height="30" as="geometry"/>
                </mxCell>
                <mxCell id="801" value="dateConsultaFinalizada&lt;DateTime()&gt;" style="text;strokeColor=none;fillColor=none;align=left;verticalAlign=middle;spacingLeft=4;spacingRight=4;overflow=hidden;points=[[0,0.5],[1,0.5]];portConstraint=eastwest;rotatable=0;sketch=1;curveFitting=1;jiggle=2;" vertex="1" parent="794">
                    <mxGeometry y="210" width="225" height="30" as="geometry"/>
                </mxCell>
                <mxCell id="802" value="Encaminhado_para servico_id&lt;varChar()&gt;" style="text;strokeColor=none;fillColor=none;align=left;verticalAlign=middle;spacingLeft=4;spacingRight=4;overflow=hidden;points=[[0,0.5],[1,0.5]];portConstraint=eastwest;rotatable=0;sketch=1;curveFitting=1;jiggle=2;" vertex="1" parent="794">
                    <mxGeometry y="240" width="225" height="30" as="geometry"/>
                </mxCell>
                <mxCell id="803" value="autorizacao_professor_atual&lt;Boolean()&gt;" style="text;strokeColor=none;fillColor=none;align=left;verticalAlign=middle;spacingLeft=4;spacingRight=4;overflow=hidden;points=[[0,0.5],[1,0.5]];portConstraint=eastwest;rotatable=0;sketch=1;curveFitting=1;jiggle=2;" vertex="1" parent="794">
                    <mxGeometry y="270" width="225" height="30" as="geometry"/>
                </mxCell>
                <mxCell id="804" value="autorizacao_professor_atual_data&lt;Boolean()&gt;" style="text;strokeColor=none;fillColor=none;align=left;verticalAlign=middle;spacingLeft=4;spacingRight=4;overflow=hidden;points=[[0,0.5],[1,0.5]];portConstraint=eastwest;rotatable=0;sketch=1;curveFitting=1;jiggle=2;" vertex="1" parent="794">
                    <mxGeometry y="300" width="225" height="30" as="geometry"/>
                </mxCell>
                <mxCell id="805" value="ocorrenciaConsulta&lt;varChar()&gt;" style="text;strokeColor=none;fillColor=none;align=left;verticalAlign=middle;spacingLeft=4;spacingRight=4;overflow=hidden;points=[[0,0.5],[1,0.5]];portConstraint=eastwest;rotatable=0;sketch=1;curveFitting=1;jiggle=2;" vertex="1" parent="794">
                    <mxGeometry y="330" width="225" height="30" as="geometry"/>
                </mxCell>
                <mxCell id="806" value="alunos&lt;User_tratamento_diciplina()&gt;" style="text;strokeColor=none;fillColor=none;align=left;verticalAlign=middle;spacingLeft=4;spacingRight=4;overflow=hidden;points=[[0,0.5],[1,0.5]];portConstraint=eastwest;rotatable=0;sketch=1;curveFitting=1;jiggle=2;" vertex="1" parent="794">
                    <mxGeometry y="360" width="225" height="30" as="geometry"/>
                </mxCell>
                <mxCell id="807" value="assinaturaPaciente&lt;byte[]()&gt;" style="text;strokeColor=none;fillColor=none;align=left;verticalAlign=middle;spacingLeft=4;spacingRight=4;overflow=hidden;points=[[0,0.5],[1,0.5]];portConstraint=eastwest;rotatable=0;sketch=1;curveFitting=1;jiggle=2;" vertex="1" parent="794">
                    <mxGeometry y="390" width="225" height="30" as="geometry"/>
                </mxCell>
                <mxCell id="808" value="justificativaFalta&lt;varChar()&gt;" style="text;strokeColor=none;fillColor=none;align=left;verticalAlign=middle;spacingLeft=4;spacingRight=4;overflow=hidden;points=[[0,0.5],[1,0.5]];portConstraint=eastwest;rotatable=0;sketch=1;curveFitting=1;jiggle=2;" vertex="1" parent="794">
                    <mxGeometry y="420" width="225" height="30" as="geometry"/>
                </mxCell>
                <mxCell id="809" value="User_pacient" style="swimlane;fontStyle=0;childLayout=stackLayout;horizontal=1;startSize=30;horizontalStack=0;resizeParent=1;resizeParentMax=0;resizeLast=0;collapsible=1;marginBottom=0;sketch=1;curveFitting=1;jiggle=2;" vertex="1" parent="1">
                    <mxGeometry x="265" y="-3953" width="233" height="120" as="geometry"/>
                </mxCell>
                <mxCell id="810" value="FK&lt;uuid&gt;tratamento_diciplina_id&lt;varChar()&gt;" style="text;strokeColor=none;fillColor=none;align=left;verticalAlign=middle;spacingLeft=4;spacingRight=4;overflow=hidden;points=[[0,0.5],[1,0.5]];portConstraint=eastwest;rotatable=0;sketch=1;curveFitting=1;jiggle=2;" vertex="1" parent="809">
                    <mxGeometry y="30" width="233" height="30" as="geometry"/>
                </mxCell>
                <mxCell id="811" value="FK&lt;uuid&gt; userId&lt;varChar()&gt;" style="text;strokeColor=none;fillColor=none;align=left;verticalAlign=middle;spacingLeft=4;spacingRight=4;overflow=hidden;points=[[0,0.5],[1,0.5]];portConstraint=eastwest;rotatable=0;sketch=1;curveFitting=1;jiggle=2;" vertex="1" parent="809">
                    <mxGeometry y="60" width="233" height="30" as="geometry"/>
                </mxCell>
                <mxCell id="812" value="FK&lt;uuid&gt; ondeVinculado&lt;varChar()&gt;" style="text;strokeColor=none;fillColor=none;align=left;verticalAlign=middle;spacingLeft=4;spacingRight=4;overflow=hidden;points=[[0,0.5],[1,0.5]];portConstraint=eastwest;rotatable=0;sketch=1;curveFitting=1;jiggle=2;" vertex="1" parent="809">
                    <mxGeometry y="90" width="233" height="30" as="geometry"/>
                </mxCell>
                <mxCell id="813" style="edgeStyle=none;html=1;" edge="1" parent="1" source="814" target="819">
                    <mxGeometry relative="1" as="geometry"/>
                </mxCell>
                <mxCell id="814" value="Finance" style="swimlane;fontStyle=0;childLayout=stackLayout;horizontal=1;startSize=30;horizontalStack=0;resizeParent=1;resizeParentMax=0;resizeLast=0;collapsible=1;marginBottom=0;sketch=1;curveFitting=1;jiggle=2;" vertex="1" parent="1">
                    <mxGeometry x="677" y="-2880" width="233" height="120" as="geometry"/>
                </mxCell>
                <mxCell id="815" value="PK&lt;uuid&gt; id&lt;varChar()&gt;" style="text;strokeColor=none;fillColor=none;align=left;verticalAlign=middle;spacingLeft=4;spacingRight=4;overflow=hidden;points=[[0,0.5],[1,0.5]];portConstraint=eastwest;rotatable=0;sketch=1;curveFitting=1;jiggle=2;" vertex="1" parent="814">
                    <mxGeometry y="30" width="233" height="30" as="geometry"/>
                </mxCell>
                <mxCell id="816" value="FK&lt;uuid&gt;tratamento_diciplina&#10;_id&lt;varChar()&gt;" style="text;strokeColor=none;fillColor=none;align=left;verticalAlign=middle;spacingLeft=4;spacingRight=4;overflow=hidden;points=[[0,0.5],[1,0.5]];portConstraint=eastwest;rotatable=0;sketch=1;curveFitting=1;jiggle=2;" vertex="1" parent="814">
                    <mxGeometry y="60" width="233" height="30" as="geometry"/>
                </mxCell>
                <mxCell id="817" value="status&lt;Enum()&gt;" style="text;strokeColor=none;fillColor=none;align=left;verticalAlign=middle;spacingLeft=4;spacingRight=4;overflow=hidden;points=[[0,0.5],[1,0.5]];portConstraint=eastwest;rotatable=0;sketch=1;curveFitting=1;jiggle=2;" vertex="1" parent="814">
                    <mxGeometry y="90" width="233" height="30" as="geometry"/>
                </mxCell>
                <mxCell id="818" style="edgeStyle=none;html=1;endArrow=block;endFill=1;sketch=1;curveFitting=1;jiggle=2;" edge="1" parent="1" source="819" target="757">
                    <mxGeometry relative="1" as="geometry"/>
                </mxCell>
                <mxCell id="819" value="Finance_FinanceItem" style="swimlane;fontStyle=0;childLayout=stackLayout;horizontal=1;startSize=30;horizontalStack=0;resizeParent=1;resizeParentMax=0;resizeLast=0;collapsible=1;marginBottom=0;sketch=1;curveFitting=1;jiggle=2;" vertex="1" parent="1">
                    <mxGeometry x="996" y="-2865" width="233" height="90" as="geometry"/>
                </mxCell>
                <mxCell id="820" value="FK&lt;uuid&gt;Finance_id&lt;varChar()&gt;" style="text;strokeColor=none;fillColor=none;align=left;verticalAlign=middle;spacingLeft=4;spacingRight=4;overflow=hidden;points=[[0,0.5],[1,0.5]];portConstraint=eastwest;rotatable=0;sketch=1;curveFitting=1;jiggle=2;" vertex="1" parent="819">
                    <mxGeometry y="30" width="233" height="30" as="geometry"/>
                </mxCell>
                <mxCell id="821" value="FK&lt;uuid&gt;FinanceItem_id&lt;varChar()&gt;" style="text;strokeColor=none;fillColor=none;align=left;verticalAlign=middle;spacingLeft=4;spacingRight=4;overflow=hidden;points=[[0,0.5],[1,0.5]];portConstraint=eastwest;rotatable=0;sketch=1;curveFitting=1;jiggle=2;" vertex="1" parent="819">
                    <mxGeometry y="60" width="233" height="30" as="geometry"/>
                </mxCell>
                <mxCell id="822" style="edgeStyle=none;html=1;endArrow=block;endFill=1;sketch=1;curveFitting=1;jiggle=2;hachureGap=4;fontSource=https%3A%2F%2Ffonts.googleapis.com%2Fcss%3Ffamily%3DArchitects%2BDaughter;" edge="1" parent="1" source="823" target="809">
                    <mxGeometry relative="1" as="geometry">
                        <Array as="points">
                            <mxPoint x="191" y="-3894"/>
                        </Array>
                    </mxGeometry>
                </mxCell>
                <mxCell id="823" value="Fila espera" style="swimlane;fontStyle=0;childLayout=stackLayout;horizontal=1;startSize=30;horizontalStack=0;resizeParent=1;resizeParentMax=0;resizeLast=0;collapsible=1;marginBottom=0;sketch=1;curveFitting=1;jiggle=2;" vertex="1" parent="1">
                    <mxGeometry x="69" y="-3740" width="233" height="150" as="geometry"/>
                </mxCell>
                <mxCell id="824" value="PK&lt;uuid&gt; id&lt;varChar()&gt;" style="text;strokeColor=none;fillColor=none;align=left;verticalAlign=middle;spacingLeft=4;spacingRight=4;overflow=hidden;points=[[0,0.5],[1,0.5]];portConstraint=eastwest;rotatable=0;sketch=1;curveFitting=1;jiggle=2;" vertex="1" parent="823">
                    <mxGeometry y="30" width="233" height="30" as="geometry"/>
                </mxCell>
                <mxCell id="825" value="FK&lt;uuid&gt;tratamento_diciplina&#10;_id&lt;varChar()&gt;" style="text;strokeColor=none;fillColor=none;align=left;verticalAlign=middle;spacingLeft=4;spacingRight=4;overflow=hidden;points=[[0,0.5],[1,0.5]];portConstraint=eastwest;rotatable=0;sketch=1;curveFitting=1;jiggle=2;" vertex="1" parent="823">
                    <mxGeometry y="60" width="233" height="30" as="geometry"/>
                </mxCell>
                <mxCell id="826" value="FK&lt;uuid&gt;pacient_id&lt;varChar()&gt;" style="text;strokeColor=none;fillColor=none;align=left;verticalAlign=middle;spacingLeft=4;spacingRight=4;overflow=hidden;points=[[0,0.5],[1,0.5]];portConstraint=eastwest;rotatable=0;sketch=1;curveFitting=1;jiggle=2;" vertex="1" parent="823">
                    <mxGeometry y="90" width="233" height="30" as="geometry"/>
                </mxCell>
                <mxCell id="827" value="status&lt;Enum()&gt;" style="text;strokeColor=none;fillColor=none;align=left;verticalAlign=middle;spacingLeft=4;spacingRight=4;overflow=hidden;points=[[0,0.5],[1,0.5]];portConstraint=eastwest;rotatable=0;sketch=1;curveFitting=1;jiggle=2;" vertex="1" parent="823">
                    <mxGeometry y="120" width="233" height="30" as="geometry"/>
                </mxCell>
                <mxCell id="828" style="edgeStyle=none;html=1;endArrow=block;endFill=1;sketch=1;curveFitting=1;jiggle=2;hachureGap=4;fontSource=https%3A%2F%2Ffonts.googleapis.com%2Fcss%3Ffamily%3DArchitects%2BDaughter;" edge="1" parent="1" source="810" target="705">
                    <mxGeometry relative="1" as="geometry">
                        <Array as="points">
                            <mxPoint x="2037" y="-3943"/>
                        </Array>
                    </mxGeometry>
                </mxCell>
            </root>
        </mxGraphModel>
    </diagram>
</mxfile>